  0
SECTION
  2
HEADER
  9
$ACADVER
  1
AC1015
  9
$ACADMAINTVER
 70
     6
  9
$DWGCODEPAGE
  3
ANSI_1252
  9
$INSBASE
 10
0.0
 20
0.0
 30
0.0
  9
$EXTMIN
 10
-3.1869307128
 20
-3.2
 30
0.0
  9
$EXTMAX
 10
3.1869307128
 20
3.2
 30
0.0
  9
$LIMMIN
 10
0.0
 20
0.0
  9
$LIMMAX
 10
420.0
 20
297.0
  9
$ORTHOMODE
 70
     0
  9
$REGENMODE
 70
     1
  9
$FILLMODE
 70
     1
  9
$QTEXTMODE
 70
     0
  9
$MIRRTEXT
 70
     1
  9
$LTSCALE
 40
1.0
  9
$ATTMODE
 70
     1
  9
$TEXTSIZE
 40
0.35
  9
$TRACEWID
 40
1.0
  9
$TEXTSTYLE
  7
Standard
  9
$CLAYER
  8
0
  9
$CELTYPE
  6
ByLayer
  9
$CECOLOR
 62
   256
  9
$CELTSCALE
 40
1.0
  9
$DISPSILH
 70
     0
  9
$DIMSCALE
 40
1.0
  9
$DIMASZ
 40
0.3302
  9
$DIMEXO
 40
0.0
  9
$DIMDLI
 40
3.75
  9
$DIMRND
 40
0.0
  9
$DIMDLE
 40
0.0
  9
$DIMEXE
 40
0.1
  9
$DIMTP
 40
0.0
  9
$DIMTM
 40
0.0
  9
$DIMTXT
 40
0.35
  9
$DIMCEN
 40
2.5
  9
$DIMTSZ
 40
0.0
  9
$DIMTOL
 70
     0
  9
$DIMLIM
 70
     0
  9
$DIMTIH
 70
     1
  9
$DIMTOH
 70
     1
  9
$DIMSE1
 70
     0
  9
$DIMSE2
 70
     0
  9
$DIMTAD
 70
     1
  9
$DIMZIN
 70
     1
  9
$DIMBLK
  1

  9
$DIMASO
 70
     1
  9
$DIMSHO
 70
     1
  9
$DIMPOST
  1

  9
$DIMAPOST
  1

  9
$DIMALT
 70
     0
  9
$DIMALTD
 70
     3
  9
$DIMALTF
 40
0.3937007874
  9
$DIMLFAC
 40
1.0
  9
$DIMTOFL
 70
     1
  9
$DIMTVP
 40
0.0
  9
$DIMTIX
 70
     0
  9
$DIMSOXD
 70
     0
  9
$DIMSAH
 70
     0
  9
$DIMBLK1
  1

  9
$DIMBLK2
  1

  9
$DIMSTYLE
  2
ISO-25
  9
$DIMCLRD
 70
     0
  9
$DIMCLRE
 70
     0
  9
$DIMCLRT
 70
     0
  9
$DIMTFAC
 40
1.0
  9
$DIMGAP
 40
0.1524
  9
$DIMJUST
 70
     0
  9
$DIMSD1
 70
     0
  9
$DIMSD2
 70
     0
  9
$DIMTOLJ
 70
     0
  9
$DIMTZIN
 70
     1
  9
$DIMALTZ
 70
     0
  9
$DIMALTTZ
 70
     0
  9
$DIMUPT
 70
     0
  9
$DIMDEC
 70
     2
  9
$DIMTDEC
 70
     2
  9
$DIMALTU
 70
     2
  9
$DIMALTTD
 70
     3
  9
$DIMTXSTY
  7
Standard
  9
$DIMAUNIT
 70
     0
  9
$DIMADEC
 70
     2
  9
$DIMALTRND
 40
0.0
  9
$DIMAZIN
 70
     0
  9
$DIMDSEP
 70
    44
  9
$DIMATFIT
 70
     3
  9
$DIMFRAC
 70
     0
  9
$DIMLDRBLK
  1

  9
$DIMLUNIT
 70
     2
  9
$DIMLWD
 70
    -2
  9
$DIMLWE
 70
    -2
  9
$DIMTMOVE
 70
     0
  9
$LUNITS
 70
     2
  9
$LUPREC
 70
     2
  9
$SKETCHINC
 40
1.0
  9
$FILLETRAD
 40
0.0
  9
$AUNITS
 70
     0
  9
$AUPREC
 70
     2
  9
$MENU
  1
.
  9
$ELEVATION
 40
0.0
  9
$PELEVATION
 40
0.0
  9
$THICKNESS
 40
0.0
  9
$LIMCHECK
 70
     0
  9
$CHAMFERA
 40
0.0
  9
$CHAMFERB
 40
0.0
  9
$CHAMFERC
 40
0.0
  9
$CHAMFERD
 40
0.0
  9
$SKPOLY
 70
     0
  9
$TDCREATE
 40
2459776.726059908
  9
$TDUCREATE
 40
2459776.496893241
  9
$TDUPDATE
 40
2459776.726189595
  9
$TDUUPDATE
 40
2459776.497022928
  9
$TDINDWG
 40
0.0000000116
  9
$TDUSRTIMER
 40
0.0000000116
  9
$USRTIMER
 70
     1
  9
$ANGBASE
 50
0.0
  9
$ANGDIR
 70
     0
  9
$PDMODE
 70
     0
  9
$PDSIZE
 40
-1.0
  9
$PLINEWID
 40
0.0
  9
$SPLFRAME
 70
     0
  9
$SPLINETYPE
 70
     6
  9
$SPLINESEGS
 70
     8
  9
$HANDSEED
  5
255
  9
$SURFTAB1
 70
     6
  9
$SURFTAB2
 70
     6
  9
$SURFTYPE
 70
     6
  9
$SURFU
 70
     6
  9
$SURFV
 70
     6
  9
$UCSBASE
  2

  9
$UCSNAME
  2

  9
$UCSORG
 10
0.0
 20
0.0
 30
0.0
  9
$UCSXDIR
 10
1.0
 20
0.0
 30
0.0
  9
$UCSYDIR
 10
0.0
 20
1.0
 30
0.0
  9
$UCSORTHOREF
  2

  9
$UCSORTHOVIEW
 70
     0
  9
$UCSORGTOP
 10
0.0
 20
0.0
 30
0.0
  9
$UCSORGBOTTOM
 10
0.0
 20
0.0
 30
0.0
  9
$UCSORGLEFT
 10
0.0
 20
0.0
 30
0.0
  9
$UCSORGRIGHT
 10
0.0
 20
0.0
 30
0.0
  9
$UCSORGFRONT
 10
0.0
 20
0.0
 30
0.0
  9
$UCSORGBACK
 10
0.0
 20
0.0
 30
0.0
  9
$PUCSBASE
  2

  9
$PUCSNAME
  2

  9
$PUCSORG
 10
0.0
 20
0.0
 30
0.0
  9
$PUCSXDIR
 10
1.0
 20
0.0
 30
0.0
  9
$PUCSYDIR
 10
0.0
 20
1.0
 30
0.0
  9
$PUCSORTHOREF
  2

  9
$PUCSORTHOVIEW
 70
     0
  9
$PUCSORGTOP
 10
0.0
 20
0.0
 30
0.0
  9
$PUCSORGBOTTOM
 10
0.0
 20
0.0
 30
0.0
  9
$PUCSORGLEFT
 10
0.0
 20
0.0
 30
0.0
  9
$PUCSORGRIGHT
 10
0.0
 20
0.0
 30
0.0
  9
$PUCSORGFRONT
 10
0.0
 20
0.0
 30
0.0
  9
$PUCSORGBACK
 10
0.0
 20
0.0
 30
0.0
  9
$USERI1
 70
     0
  9
$USERI2
 70
     0
  9
$USERI3
 70
     0
  9
$USERI4
 70
     0
  9
$USERI5
 70
     0
  9
$USERR1
 40
0.0
  9
$USERR2
 40
0.0
  9
$USERR3
 40
0.0
  9
$USERR4
 40
0.0
  9
$USERR5
 40
0.0
  9
$WORLDVIEW
 70
     1
  9
$SHADEDGE
 70
     3
  9
$SHADEDIF
 70
    70
  9
$TILEMODE
 70
     1
  9
$MAXACTVP
 70
    64
  9
$PINSBASE
 10
0.0
 20
0.0
 30
0.0
  9
$PLIMCHECK
 70
     0
  9
$PEXTMIN
 10
1.0000000000E+20
 20
1.0000000000E+20
 30
1.0000000000E+20
  9
$PEXTMAX
 10
-1.0000000000E+20
 20
-1.0000000000E+20
 30
-1.0000000000E+20
  9
$PLIMMIN
 10
0.0
 20
0.0
  9
$PLIMMAX
 10
420.0
 20
297.0
  9
$UNITMODE
 70
     0
  9
$VISRETAIN
 70
     1
  9
$PLINEGEN
 70
     0
  9
$PSLTSCALE
 70
     1
  9
$TREEDEPTH
 70
  3020
  9
$CMLSTYLE
  2
Standard
  9
$CMLJUST
 70
     0
  9
$CMLSCALE
 40
20.0
  9
$PROXYGRAPHICS
 70
     1
  9
$MEASUREMENT
 70
     1
  9
$CELWEIGHT
370
    -1
  9
$ENDCAPS
280
     0
  9
$JOINSTYLE
280
     0
  9
$LWDISPLAY
290
     1
  9
$INSUNITS
 70
     4
  9
$HYPERLINKBASE
  1

  9
$STYLESHEET
  1

  9
$XEDIT
290
     1
  9
$CEPSNTYPE
380
     0
  9
$PSTYLEMODE
290
     1
  9
$FINGERPRINTGUID
  2
{b65cc975-04d8-46c4-8d24-a047912fe775}
  9
$VERSIONGUID
  2
{FAEB1C32-E019-11D5-929B-00C0DF256EC4}
  9
$EXTNAMES
290
     1
  9
$PSVPSCALE
 40
0.0
  9
$OLESTARTUP
290
     0
  0
ENDSEC
  0
SECTION
  2
CLASSES
  0
CLASS
  1
ACDBDICTIONARYWDFLT
  2
AcDbDictionaryWithDefault
  3
ObjectDBX Classes
 90
        0
280
     0
281
     0
  0
CLASS
  1
VISUALSTYLE
  2
AcDbVisualStyle
  3
ObjectDBX Classes
 90
     4095
280
     0
281
     0
  0
CLASS
  1
MATERIAL
  2
AcDbMaterial
  3
ObjectDBX Classes
 90
     1153
280
     0
281
     0
  0
CLASS
  1
SCALE
  2
AcDbScale
  3
ObjectDBX Classes
 90
     1153
280
     0
281
     0
  0
CLASS
  1
TABLESTYLE
  2
AcDbTableStyle
  3
ObjectDBX Classes
 90
     4095
280
     0
281
     0
  0
CLASS
  1
MLEADERSTYLE
  2
AcDbMLeaderStyle
  3
ACDB_MLEADERSTYLE_CLASS
 90
     4095
280
     0
281
     0
  0
CLASS
  1
SUN
  2
AcDbSun
  3
SCENEOE
 90
     1153
280
     0
281
     0
  0
CLASS
  1
ACDBPLACEHOLDER
  2
AcDbPlaceHolder
  3
ObjectDBX Classes
 90
        0
280
     0
281
     0
  0
CLASS
  1
LAYOUT
  2
AcDbLayout
  3
ObjectDBX Classes
 90
        0
280
     0
281
     0
  0
ENDSEC
  0
SECTION
  2
TABLES
  0
TABLE
  2
VPORT
  5
8
330
0
100
AcDbSymbolTable
 70
     1
  0
VPORT
  5
29
330
8
100
AcDbSymbolTableRecord
100
AcDbViewportTableRecord
  2
*Active
 70
     0
 10
0.0
 20
0.0
 11
1.0
 21
1.0
 12
0.0
 22
0.0
 13
0.0
 23
0.0
 14
10.0
 24
10.0
 15
10.0
 25
10.0
 16
0.0
 26
0.0
 36
1.0
 17
0.0
 27
0.0
 37
0.0
 40
6.528
 41
0.9959158477
 42
50.0
 43
0.0
 44
0.0
 50
0.0
 51
0.0
 71
     0
 72
   100
 73
     1
 74
     3
 75
     0
 76
     0
 77
     0
 78
     0
281
     0
 65
     1
110
0.0
120
0.0
130
0.0
111
1.0
121
0.0
131
0.0
112
0.0
122
1.0
132
0.0
 79
     0
146
0.0
  0
ENDTAB
  0
TABLE
  2
LTYPE
  5
5
330
0
100
AcDbSymbolTable
 70
     6
  0
LTYPE
  5
14
330
5
100
AcDbSymbolTableRecord
100
AcDbLinetypeTableRecord
  2
ByBlock
 70
     0
  3

 72
    65
 73
     0
 40
0.0
  0
LTYPE
  5
15
330
5
100
AcDbSymbolTableRecord
100
AcDbLinetypeTableRecord
  2
ByLayer
 70
     0
  3

 72
    65
 73
     0
 40
0.0
  0
LTYPE
  5
16
330
5
100
AcDbSymbolTableRecord
100
AcDbLinetypeTableRecord
  2
Continuous
 70
     0
  3
Solid line
 72
    65
 73
     0
 40
0.0
  0
LTYPE
  5
5E
330
5
100
AcDbSymbolTableRecord
100
AcDbLinetypeTableRecord
  2
HIDDEN
 70
     0
  3
Hidden __ __ __ __ __ __ __ __ __ __ __ __ __ __
 72
    65
 73
     2
 40
0.1905
 49
0.127
 74
     0
 49
-0.0635
 74
     0
  0
LTYPE
  5
5F
330
5
100
AcDbSymbolTableRecord
100
AcDbLinetypeTableRecord
  2
PHANTOM
 70
     0
  3
Phantom ______  __  __  ______  __  __  ______
 72
    65
 73
     6
 40
1.27
 49
0.635
 74
     0
 49
-0.127
 74
     0
 49
0.127
 74
     0
 49
-0.127
 74
     0
 49
0.127
 74
     0
 49
-0.127
 74
     0
  0
LTYPE
  5
60
330
5
100
AcDbSymbolTableRecord
100
AcDbLinetypeTableRecord
  2
CENTER
 70
     0
  3
Center ____ _ ____ _ ____ _ ____ _ ____ _ ____
 72
    65
 73
     4
 40
1.016
 49
0.635
 74
     0
 49
-0.127
 74
     0
 49
0.127
 74
     0
 49
-0.127
 74
     0
  0
LTYPE
  5
61
330
5
100
AcDbSymbolTableRecord
100
AcDbLinetypeTableRecord
  2
CENTERX2
 70
     0
  3
Center (2x) ________  __  ________  __  _____
 72
    65
 73
     4
 40
2.032
 49
1.27
 74
     0
 49
-0.254
 74
     0
 49
0.254
 74
     0
 49
-0.254
 74
     0
  0
LTYPE
  5
62
330
5
100
AcDbSymbolTableRecord
100
AcDbLinetypeTableRecord
  2
DOT2
 70
     0
  3
Dot (.5x) ........................................
 72
    65
 73
     2
 40
0.0635
 49
0.0
 74
     0
 49
-0.0635
 74
     0
  0
ENDTAB
  0
TABLE
  2
LAYER
  5
2
330
0
100
AcDbSymbolTable
 70
     1
  0
LAYER
  5
10
330
2
100
AcDbSymbolTableRecord
100
AcDbLayerTableRecord
  2
0
 70
     0
 62
     7
  6
Continuous
370
    -3
390
F
  0
ENDTAB
  0
TABLE
  2
STYLE
  5
3
330
0
100
AcDbSymbolTable
 70
     1
  0
STYLE
  5
11
330
3
100
AcDbSymbolTableRecord
100
AcDbTextStyleTableRecord
  2
Standard
 70
     0
 40
0.0
 41
1.0
 50
0.0
 71
     0
 42
0.35
  3
txt
  4

  0
ENDTAB
  0
TABLE
  2
VIEW
  5
6
330
0
100
AcDbSymbolTable
 70
     0
  0
ENDTAB
  0
TABLE
  2
UCS
  5
7
330
0
100
AcDbSymbolTable
 70
     0
  0
ENDTAB
  0
TABLE
  2
APPID
  5
9
330
0
100
AcDbSymbolTable
 70
     1
  0
APPID
  5
12
330
9
100
AcDbSymbolTableRecord
100
AcDbRegAppTableRecord
  2
ACAD
 70
     0
  0
ENDTAB
  0
TABLE
  2
DIMSTYLE
  5
A
330
0
100
AcDbSymbolTable
 70
     1
100
AcDbDimStyleTable
  0
DIMSTYLE
105
27
330
A
100
AcDbSymbolTableRecord
100
AcDbDimStyleTableRecord
  2
ISO-25
 70
     0
 41
2.5
 42
0.625
 43
3.75
 44
1.25
 73
     0
 74
     0
 77
     1
 78
     8
140
2.5
141
2.5
143
0.0393700787
147
0.625
171
     3
172
     1
178
     0
271
     2
272
     2
274
     3
278
    44
283
     0
284
     8
340
11
  0
ENDTAB
  0
TABLE
  2
BLOCK_RECORD
  5
1
330
0
100
AcDbSymbolTable
 70
     1
  0
BLOCK_RECORD
  5
1F
330
1
100
AcDbSymbolTableRecord
100
AcDbBlockTableRecord
  2
*Model_Space
340
22
  0
BLOCK_RECORD
  5
1B
330
1
100
AcDbSymbolTableRecord
100
AcDbBlockTableRecord
  2
*Paper_Space
340
1E
  0
BLOCK_RECORD
  5
23
330
1
100
AcDbSymbolTableRecord
100
AcDbBlockTableRecord
  2
*Paper_Space0
340
26
  0
ENDTAB
  0
ENDSEC
  0
SECTION
  2
BLOCKS
  0
BLOCK
  5
20
330
1F
100
AcDbEntity
  8
0
100
AcDbBlockBegin
  2
*Model_Space
 70
     0
 10
0.0
 20
0.0
 30
0.0
  3
*Model_Space
  1

  0
ENDBLK
  5
21
330
1F
100
AcDbEntity
  8
0
100
AcDbBlockEnd
  0
BLOCK
  5
1C
330
1B
100
AcDbEntity
 67
     1
  8
0
100
AcDbBlockBegin
  2
*Paper_Space
 70
     0
 10
0.0
 20
0.0
 30
0.0
  3
*Paper_Space
  1

  0
ENDBLK
  5
1D
330
1B
100
AcDbEntity
 67
     1
  8
0
100
AcDbBlockEnd
  0
BLOCK
  5
24
330
23
100
AcDbEntity
  8
0
100
AcDbBlockBegin
  2
*Paper_Space0
 70
     0
 10
0.0
 20
0.0
 30
0.0
  3
*Paper_Space0
  1

  0
ENDBLK
  5
25
330
23
100
AcDbEntity
  8
0
100
AcDbBlockEnd
  0
ENDSEC
  0
SECTION
  2
ENTITIES
  0
CIRCLE
  5
63
330
1F
100
AcDbEntity
  8
0
  6
Continuous
 62
     7
100
AcDbCircle
 10
0.0
 20
0.0
 30
0.0
 40
0.285
  0
POINT
  5
66
330
1F
100
AcDbEntity
  8
0
  6
Continuous
 62
     7
100
AcDbPoint
 10
0.0
 20
0.0
 30
0.0
  0
CIRCLE
  5
156
330
1F
100
AcDbEntity
  8
0
  6
Continuous
 62
     7
370
    25
100
AcDbCircle
 10
0.0
 20
-2.0
 30
0.0
 40
0.1500000000000004
  0
CIRCLE
  5
157
330
1F
100
AcDbEntity
  8
0
  6
Continuous
 62
     7
370
    25
100
AcDbCircle
 10
-1.7320508076
 20
1.0
 30
0.0
 40
0.1499999999999998
  0
CIRCLE
  5
158
330
1F
100
AcDbEntity
  8
0
  6
Continuous
 62
     7
370
    25
100
AcDbCircle
 10
1.0
 20
1.7320508076
 30
0.0
 40
0.1500000000000004
  0
CIRCLE
  5
159
330
1F
100
AcDbEntity
  8
0
  6
Continuous
 62
     7
370
    25
100
AcDbCircle
 10
-1.0
 20
-1.7320508076
 30
0.0
 40
0.1499999999999999
  0
CIRCLE
  5
15A
330
1F
100
AcDbEntity
  8
0
  6
Continuous
 62
     7
370
    25
100
AcDbCircle
 10
-1.7320508076
 20
-1.0
 30
0.0
 40
0.1499999999999999
  0
CIRCLE
  5
15B
330
1F
100
AcDbEntity
  8
0
  6
Continuous
 62
     7
370
    25
100
AcDbCircle
 10
-2.0
 20
0.0
 30
0.0
 40
0.1499999999999992
  0
CIRCLE
  5
15C
330
1F
100
AcDbEntity
  8
0
  6
Continuous
 62
     7
370
    25
100
AcDbCircle
 10
-1.0
 20
1.7320508076
 30
0.0
 40
0.1500000000000001
  0
CIRCLE
  5
15D
330
1F
100
AcDbEntity
  8
0
  6
Continuous
 62
     7
370
    25
100
AcDbCircle
 10
0.0
 20
2.0
 30
0.0
 40
0.1500000000000006
  0
CIRCLE
  5
15E
330
1F
100
AcDbEntity
  8
0
  6
Continuous
 62
     7
370
    25
100
AcDbCircle
 10
1.7320508076
 20
1.0
 30
0.0
 40
0.1499999999999996
  0
CIRCLE
  5
15F
330
1F
100
AcDbEntity
  8
0
  6
Continuous
 62
     7
370
    25
100
AcDbCircle
 10
2.0
 20
0.0
 30
0.0
 40
0.1499999999999995
  0
CIRCLE
  5
160
330
1F
100
AcDbEntity
  8
0
  6
Continuous
 62
     7
370
    25
100
AcDbCircle
 10
1.7320508076
 20
-1.0
 30
0.0
 40
0.1499999999999997
  0
CIRCLE
  5
161
330
1F
100
AcDbEntity
  8
0
  6
Continuous
 62
     7
370
    25
100
AcDbCircle
 10
1.0
 20
-1.7320508076
 30
0.0
 40
0.1499999999999995
  0
CIRCLE
  5
162
330
1F
100
AcDbEntity
  8
0
  6
Continuous
 62
     7
370
    25
100
AcDbCircle
 10
0.0
 20
0.0
 30
0.0
 40
0.2800000000000001
  0
ARC
  5
164
330
1F
100
AcDbEntity
  8
0
  6
Continuous
 62
     7
370
    25
100
AcDbCircle
 10
2.7285748166
 20
-0.5322400496
 30
0.0
 40
0.0599999999999994
100
AcDbArc
 50
83.6611694951
 51
168.9623933308
  0
ARC
  5
165
330
1F
100
AcDbEntity
  8
0
  6
Continuous
 62
     7
370
    25
100
AcDbCircle
 10
0.0
 20
0.0
 30
0.0
 40
2.720000000001914
100
AcDbArc
 50
347.0376066692
 51
348.9623933308
  0
ARC
  5
166
330
1F
100
AcDbEntity
  8
0
  6
Continuous
 62
     7
370
    25
100
AcDbCircle
 10
2.7091586606
 20
-0.6235858816
 30
0.0
 40
0.059999999999999
100
AcDbArc
 50
167.0376066692
 51
252.3388305049
  0
ARC
  5
167
330
1F
100
AcDbEntity
  8
0
  6
Continuous
 62
     7
370
    25
100
AcDbCircle
 10
2.4139648755
 20
-1.55071915
 30
0.0
 40
0.912993046254167
100
AcDbArc
 50
46.687583976
 51
72.3388305049
  0
ARC
  5
168
330
1F
100
AcDbEntity
  8
0
  6
Continuous
 62
     7
370
    25
100
AcDbCircle
 10
2.9990976723
 20
-0.9300608324
 30
0.0
 40
0.0599999999999966
100
AcDbArc
 50
342.7706283551
 51
46.687583976
  0
ARC
  5
169
330
1F
100
AcDbEntity
  8
0
  6
Continuous
 62
     7
370
    25
100
AcDbCircle
 10
0.0
 20
0.0
 30
0.0
 40
3.200000000009701
100
AcDbArc
 50
341.229371645
 51
342.7706283551
  0
ARC
  5
16A
330
1F
100
AcDbEntity
  8
0
  6
Continuous
 62
     7
370
    25
100
AcDbCircle
 10
2.9729970257
 20
-1.0103903627
 30
0.0
 40
0.0600000000000025
100
AcDbArc
 50
277.312416024
 51
341.2293716449
  0
ARC
  5
16B
330
1F
100
AcDbEntity
  8
0
  6
Continuous
 62
     7
370
    25
100
AcDbCircle
 10
2.864428455
 20
-0.1643348076
 30
0.0
 40
0.9129930462541731
100
AcDbArc
 50
251.6611694951
 51
277.312416024
  0
ARC
  5
16C
330
1F
100
AcDbEntity
  8
0
  6
Continuous
 62
     7
370
    25
100
AcDbCircle
 10
2.5582899816
 20
-1.0879119311
 30
0.0
 40
0.0600000000000004
100
AcDbArc
 50
71.6611694951
 51
156.9623933308
  0
ARC
  5
16D
330
1F
100
AcDbEntity
  8
0
  6
Continuous
 62
     7
370
    25
100
AcDbCircle
 10
0.0
 20
0.0
 30
0.0
 40
2.720000000000617
100
AcDbArc
 50
335.0376066692
 51
336.9623933308
  0
ARC
  5
16E
330
1F
100
AcDbEntity
  8
0
  6
Continuous
 62
     7
370
    25
100
AcDbCircle
 10
2.5203062488
 20
-1.1732247918
 30
0.0
 40
0.0600000000000004
100
AcDbArc
 50
155.0376066692
 51
240.3388305049
  0
ARC
  5
16F
330
1F
100
AcDbEntity
  8
0
  6
Continuous
 62
     7
370
    25
100
AcDbCircle
 10
2.0388013108
 20
-2.0187237348
 30
0.0
 40
0.9129930462541515
100
AcDbArc
 50
34.687583976
 51
60.3388305049
  0
ARC
  5
170
330
1F
100
AcDbEntity
  8
0
  6
Continuous
 62
     7
370
    25
100
AcDbCircle
 10
2.7401896723
 20
-1.5332842398
 30
0.0
 40
0.0599999999999971
100
AcDbArc
 50
330.7706283551
 51
34.687583976
  0
ARC
  5
171
330
1F
100
AcDbEntity
  8
0
  6
Continuous
 62
     7
370
    25
100
AcDbCircle
 10
0.0
 20
0.0
 30
0.0
 40
3.200000000006193
100
AcDbArc
 50
329.229371645
 51
330.7706283551
  0
ARC
  5
172
330
1F
100
AcDbEntity
  8
0
  6
Continuous
 62
     7
370
    25
100
AcDbCircle
 10
2.697957939
 20
-1.6064317475
 30
0.0
 40
0.0600000000000014
100
AcDbArc
 50
265.312416024
 51
329.2293716449
  0
ARC
  5
173
330
1F
100
AcDbEntity
  8
0
  6
Continuous
 62
     7
370
    25
100
AcDbCircle
 10
2.767666693
 20
-0.756291861
 30
0.0
 40
0.9129930462541576
100
AcDbArc
 50
239.6611694951
 51
265.312416024
  0
ARC
  5
174
330
1F
100
AcDbEntity
  8
0
  6
Continuous
 62
     7
370
    25
100
AcDbCircle
 10
2.2761955984
 20
-1.5960368409
 30
0.0
 40
0.0600000000000006
100
AcDbArc
 50
59.6611694951
 51
144.9623933308
  0
ARC
  5
175
330
1F
100
AcDbEntity
  8
0
  6
Continuous
 62
     7
370
    25
100
AcDbCircle
 10
0.0
 20
0.0
 30
0.0
 40
2.720000000001821
100
AcDbArc
 50
323.0376066692
 51
324.9623933308
  0
ARC
  5
176
330
1F
100
AcDbEntity
  8
0
  6
Continuous
 62
     7
370
    25
100
AcDbCircle
 10
2.2213043603
 20
-1.6715881488
 30
0.0
 40
0.0600000000000013
100
AcDbArc
 50
143.0376066692
 51
228.3388305049
  0
ARC
  5
177
330
1F
100
AcDbEntity
  8
0
  6
Continuous
 62
     7
370
    25
100
AcDbCircle
 10
1.5745323455
 20
-2.3985004055
 30
0.0
 40
0.9129930462541623
100
AcDbArc
 50
22.687583976
 51
48.3388305049
  0
ARC
  5
178
330
1F
100
AcDbEntity
  8
0
  6
Continuous
 62
     7
370
    25
100
AcDbCircle
 10
2.3615222347
 20
-2.0694957683
 30
0.0
 40
0.0599999999999992
100
AcDbArc
 50
318.7706283551
 51
22.687583976
  0
ARC
  5
179
330
1F
100
AcDbEntity
  8
0
  6
Continuous
 62
     7
370
    25
100
AcDbCircle
 10
0.0
 20
0.0
 30
0.0
 40
3.200000000009587
100
AcDbArc
 50
317.229371645
 51
318.7706283551
  0
ARC
  5
17A
330
1F
100
AcDbEntity
  8
0
  6
Continuous
 62
     7
370
    25
100
AcDbCircle
 10
2.3050051441
 20
-2.1322643564
 30
0.0
 40
0.0600000000000023
100
AcDbArc
 50
253.312416024
 51
317.2293716449
  0
ARC
  5
17B
330
1F
100
AcDbEntity
  8
0
  6
Continuous
 62
     7
370
    25
100
AcDbCircle
 10
2.5499446158
 20
-1.3151953311
 30
0.0
 40
0.9129930462541708
100
AcDbArc
 50
227.6611694951
 51
253.312416024
  0
ARC
  5
17C
330
1F
100
AcDbEntity
  8
0
  6
Continuous
 62
     7
370
    25
100
AcDbCircle
 10
1.8946205452
 20
-2.0344072821
 30
0.0
 40
0.0599999999999999
100
AcDbArc
 50
47.6611694951
 51
132.9623933308
  0
ARC
  5
17D
330
1F
100
AcDbEntity
  8
0
  6
Continuous
 62
     7
370
    25
100
AcDbCircle
 10
0.0
 20
0.0
 30
0.0
 40
2.719999999999164
100
AcDbArc
 50
311.0376066692
 51
312.9623933308
  0
ARC
  5
17E
330
1F
100
AcDbEntity
  8
0
  6
Continuous
 62
     7
370
    25
100
AcDbCircle
 10
1.8252208121
 20
-2.0968950825
 30
0.0
 40
0.0599999999999991
100
AcDbArc
 50
131.0376066692
 51
216.3388305049
  0
ARC
  5
17F
330
1F
100
AcDbEntity
  8
0
  6
Continuous
 62
     7
370
    25
100
AcDbCircle
 10
1.0414487613
 20
-2.6734510992
 30
0.0
 40
0.9129930462541692
100
AcDbArc
 50
10.687583976
 51
36.3388305049
  0
ARC
  5
180
330
1F
100
AcDbEntity
  8
0
  6
Continuous
 62
     7
370
    25
100
AcDbCircle
 10
1.8796449436
 20
-2.5152604012
 30
0.0
 40
0.059999999999995
100
AcDbArc
 50
306.7706283551
 51
10.687583976
  0
ARC
  5
181
330
1F
100
AcDbEntity
  8
0
  6
Continuous
 62
     7
370
    25
100
AcDbCircle
 10
0.0
 20
0.0
 30
0.0
 40
3.200000000000976
100
AcDbArc
 50
305.229371645
 51
306.7706283551
  0
ARC
  5
182
330
1F
100
AcDbEntity
  8
0
  6
Continuous
 62
     7
370
    25
100
AcDbCircle
 10
1.8113125638
 20
-2.5649067812
 30
0.0
 40
0.0600000000000014
100
AcDbArc
 50
241.312416024
 51
305.2293716449
  0
ARC
  5
183
330
1F
100
AcDbEntity
  8
0
  6
Continuous
 62
     7
370
    25
100
AcDbCircle
 10
2.2207777229
 20
-1.8166184541
 30
0.0
 40
0.9129930462541632
100
AcDbArc
 50
215.6611694951
 51
241.312416024
  0
ARC
  5
184
330
1F
100
AcDbEntity
  8
0
  6
Continuous
 62
     7
370
    25
100
AcDbCircle
 10
1.4302414828
 20
-2.383864363
 30
0.0
 40
0.06
100
AcDbArc
 50
35.6611694951
 51
120.9623933308
  0
ARC
  5
185
330
1F
100
AcDbEntity
  8
0
  6
Continuous
 62
     7
370
    25
100
AcDbCircle
 10
0.0
 20
0.0
 30
0.0
 40
2.71999999999933
100
AcDbArc
 50
299.0376066692
 51
300.9623933308
  0
ARC
  5
186
330
1F
100
AcDbEntity
  8
0
  6
Continuous
 62
     7
370
    25
100
AcDbCircle
 10
1.3493663561
 20
-2.4305576391
 30
0.0
 40
0.06
100
AcDbArc
 50
119.0376066692
 51
204.3388305049
  0
ARC
  5
187
330
1F
100
AcDbEntity
  8
0
  6
Continuous
 62
     7
370
    25
100
AcDbCircle
 10
0.4628488688
 20
-2.8315591513
 30
0.0
 40
0.9129930462541611
100
AcDbArc
 50
358.687583976
 51
24.3388305049
  0
ARC
  5
188
330
1F
100
AcDbEntity
  8
0
  6
Continuous
 62
     7
370
    25
100
AcDbCircle
 10
1.315618149
 20
-2.851096085
 30
0.0
 40
0.0599999999999972
100
AcDbArc
 50
294.7706283551
 51
358.687583976
  0
ARC
  5
189
330
1F
100
AcDbEntity
  8
0
  6
Continuous
 62
     7
370
    25
100
AcDbCircle
 10
0.0
 20
0.0
 30
0.0
 40
3.200000000010501
100
AcDbArc
 50
293.229371645
 51
294.7706283551
  0
ARC
  5
18A
330
1F
100
AcDbEntity
  8
0
  6
Continuous
 62
     7
370
    25
100
AcDbCircle
 10
1.2384569328
 20
-2.8854504719
 30
0.0
 40
0.0600000000000062
100
AcDbArc
 50
229.312416024
 51
293.2293716449
  0
ARC
  5
18B
330
1F
100
AcDbEntity
  8
0
  6
Continuous
 62
     7
370
    25
100
AcDbCircle
 10
1.7945521871
 20
-2.2386466337
 30
0.0
 40
0.9129930462541608
100
AcDbArc
 50
203.6611694951
 51
229.312416024
  0
ARC
  5
18C
330
1F
100
AcDbEntity
  8
0
  6
Continuous
 62
     7
370
    25
100
AcDbCircle
 10
0.9033540044
 20
-2.6291351321
 30
0.0
 40
0.0600000000000008
100
AcDbArc
 50
23.6611694951
 51
108.9623933308
  0
ARC
  5
18D
330
1F
100
AcDbEntity
  8
0
  6
Continuous
 62
     7
370
    25
100
AcDbCircle
 10
0.0
 20
0.0
 30
0.0
 40
2.720000000000034
100
AcDbArc
 50
287.0376066692
 51
288.9623933308
  0
ARC
  5
18E
330
1F
100
AcDbEntity
  8
0
  6
Continuous
 62
     7
370
    25
100
AcDbCircle
 10
0.8145381154
 20
-2.6579931638
 30
0.0
 40
0.0599999999999998
100
AcDbArc
 50
107.0376066692
 51
192.3388305049
  0
ARC
  5
18F
330
1F
100
AcDbEntity
  8
0
  6
Continuous
 62
     7
370
    25
100
AcDbCircle
 10
-0.1359797403
 20
-2.8659144811
 30
0.0
 40
0.9129930462541613
100
AcDbArc
 50
346.687583976
 51
12.3388305049
  0
ARC
  5
190
330
1F
100
AcDbEntity
  8
0
  6
Continuous
 62
     7
370
    25
100
AcDbCircle
 10
0.6940925282
 20
-3.0623251889
 30
0.0
 40
0.059999999999998
100
AcDbArc
 50
282.7706283551
 51
346.687583976
  0
ARC
  5
191
330
1F
100
AcDbEntity
  8
0
  6
Continuous
 62
     7
370
    25
100
AcDbCircle
 10
0.0
 20
0.0
 30
0.0
 40
3.200000000007667
100
AcDbArc
 50
281.229371645
 51
282.7706283551
  0
ARC
  5
192
330
1F
100
AcDbEntity
  8
0
  6
Continuous
 62
     7
370
    25
100
AcDbCircle
 10
0.611474791
 20
-3.079886131
 30
0.0
 40
0.0600000000000045
100
AcDbArc
 50
217.312416024
 51
281.2293716449
  0
ARC
  5
193
330
1F
100
AcDbEntity
  8
0
  6
Continuous
 62
     7
370
    25
100
AcDbCircle
 10
1.2898961094
 20
-2.5628352131
 30
0.0
 40
0.9129930462541609
100
AcDbArc
 50
191.6611694951
 51
217.312416024
  0
ARC
  5
194
330
1F
100
AcDbEntity
  8
0
  6
Continuous
 62
     7
370
    25
100
AcDbCircle
 10
0.3369856214
 20
-2.7595000799
 30
0.0
 40
0.06
100
AcDbArc
 50
11.6611694951
 51
96.9623933308
  0
ARC
  5
195
330
1F
100
AcDbEntity
  8
0
  6
Continuous
 62
     7
370
    25
100
AcDbCircle
 10
0.0
 20
0.0
 30
0.0
 40
2.72000000000267
100
AcDbArc
 50
275.0376066692
 51
276.9623933308
  0
ARC
  5
196
330
1F
100
AcDbEntity
  8
0
  6
Continuous
 62
     7
370
    25
100
AcDbCircle
 10
0.2441106504
 20
-2.7692616327
 30
0.0
 40
0.0599999999999989
100
AcDbArc
 50
95.0376066692
 51
180.3388305049
  0
ARC
  5
197
330
1F
100
AcDbEntity
  8
0
  6
Continuous
 62
     7
370
    25
100
AcDbCircle
 10
-0.7288653822
 20
-2.7750155958
 30
0.0
 40
0.9129930462541659
100
AcDbArc
 50
334.687583976
 51
0.3388305049
  0
ARC
  5
198
330
1F
100
AcDbEntity
  8
0
  6
Continuous
 62
     7
370
    25
100
AcDbCircle
 10
0.0422317333
 20
-3.1397159873
 30
0.0
 40
0.0599999999999965
100
AcDbArc
 50
270.7706283551
 51
334.687583976
  0
ARC
  5
199
330
1F
100
AcDbEntity
  8
0
  6
Continuous
 62
     7
370
    25
100
AcDbCircle
 10
0.0
 20
0.0
 30
0.0
 40
3.200000000008188
100
AcDbArc
 50
269.229371645
 51
270.7706283551
  0
ARC
  5
19A
330
1F
100
AcDbEntity
  8
0
  6
Continuous
 62
     7
370
    25
100
AcDbCircle
 10
-0.0422317333
 20
-3.1397159873
 30
0.0
 40
0.0600000000000011
100
AcDbArc
 50
205.312416024
 51
269.2293716449
  0
ARC
  5
19B
330
1F
100
AcDbEntity
  8
0
  6
Continuous
 62
     7
370
    25
100
AcDbCircle
 10
0.7288653822
 20
-2.7750155958
 30
0.0
 40
0.9129930462541593
100
AcDbArc
 50
179.6611694951
 51
205.312416024
  0
ARC
  5
19C
330
1F
100
AcDbEntity
  8
0
  6
Continuous
 62
     7
370
    25
100
AcDbCircle
 10
-0.2441106504
 20
-2.7692616327
 30
0.0
 40
0.0599999999999997
100
AcDbArc
 50
359.6611694951
 51
84.9623933308
  0
ARC
  5
19D
330
1F
100
AcDbEntity
  8
0
  6
Continuous
 62
     7
370
    25
100
AcDbCircle
 10
0.0
 20
0.0
 30
0.0
 40
2.719999999999205
100
AcDbArc
 50
263.0376066692
 51
264.9623933308
  0
ARC
  5
19E
330
1F
100
AcDbEntity
  8
0
  6
Continuous
 62
     7
370
    25
100
AcDbCircle
 10
-0.3369856214
 20
-2.7595000799
 30
0.0
 40
0.0600000000000005
100
AcDbArc
 50
83.0376066692
 51
168.3388305049
  0
ARC
  5
19F
330
1F
100
AcDbEntity
  8
0
  6
Continuous
 62
     7
370
    25
100
AcDbCircle
 10
-1.2898961094
 20
-2.5628352131
 30
0.0
 40
0.9129930462541668
100
AcDbArc
 50
322.687583976
 51
348.3388305049
  0
ARC
  5
1A0
330
1F
100
AcDbEntity
  8
0
  6
Continuous
 62
     7
370
    25
100
AcDbCircle
 10
-0.611474791
 20
-3.079886131
 30
0.0
 40
0.0599999999999945
100
AcDbArc
 50
258.7706283551
 51
322.687583976
  0
ARC
  5
1A1
330
1F
100
AcDbEntity
  8
0
  6
Continuous
 62
     7
370
    25
100
AcDbCircle
 10
0.0
 20
0.0
 30
0.0
 40
3.200000000006289
100
AcDbArc
 50
257.229371645
 51
258.7706283551
  0
ARC
  5
1A2
330
1F
100
AcDbEntity
  8
0
  6
Continuous
 62
     7
370
    25
100
AcDbCircle
 10
-0.6940925282
 20
-3.0623251889
 30
0.0
 40
0.0600000000000035
100
AcDbArc
 50
193.312416024
 51
257.2293716449
  0
ARC
  5
1A3
330
1F
100
AcDbEntity
  8
0
  6
Continuous
 62
     7
370
    25
100
AcDbCircle
 10
0.1359797403
 20
-2.8659144811
 30
0.0
 40
0.9129930462541617
100
AcDbArc
 50
167.6611694951
 51
193.312416024
  0
ARC
  5
1A4
330
1F
100
AcDbEntity
  8
0
  6
Continuous
 62
     7
370
    25
100
AcDbCircle
 10
-0.8145381154
 20
-2.6579931638
 30
0.0
 40
0.0600000000000001
100
AcDbArc
 50
347.6611694951
 51
72.9623933308
  0
ARC
  5
1A5
330
1F
100
AcDbEntity
  8
0
  6
Continuous
 62
     7
370
    25
100
AcDbCircle
 10
0.0
 20
0.0
 30
0.0
 40
2.720000000000403
100
AcDbArc
 50
251.0376066692
 51
252.9623933308
  0
ARC
  5
1A6
330
1F
100
AcDbEntity
  8
0
  6
Continuous
 62
     7
370
    25
100
AcDbCircle
 10
-0.9033540044
 20
-2.6291351321
 30
0.0
 40
0.060000000000001
100
AcDbArc
 50
71.0376066692
 51
156.3388305049
  0
ARC
  5
1A7
330
1F
100
AcDbEntity
  8
0
  6
Continuous
 62
     7
370
    25
100
AcDbCircle
 10
-1.7945521871
 20
-2.2386466337
 30
0.0
 40
0.9129930462541551
100
AcDbArc
 50
310.687583976
 51
336.3388305049
  0
ARC
  5
1A8
330
1F
100
AcDbEntity
  8
0
  6
Continuous
 62
     7
370
    25
100
AcDbCircle
 10
-1.2384569328
 20
-2.8854504719
 30
0.0
 40
0.0599999999999973
100
AcDbArc
 50
246.7706283551
 51
310.687583976
  0
ARC
  5
1A9
330
1F
100
AcDbEntity
  8
0
  6
Continuous
 62
     7
370
    25
100
AcDbCircle
 10
0.0
 20
0.0
 30
0.0
 40
3.200000000009398
100
AcDbArc
 50
245.229371645
 51
246.7706283551
  0
ARC
  5
1AA
330
1F
100
AcDbEntity
  8
0
  6
Continuous
 62
     7
370
    25
100
AcDbCircle
 10
-1.315618149
 20
-2.851096085
 30
0.0
 40
0.0600000000000038
100
AcDbArc
 50
181.312416024
 51
245.2293716449
  0
ARC
  5
1AB
330
1F
100
AcDbEntity
  8
0
  6
Continuous
 62
     7
370
    25
100
AcDbCircle
 10
-0.4628488688
 20
-2.8315591513
 30
0.0
 40
0.9129930462541603
100
AcDbArc
 50
155.6611694951
 51
181.312416024
  0
ARC
  5
1AC
330
1F
100
AcDbEntity
  8
0
  6
Continuous
 62
     7
370
    25
100
AcDbCircle
 10
-1.3493663561
 20
-2.4305576391
 30
0.0
 40
0.0600000000000005
100
AcDbArc
 50
335.6611694951
 51
60.9623933308
  0
ARC
  5
1AD
330
1F
100
AcDbEntity
  8
0
  6
Continuous
 62
     7
370
    25
100
AcDbCircle
 10
0.0
 20
0.0
 30
0.0
 40
2.719999999999525
100
AcDbArc
 50
239.0376066692
 51
240.9623933308
  0
ARC
  5
1AE
330
1F
100
AcDbEntity
  8
0
  6
Continuous
 62
     7
370
    25
100
AcDbCircle
 10
-1.4302414828
 20
-2.383864363
 30
0.0
 40
0.0599999999999997
100
AcDbArc
 50
59.0376066692
 51
144.3388305049
  0
ARC
  5
1AF
330
1F
100
AcDbEntity
  8
0
  6
Continuous
 62
     7
370
    25
100
AcDbCircle
 10
-2.2207777229
 20
-1.8166184541
 30
0.0
 40
0.9129930462541637
100
AcDbArc
 50
298.687583976
 51
324.3388305049
  0
ARC
  5
1B0
330
1F
100
AcDbEntity
  8
0
  6
Continuous
 62
     7
370
    25
100
AcDbCircle
 10
-1.8113125638
 20
-2.5649067812
 30
0.0
 40
0.0599999999999978
100
AcDbArc
 50
234.7706283551
 51
298.687583976
  0
ARC
  5
1B1
330
1F
100
AcDbEntity
  8
0
  6
Continuous
 62
     7
370
    25
100
AcDbCircle
 10
0.0
 20
0.0
 30
0.0
 40
3.200000000004665
100
AcDbArc
 50
233.229371645
 51
234.7706283551
  0
ARC
  5
1B2
330
1F
100
AcDbEntity
  8
0
  6
Continuous
 62
     7
370
    25
100
AcDbCircle
 10
-1.8796449436
 20
-2.5152604012
 30
0.0
 40
0.060000000000001
100
AcDbArc
 50
169.312416024
 51
233.2293716449
  0
ARC
  5
1B3
330
1F
100
AcDbEntity
  8
0
  6
Continuous
 62
     7
370
    25
100
AcDbCircle
 10
-1.0414487613
 20
-2.6734510992
 30
0.0
 40
0.9129930462541709
100
AcDbArc
 50
143.6611694951
 51
169.312416024
  0
ARC
  5
1B4
330
1F
100
AcDbEntity
  8
0
  6
Continuous
 62
     7
370
    25
100
AcDbCircle
 10
-1.8252208121
 20
-2.0968950825
 30
0.0
 40
0.0600000000000002
100
AcDbArc
 50
323.6611694951
 51
48.9623933308
  0
ARC
  5
1B5
330
1F
100
AcDbEntity
  8
0
  6
Continuous
 62
     7
370
    25
100
AcDbCircle
 10
0.0
 20
0.0
 30
0.0
 40
2.720000000000557
100
AcDbArc
 50
227.0376066692
 51
228.9623933308
  0
ARC
  5
1B6
330
1F
100
AcDbEntity
  8
0
  6
Continuous
 62
     7
370
    25
100
AcDbCircle
 10
-1.8946205452
 20
-2.0344072821
 30
0.0
 40
0.0600000000000008
100
AcDbArc
 50
47.0376066692
 51
132.3388305049
  0
ARC
  5
1B7
330
1F
100
AcDbEntity
  8
0
  6
Continuous
 62
     7
370
    25
100
AcDbCircle
 10
-2.5499446158
 20
-1.3151953311
 30
0.0
 40
0.9129930462541752
100
AcDbArc
 50
286.687583976
 51
312.3388305049
  0
ARC
  5
1B8
330
1F
100
AcDbEntity
  8
0
  6
Continuous
 62
     7
370
    25
100
AcDbCircle
 10
-2.3050051441
 20
-2.1322643564
 30
0.0
 40
0.0599999999999958
100
AcDbArc
 50
222.7706283551
 51
286.687583976
  0
ARC
  5
1B9
330
1F
100
AcDbEntity
  8
0
  6
Continuous
 62
     7
370
    25
100
AcDbCircle
 10
0.0
 20
0.0
 30
0.0
 40
3.200000000006064
100
AcDbArc
 50
221.229371645
 51
222.7706283551
  0
ARC
  5
1BA
330
1F
100
AcDbEntity
  8
0
  6
Continuous
 62
     7
370
    25
100
AcDbCircle
 10
-2.3615222347
 20
-2.0694957683
 30
0.0
 40
0.0600000000000009
100
AcDbArc
 50
157.312416024
 51
221.2293716449
  0
ARC
  5
1BB
330
1F
100
AcDbEntity
  8
0
  6
Continuous
 62
     7
370
    25
100
AcDbCircle
 10
-1.5745323455
 20
-2.3985004055
 30
0.0
 40
0.91299304625417
100
AcDbArc
 50
131.6611694951
 51
157.312416024
  0
ARC
  5
1BC
330
1F
100
AcDbEntity
  8
0
  6
Continuous
 62
     7
370
    25
100
AcDbCircle
 10
-2.2213043603
 20
-1.6715881488
 30
0.0
 40
0.0600000000000005
100
AcDbArc
 50
311.6611694951
 51
36.9623933308
  0
ARC
  5
1BD
330
1F
100
AcDbEntity
  8
0
  6
Continuous
 62
     7
370
    25
100
AcDbCircle
 10
0.0
 20
0.0
 30
0.0
 40
2.720000000000581
100
AcDbArc
 50
215.0376066692
 51
216.9623933308
  0
ARC
  5
1BE
330
1F
100
AcDbEntity
  8
0
  6
Continuous
 62
     7
370
    25
100
AcDbCircle
 10
-2.2761955984
 20
-1.5960368409
 30
0.0
 40
0.0599999999999999
100
AcDbArc
 50
35.0376066692
 51
120.3388305049
  0
ARC
  5
1BF
330
1F
100
AcDbEntity
  8
0
  6
Continuous
 62
     7
370
    25
100
AcDbCircle
 10
-2.767666693
 20
-0.756291861
 30
0.0
 40
0.9129930462541528
100
AcDbArc
 50
274.687583976
 51
300.3388305049
  0
ARC
  5
1C0
330
1F
100
AcDbEntity
  8
0
  6
Continuous
 62
     7
370
    25
100
AcDbCircle
 10
-2.697957939
 20
-1.6064317475
 30
0.0
 40
0.0599999999999965
100
AcDbArc
 50
210.7706283551
 51
274.687583976
  0
ARC
  5
1C1
330
1F
100
AcDbEntity
  8
0
  6
Continuous
 62
     7
370
    25
100
AcDbCircle
 10
0.0
 20
0.0
 30
0.0
 40
3.200000000007007
100
AcDbArc
 50
209.229371645
 51
210.7706283551
  0
ARC
  5
1C2
330
1F
100
AcDbEntity
  8
0
  6
Continuous
 62
     7
370
    25
100
AcDbCircle
 10
-2.7401896723
 20
-1.5332842398
 30
0.0
 40
0.0600000000000016
100
AcDbArc
 50
145.312416024
 51
209.2293716449
  0
ARC
  5
1C3
330
1F
100
AcDbEntity
  8
0
  6
Continuous
 62
     7
370
    25
100
AcDbCircle
 10
-2.0388013108
 20
-2.0187237348
 30
0.0
 40
0.912993046254167
100
AcDbArc
 50
119.6611694951
 51
145.312416024
  0
ARC
  5
1C4
330
1F
100
AcDbEntity
  8
0
  6
Continuous
 62
     7
370
    25
100
AcDbCircle
 10
-2.5203062488
 20
-1.1732247918
 30
0.0
 40
0.0599999999999998
100
AcDbArc
 50
299.6611694951
 51
24.9623933308
  0
ARC
  5
1C5
330
1F
100
AcDbEntity
  8
0
  6
Continuous
 62
     7
370
    25
100
AcDbCircle
 10
0.0
 20
0.0
 30
0.0
 40
2.71999999999916
100
AcDbArc
 50
203.0376066692
 51
204.9623933308
  0
ARC
  5
1C6
330
1F
100
AcDbEntity
  8
0
  6
Continuous
 62
     7
370
    25
100
AcDbCircle
 10
-2.5582899816
 20
-1.0879119311
 30
0.0
 40
0.0599999999999994
100
AcDbArc
 50
23.0376066692
 51
108.3388305049
  0
ARC
  5
1C7
330
1F
100
AcDbEntity
  8
0
  6
Continuous
 62
     7
370
    25
100
AcDbCircle
 10
-2.864428455
 20
-0.1643348076
 30
0.0
 40
0.9129930462541614
100
AcDbArc
 50
262.687583976
 51
288.3388305049
  0
ARC
  5
1C8
330
1F
100
AcDbEntity
  8
0
  6
Continuous
 62
     7
370
    25
100
AcDbCircle
 10
-2.9729970257
 20
-1.0103903627
 30
0.0
 40
0.0600000000000001
100
AcDbArc
 50
198.7706283551
 51
262.687583976
  0
ARC
  5
1C9
330
1F
100
AcDbEntity
  8
0
  6
Continuous
 62
     7
370
    25
100
AcDbCircle
 10
0.0
 20
0.0
 30
0.0
 40
3.200000000011644
100
AcDbArc
 50
197.229371645
 51
198.7706283551
  0
ARC
  5
1CA
330
1F
100
AcDbEntity
  8
0
  6
Continuous
 62
     7
370
    25
100
AcDbCircle
 10
-2.9990976723
 20
-0.9300608324
 30
0.0
 40
0.0600000000000029
100
AcDbArc
 50
133.312416024
 51
197.2293716449
  0
ARC
  5
1CB
330
1F
100
AcDbEntity
  8
0
  6
Continuous
 62
     7
370
    25
100
AcDbCircle
 10
-2.4139648755
 20
-1.55071915
 30
0.0
 40
0.912993046254167
100
AcDbArc
 50
107.6611694951
 51
133.312416024
  0
ARC
  5
1CC
330
1F
100
AcDbEntity
  8
0
  6
Continuous
 62
     7
370
    25
100
AcDbCircle
 10
-2.7091586606
 20
-0.6235858816
 30
0.0
 40
0.0599999999999998
100
AcDbArc
 50
287.6611694951
 51
12.9623933308
  0
ARC
  5
1CD
330
1F
100
AcDbEntity
  8
0
  6
Continuous
 62
     7
370
    25
100
AcDbCircle
 10
0.0
 20
0.0
 30
0.0
 40
2.719999999999901
100
AcDbArc
 50
191.0376066692
 51
192.9623933308
  0
ARC
  5
1CE
330
1F
100
AcDbEntity
  8
0
  6
Continuous
 62
     7
370
    25
100
AcDbCircle
 10
-2.7285748166
 20
-0.5322400496
 30
0.0
 40
0.0600000000000009
100
AcDbArc
 50
11.0376066692
 51
96.3388305049
  0
ARC
  5
1CF
330
1F
100
AcDbEntity
  8
0
  6
Continuous
 62
     7
370
    25
100
AcDbCircle
 10
-2.8360009484
 20
0.4348044656
 30
0.0
 40
0.9129930462541658
100
AcDbArc
 50
250.687583976
 51
276.3388305049
  0
ARC
  5
1D0
330
1F
100
AcDbEntity
  8
0
  6
Continuous
 62
     7
370
    25
100
AcDbCircle
 10
-3.1181018764
 20
-0.3701900707
 30
0.0
 40
0.059999999999995
100
AcDbArc
 50
186.7706283551
 51
250.687583976
  0
ARC
  5
1D1
330
1F
100
AcDbEntity
  8
0
  6
Continuous
 62
     7
370
    25
100
AcDbCircle
 10
0.0
 20
0.0
 30
0.0
 40
3.200000000007384
100
AcDbArc
 50
185.229371645
 51
186.7706283551
  0
ARC
  5
1D2
330
1F
100
AcDbEntity
  8
0
  6
Continuous
 62
     7
370
    25
100
AcDbCircle
 10
-3.1269307128
 20
-0.2861893038
 30
0.0
 40
0.0600000000000054
100
AcDbArc
 50
121.312416024
 51
185.2293716449
  0
ARC
  5
1D3
330
1F
100
AcDbEntity
  8
0
  6
Continuous
 62
     7
370
    25
100
AcDbCircle
 10
-2.6836265917
 20
-1.0149406971
 30
0.0
 40
0.9129930462541627
100
AcDbArc
 50
95.6611694951
 51
121.312416024
  0
ARC
  5
1D4
330
1F
100
AcDbEntity
  8
0
  6
Continuous
 62
     7
370
    25
100
AcDbCircle
 10
-2.7796078389
 20
-0.0466932761
 30
0.0
 40
0.0599999999999998
100
AcDbArc
 50
275.6611694951
 51
0.9623933308
  0
ARC
  5
1D5
330
1F
100
AcDbEntity
  8
0
  6
Continuous
 62
     7
370
    25
100
AcDbCircle
 10
0.0
 20
0.0
 30
0.0
 40
2.720000000000011
100
AcDbArc
 50
179.0376066692
 51
180.9623933308
  0
ARC
  5
1D6
330
1F
100
AcDbEntity
  8
0
  6
Continuous
 62
     7
370
    25
100
AcDbCircle
 10
-2.7796078389
 20
0.0466932761
 30
0.0
 40
0.0600000000000011
100
AcDbArc
 50
359.0376066692
 51
84.3388305049
  0
ARC
  5
1D7
330
1F
100
AcDbEntity
  8
0
  6
Continuous
 62
     7
370
    25
100
AcDbCircle
 10
-2.6836265917
 20
1.0149406971
 30
0.0
 40
0.9129930462541643
100
AcDbArc
 50
238.687583976
 51
264.3388305049
  0
ARC
  5
1D8
330
1F
100
AcDbEntity
  8
0
  6
Continuous
 62
     7
370
    25
100
AcDbCircle
 10
0.0
 20
0.0
 30
0.0
 40
3.200000000010176
100
AcDbArc
 50
173.229371645
 51
174.7706283551
  0
ARC
  5
1D9
330
1F
100
AcDbEntity
  8
0
  6
Continuous
 62
     7
370
    25
100
AcDbCircle
 10
-3.1181018764
 20
0.3701900707
 30
0.0
 40
0.0600000000000036
100
AcDbArc
 50
109.312416024
 51
173.2293716449
  0
ARC
  5
1DA
330
1F
100
AcDbEntity
  8
0
  6
Continuous
 62
     7
370
    25
100
AcDbCircle
 10
-2.8360009484
 20
-0.4348044656
 30
0.0
 40
0.912993046254157
100
AcDbArc
 50
83.6611694951
 51
109.312416024
  0
ARC
  5
1DB
330
1F
100
AcDbEntity
  8
0
  6
Continuous
 62
     7
370
    25
100
AcDbCircle
 10
-2.7285748166
 20
0.5322400496
 30
0.0
 40
0.0599999999999996
100
AcDbArc
 50
263.6611694951
 51
348.9623933308
  0
ARC
  5
1DC
330
1F
100
AcDbEntity
  8
0
  6
Continuous
 62
     7
370
    25
100
AcDbCircle
 10
0.0
 20
0.0
 30
0.0
 40
2.719999999998438
100
AcDbArc
 50
167.0376066692
 51
168.9623933308
  0
ARC
  5
1DD
330
1F
100
AcDbEntity
  8
0
  6
Continuous
 62
     7
370
    25
100
AcDbCircle
 10
-2.7091586606
 20
0.6235858816
 30
0.0
 40
0.0599999999999986
100
AcDbArc
 50
347.0376066692
 51
72.3388305049
  0
ARC
  5
1DE
330
1F
100
AcDbEntity
  8
0
  6
Continuous
 62
     7
370
    25
100
AcDbCircle
 10
-2.4139648755
 20
1.55071915
 30
0.0
 40
0.9129930462541704
100
AcDbArc
 50
226.687583976
 51
252.3388305049
  0
ARC
  5
1DF
330
1F
100
AcDbEntity
  8
0
  6
Continuous
 62
     7
370
    25
100
AcDbCircle
 10
-2.9990976723
 20
0.9300608324
 30
0.0
 40
0.0599999999999993
100
AcDbArc
 50
162.7706283551
 51
226.687583976
  0
ARC
  5
1E0
330
1F
100
AcDbEntity
  8
0
  6
Continuous
 62
     7
370
    25
100
AcDbCircle
 10
0.0
 20
0.0
 30
0.0
 40
3.20000000000831
100
AcDbArc
 50
161.229371645
 51
162.7706283551
  0
ARC
  5
1E1
330
1F
100
AcDbEntity
  8
0
  6
Continuous
 62
     7
370
    25
100
AcDbCircle
 10
-2.9729970257
 20
1.0103903627
 30
0.0
 40
0.0600000000000006
100
AcDbArc
 50
97.312416024
 51
161.2293716449
  0
ARC
  5
1E2
330
1F
100
AcDbEntity
  8
0
  6
Continuous
 62
     7
370
    25
100
AcDbCircle
 10
-2.864428455
 20
0.1643348076
 30
0.0
 40
0.9129930462541657
100
AcDbArc
 50
71.6611694951
 51
97.312416024
  0
ARC
  5
1E3
330
1F
100
AcDbEntity
  8
0
  6
Continuous
 62
     7
370
    25
100
AcDbCircle
 10
-2.5582899816
 20
1.0879119311
 30
0.0
 40
0.0600000000000001
100
AcDbArc
 50
251.6611694951
 51
336.9623933308
  0
ARC
  5
1E4
330
1F
100
AcDbEntity
  8
0
  6
Continuous
 62
     7
370
    25
100
AcDbCircle
 10
0.0
 20
0.0
 30
0.0
 40
2.719999999999363
100
AcDbArc
 50
155.0376066692
 51
156.9623933308
  0
ARC
  5
1E5
330
1F
100
AcDbEntity
  8
0
  6
Continuous
 62
     7
370
    25
100
AcDbCircle
 10
-2.5203062488
 20
1.1732247918
 30
0.0
 40
0.0599999999999993
100
AcDbArc
 50
335.0376066692
 51
60.3388305049
  0
ARC
  5
1E6
330
1F
100
AcDbEntity
  8
0
  6
Continuous
 62
     7
370
    25
100
AcDbCircle
 10
-2.0388013108
 20
2.0187237348
 30
0.0
 40
0.9129930462541646
100
AcDbArc
 50
214.687583976
 51
240.3388305049
  0
ARC
  5
1E7
330
1F
100
AcDbEntity
  8
0
  6
Continuous
 62
     7
370
    25
100
AcDbCircle
 10
-2.7401896723
 20
1.5332842398
 30
0.0
 40
0.0599999999999958
100
AcDbArc
 50
150.7706283551
 51
214.687583976
  0
ARC
  5
1E8
330
1F
100
AcDbEntity
  8
0
  6
Continuous
 62
     7
370
    25
100
AcDbCircle
 10
0.0
 20
0.0
 30
0.0
 40
3.200000000004287
100
AcDbArc
 50
149.2293716449
 51
150.7706283551
  0
ARC
  5
1E9
330
1F
100
AcDbEntity
  8
0
  6
Continuous
 62
     7
370
    25
100
AcDbCircle
 10
-2.697957939
 20
1.6064317475
 30
0.0
 40
0.0600000000000014
100
AcDbArc
 50
85.312416024
 51
149.2293716449
  0
ARC
  5
1EA
330
1F
100
AcDbEntity
  8
0
  6
Continuous
 62
     7
370
    25
100
AcDbCircle
 10
-2.767666693
 20
0.756291861
 30
0.0
 40
0.9129930462541688
100
AcDbArc
 50
59.6611694951
 51
85.312416024
  0
ARC
  5
1EB
330
1F
100
AcDbEntity
  8
0
  6
Continuous
 62
     7
370
    25
100
AcDbCircle
 10
-2.2761955984
 20
1.5960368409
 30
0.0
 40
0.0600000000000004
100
AcDbArc
 50
239.6611694951
 51
324.9623933308
  0
ARC
  5
1EC
330
1F
100
AcDbEntity
  8
0
  6
Continuous
 62
     7
370
    25
100
AcDbCircle
 10
0.0
 20
0.0
 30
0.0
 40
2.719999999999716
100
AcDbArc
 50
143.0376066692
 51
144.9623933308
  0
ARC
  5
1ED
330
1F
100
AcDbEntity
  8
0
  6
Continuous
 62
     7
370
    25
100
AcDbCircle
 10
-2.2213043603
 20
1.6715881488
 30
0.0
 40
0.0600000000000011
100
AcDbArc
 50
323.0376066692
 51
48.3388305049
  0
ARC
  5
1EE
330
1F
100
AcDbEntity
  8
0
  6
Continuous
 62
     7
370
    25
100
AcDbCircle
 10
-1.5745323455
 20
2.3985004055
 30
0.0
 40
0.9129930462541875
100
AcDbArc
 50
202.687583976
 51
228.3388305049
  0
ARC
  5
1EF
330
1F
100
AcDbEntity
  8
0
  6
Continuous
 62
     7
370
    25
100
AcDbCircle
 10
-2.3615222347
 20
2.0694957683
 30
0.0
 40
0.0599999999999954
100
AcDbArc
 50
138.7706283551
 51
202.687583976
  0
ARC
  5
1F0
330
1F
100
AcDbEntity
  8
0
  6
Continuous
 62
     7
370
    25
100
AcDbCircle
 10
0.0
 20
0.0
 30
0.0
 40
3.200000000006657
100
AcDbArc
 50
137.229371645
 51
138.7706283551
  0
ARC
  5
1F1
330
1F
100
AcDbEntity
  8
0
  6
Continuous
 62
     7
370
    25
100
AcDbCircle
 10
-2.3050051441
 20
2.1322643564
 30
0.0
 40
0.0600000000000045
100
AcDbArc
 50
73.312416024
 51
137.2293716449
  0
ARC
  5
1F2
330
1F
100
AcDbEntity
  8
0
  6
Continuous
 62
     7
370
    25
100
AcDbCircle
 10
-2.5499446158
 20
1.3151953311
 30
0.0
 40
0.9129930462541671
100
AcDbArc
 50
47.6611694951
 51
73.312416024
  0
ARC
  5
1F3
330
1F
100
AcDbEntity
  8
0
  6
Continuous
 62
     7
370
    25
100
AcDbCircle
 10
-1.8946205452
 20
2.0344072821
 30
0.0
 40
0.0600000000000003
100
AcDbArc
 50
227.6611694951
 51
312.9623933308
  0
ARC
  5
1F4
330
1F
100
AcDbEntity
  8
0
  6
Continuous
 62
     7
370
    25
100
AcDbCircle
 10
0.0
 20
0.0
 30
0.0
 40
2.719999999999454
100
AcDbArc
 50
131.0376066692
 51
132.9623933308
  0
ARC
  5
1F5
330
1F
100
AcDbEntity
  8
0
  6
Continuous
 62
     7
370
    25
100
AcDbCircle
 10
-1.8252208121
 20
2.0968950825
 30
0.0
 40
0.0600000000000008
100
AcDbArc
 50
311.0376066692
 51
36.3388305049
  0
ARC
  5
1F6
330
1F
100
AcDbEntity
  8
0
  6
Continuous
 62
     7
370
    25
100
AcDbCircle
 10
-1.0414487613
 20
2.6734510992
 30
0.0
 40
0.9129930462541557
100
AcDbArc
 50
190.687583976
 51
216.3388305049
  0
ARC
  5
1F7
330
1F
100
AcDbEntity
  8
0
  6
Continuous
 62
     7
370
    25
100
AcDbCircle
 10
-1.8796449436
 20
2.5152604012
 30
0.0
 40
0.0599999999999954
100
AcDbArc
 50
126.7706283551
 51
190.687583976
  0
ARC
  5
1F8
330
1F
100
AcDbEntity
  8
0
  6
Continuous
 62
     7
370
    25
100
AcDbCircle
 10
0.0
 20
0.0
 30
0.0
 40
3.200000000009901
100
AcDbArc
 50
125.229371645
 51
126.7706283551
  0
ARC
  5
1F9
330
1F
100
AcDbEntity
  8
0
  6
Continuous
 62
     7
370
    25
100
AcDbCircle
 10
-1.8113125638
 20
2.5649067812
 30
0.0
 40
0.0600000000000019
100
AcDbArc
 50
61.312416024
 51
125.2293716449
  0
ARC
  5
1FA
330
1F
100
AcDbEntity
  8
0
  6
Continuous
 62
     7
370
    25
100
AcDbCircle
 10
-2.2207777229
 20
1.8166184541
 30
0.0
 40
0.9129930462541508
100
AcDbArc
 50
35.6611694951
 51
61.312416024
  0
ARC
  5
1FB
330
1F
100
AcDbEntity
  8
0
  6
Continuous
 62
     7
370
    25
100
AcDbCircle
 10
-1.4302414828
 20
2.383864363
 30
0.0
 40
0.0599999999999996
100
AcDbArc
 50
215.6611694951
 51
300.9623933308
  0
ARC
  5
1FC
330
1F
100
AcDbEntity
  8
0
  6
Continuous
 62
     7
370
    25
100
AcDbCircle
 10
0.0
 20
0.0
 30
0.0
 40
2.72000000000129
100
AcDbArc
 50
119.0376066692
 51
120.9623933308
  0
ARC
  5
1FD
330
1F
100
AcDbEntity
  8
0
  6
Continuous
 62
     7
370
    25
100
AcDbCircle
 10
-1.3493663561
 20
2.4305576391
 30
0.0
 40
0.0599999999999992
100
AcDbArc
 50
299.0376066692
 51
24.3388305049
  0
ARC
  5
1FE
330
1F
100
AcDbEntity
  8
0
  6
Continuous
 62
     7
370
    25
100
AcDbCircle
 10
-0.4628488688
 20
2.8315591513
 30
0.0
 40
0.9129930462541666
100
AcDbArc
 50
178.687583976
 51
204.3388305049
  0
ARC
  5
1FF
330
1F
100
AcDbEntity
  8
0
  6
Continuous
 62
     7
370
    25
100
AcDbCircle
 10
-1.315618149
 20
2.851096085
 30
0.0
 40
0.0599999999999983
100
AcDbArc
 50
114.7706283551
 51
178.687583976
  0
ARC
  5
200
330
1F
100
AcDbEntity
  8
0
  6
Continuous
 62
     7
370
    25
100
AcDbCircle
 10
0.0
 20
0.0
 30
0.0
 40
3.200000000011157
100
AcDbArc
 50
113.229371645
 51
114.7706283551
  0
ARC
  5
201
330
1F
100
AcDbEntity
  8
0
  6
Continuous
 62
     7
370
    25
100
AcDbCircle
 10
-1.2384569328
 20
2.8854504719
 30
0.0
 40
0.0600000000000036
100
AcDbArc
 50
49.312416024
 51
113.2293716449
  0
ARC
  5
202
330
1F
100
AcDbEntity
  8
0
  6
Continuous
 62
     7
370
    25
100
AcDbCircle
 10
-1.7945521871
 20
2.2386466337
 30
0.0
 40
0.9129930462541739
100
AcDbArc
 50
23.6611694951
 51
49.312416024
  0
ARC
  5
203
330
1F
100
AcDbEntity
  8
0
  6
Continuous
 62
     7
370
    25
100
AcDbCircle
 10
-0.9033540044
 20
2.6291351321
 30
0.0
 40
0.0600000000000008
100
AcDbArc
 50
203.6611694951
 51
288.9623933308
  0
ARC
  5
204
330
1F
100
AcDbEntity
  8
0
  6
Continuous
 62
     7
370
    25
100
AcDbCircle
 10
0.0
 20
0.0
 30
0.0
 40
2.720000000000091
100
AcDbArc
 50
107.0376066692
 51
108.9623933308
  0
ARC
  5
205
330
1F
100
AcDbEntity
  8
0
  6
Continuous
 62
     7
370
    25
100
AcDbCircle
 10
-0.8145381154
 20
2.6579931638
 30
0.0
 40
0.0600000000000008
100
AcDbArc
 50
287.0376066692
 51
12.3388305049
  0
ARC
  5
206
330
1F
100
AcDbEntity
  8
0
  6
Continuous
 62
     7
370
    25
100
AcDbCircle
 10
0.1359797403
 20
2.8659144811
 30
0.0
 40
0.9129930462541626
100
AcDbArc
 50
166.687583976
 51
192.3388305049
  0
ARC
  5
207
330
1F
100
AcDbEntity
  8
0
  6
Continuous
 62
     7
370
    25
100
AcDbCircle
 10
-0.6940925282
 20
3.0623251889
 30
0.0
 40
0.0599999999999969
100
AcDbArc
 50
102.7706283551
 51
166.687583976
  0
ARC
  5
208
330
1F
100
AcDbEntity
  8
0
  6
Continuous
 62
     7
370
    25
100
AcDbCircle
 10
0.0
 20
0.0
 30
0.0
 40
3.2000000000064
100
AcDbArc
 50
101.2293716449
 51
102.7706283551
  0
ARC
  5
209
330
1F
100
AcDbEntity
  8
0
  6
Continuous
 62
     7
370
    25
100
AcDbCircle
 10
-0.611474791
 20
3.079886131
 30
0.0
 40
0.0600000000000015
100
AcDbArc
 50
37.312416024
 51
101.2293716449
  0
ARC
  5
20A
330
1F
100
AcDbEntity
  8
0
  6
Continuous
 62
     7
370
    25
100
AcDbCircle
 10
-1.2898961094
 20
2.5628352131
 30
0.0
 40
0.9129930462541611
100
AcDbArc
 50
11.6611694951
 51
37.312416024
  0
ARC
  5
20B
330
1F
100
AcDbEntity
  8
0
  6
Continuous
 62
     7
370
    25
100
AcDbCircle
 10
-0.3369856214
 20
2.7595000799
 30
0.0
 40
0.0600000000000001
100
AcDbArc
 50
191.6611694951
 51
276.9623933308
  0
ARC
  5
20C
330
1F
100
AcDbEntity
  8
0
  6
Continuous
 62
     7
370
    25
100
AcDbCircle
 10
0.0
 20
0.0
 30
0.0
 40
2.720000000000709
100
AcDbArc
 50
95.0376066692
 51
96.9623933308
  0
ARC
  5
20D
330
1F
100
AcDbEntity
  8
0
  6
Continuous
 62
     7
370
    25
100
AcDbCircle
 10
-0.2441106504
 20
2.7692616327
 30
0.0
 40
0.059999999999999
100
AcDbArc
 50
275.0376066692
 51
0.3388305049
  0
ARC
  5
20E
330
1F
100
AcDbEntity
  8
0
  6
Continuous
 62
     7
370
    25
100
AcDbCircle
 10
0.7288653822
 20
2.7750155958
 30
0.0
 40
0.9129930462541644
100
AcDbArc
 50
154.687583976
 51
180.3388305049
  0
ARC
  5
20F
330
1F
100
AcDbEntity
  8
0
  6
Continuous
 62
     7
370
    25
100
AcDbCircle
 10
-0.0422317333
 20
3.1397159873
 30
0.0
 40
0.0599999999999934
100
AcDbArc
 50
90.770628355
 51
154.687583976
  0
ARC
  5
210
330
1F
100
AcDbEntity
  8
0
  6
Continuous
 62
     7
370
    25
100
AcDbCircle
 10
0.0
 20
0.0
 30
0.0
 40
3.20000000000797
100
AcDbArc
 50
89.229371645
 51
90.7706283551
  0
ARC
  5
211
330
1F
100
AcDbEntity
  8
0
  6
Continuous
 62
     7
370
    25
100
AcDbCircle
 10
0.0422317333
 20
3.1397159873
 30
0.0
 40
0.0600000000000043
100
AcDbArc
 50
25.312416024
 51
89.2293716449
  0
ARC
  5
212
330
1F
100
AcDbEntity
  8
0
  6
Continuous
 62
     7
370
    25
100
AcDbCircle
 10
-0.7288653822
 20
2.7750155958
 30
0.0
 40
0.9129930462541589
100
AcDbArc
 50
359.6611694951
 51
25.312416024
  0
ARC
  5
213
330
1F
100
AcDbEntity
  8
0
  6
Continuous
 62
     7
370
    25
100
AcDbCircle
 10
0.2441106504
 20
2.7692616327
 30
0.0
 40
0.0600000000000007
100
AcDbArc
 50
179.6611694951
 51
264.9623933308
  0
ARC
  5
214
330
1F
100
AcDbEntity
  8
0
  6
Continuous
 62
     7
370
    25
100
AcDbCircle
 10
0.0
 20
0.0
 30
0.0
 40
2.720000000000586
100
AcDbArc
 50
83.0376066692
 51
84.9623933308
  0
ARC
  5
215
330
1F
100
AcDbEntity
  8
0
  6
Continuous
 62
     7
370
    25
100
AcDbCircle
 10
0.3369856214
 20
2.7595000799
 30
0.0
 40
0.0600000000000006
100
AcDbArc
 50
263.0376066692
 51
348.3388305049
  0
ARC
  5
216
330
1F
100
AcDbEntity
  8
0
  6
Continuous
 62
     7
370
    25
100
AcDbCircle
 10
1.2898961094
 20
2.5628352131
 30
0.0
 40
0.9129930462541653
100
AcDbArc
 50
142.687583976
 51
168.3388305049
  0
ARC
  5
217
330
1F
100
AcDbEntity
  8
0
  6
Continuous
 62
     7
370
    25
100
AcDbCircle
 10
0.611474791
 20
3.079886131
 30
0.0
 40
0.0599999999999935
100
AcDbArc
 50
78.770628355
 51
142.687583976
  0
ARC
  5
218
330
1F
100
AcDbEntity
  8
0
  6
Continuous
 62
     7
370
    25
100
AcDbCircle
 10
0.0
 20
0.0
 30
0.0
 40
3.200000000005455
100
AcDbArc
 50
77.2293716449
 51
78.7706283551
  0
ARC
  5
219
330
1F
100
AcDbEntity
  8
0
  6
Continuous
 62
     7
370
    25
100
AcDbCircle
 10
0.6940925282
 20
3.0623251889
 30
0.0
 40
0.0600000000000034
100
AcDbArc
 50
13.312416024
 51
77.2293716449
  0
ARC
  5
21A
330
1F
100
AcDbEntity
  8
0
  6
Continuous
 62
     7
370
    25
100
AcDbCircle
 10
-0.1359797403
 20
2.8659144811
 30
0.0
 40
0.9129930462541613
100
AcDbArc
 50
347.6611694951
 51
13.312416024
  0
ARC
  5
21B
330
1F
100
AcDbEntity
  8
0
  6
Continuous
 62
     7
370
    25
100
AcDbCircle
 10
0.8145381154
 20
2.6579931638
 30
0.0
 40
0.0599999999999993
100
AcDbArc
 50
167.6611694951
 51
252.9623933308
  0
ARC
  5
21C
330
1F
100
AcDbEntity
  8
0
  6
Continuous
 62
     7
370
    25
100
AcDbCircle
 10
0.0
 20
0.0
 30
0.0
 40
2.719999999999883
100
AcDbArc
 50
71.0376066692
 51
72.9623933308
  0
ARC
  5
21D
330
1F
100
AcDbEntity
  8
0
  6
Continuous
 62
     7
370
    25
100
AcDbCircle
 10
0.9033540044
 20
2.6291351321
 30
0.0
 40
0.0599999999999991
100
AcDbArc
 50
251.0376066692
 51
336.3388305049
  0
ARC
  5
21E
330
1F
100
AcDbEntity
  8
0
  6
Continuous
 62
     7
370
    25
100
AcDbCircle
 10
1.7945521871
 20
2.2386466337
 30
0.0
 40
0.9129930462541574
100
AcDbArc
 50
130.687583976
 51
156.3388305049
  0
ARC
  5
21F
330
1F
100
AcDbEntity
  8
0
  6
Continuous
 62
     7
370
    25
100
AcDbCircle
 10
1.2384569328
 20
2.8854504719
 30
0.0
 40
0.0599999999999946
100
AcDbArc
 50
66.7706283551
 51
130.687583976
  0
ARC
  5
220
330
1F
100
AcDbEntity
  8
0
  6
Continuous
 62
     7
370
    25
100
AcDbCircle
 10
0.0
 20
0.0
 30
0.0
 40
3.200000000006848
100
AcDbArc
 50
65.229371645
 51
66.7706283551
  0
ARC
  5
221
330
1F
100
AcDbEntity
  8
0
  6
Continuous
 62
     7
370
    25
100
AcDbCircle
 10
1.315618149
 20
2.851096085
 30
0.0
 40
0.0600000000000025
100
AcDbArc
 50
1.312416024
 51
65.2293716449
  0
ARC
  5
222
330
1F
100
AcDbEntity
  8
0
  6
Continuous
 62
     7
370
    25
100
AcDbCircle
 10
0.4628488688
 20
2.8315591513
 30
0.0
 40
0.9129930462541662
100
AcDbArc
 50
335.6611694951
 51
1.312416024
  0
ARC
  5
223
330
1F
100
AcDbEntity
  8
0
  6
Continuous
 62
     7
370
    25
100
AcDbCircle
 10
1.3493663561
 20
2.4305576391
 30
0.0
 40
0.0599999999999992
100
AcDbArc
 50
155.6611694951
 51
240.9623933308
  0
ARC
  5
224
330
1F
100
AcDbEntity
  8
0
  6
Continuous
 62
     7
370
    25
100
AcDbCircle
 10
0.0
 20
0.0
 30
0.0
 40
2.719999999998964
100
AcDbArc
 50
59.0376066692
 51
60.9623933308
  0
ARC
  5
225
330
1F
100
AcDbEntity
  8
0
  6
Continuous
 62
     7
370
    25
100
AcDbCircle
 10
1.4302414828
 20
2.383864363
 30
0.0
 40
0.0600000000000004
100
AcDbArc
 50
239.0376066692
 51
324.3388305049
  0
ARC
  5
226
330
1F
100
AcDbEntity
  8
0
  6
Continuous
 62
     7
370
    25
100
AcDbCircle
 10
2.2207777229
 20
1.8166184541
 30
0.0
 40
0.9129930462541638
100
AcDbArc
 50
118.687583976
 51
144.3388305049
  0
ARC
  5
227
330
1F
100
AcDbEntity
  8
0
  6
Continuous
 62
     7
370
    25
100
AcDbCircle
 10
1.8113125638
 20
2.5649067812
 30
0.0
 40
0.0599999999999961
100
AcDbArc
 50
54.7706283551
 51
118.687583976
  0
ARC
  5
228
330
1F
100
AcDbEntity
  8
0
  6
Continuous
 62
     7
370
    25
100
AcDbCircle
 10
0.0
 20
0.0
 30
0.0
 40
3.200000000005008
100
AcDbArc
 50
53.2293716449
 51
54.7706283551
  0
ARC
  5
229
330
1F
100
AcDbEntity
  8
0
  6
Continuous
 62
     7
370
    25
100
AcDbCircle
 10
1.8796449436
 20
2.5152604012
 30
0.0
 40
0.0600000000000016
100
AcDbArc
 50
349.312416024
 51
53.2293716449
  0
ARC
  5
22A
330
1F
100
AcDbEntity
  8
0
  6
Continuous
 62
     7
370
    25
100
AcDbCircle
 10
1.0414487613
 20
2.6734510992
 30
0.0
 40
0.9129930462541558
100
AcDbArc
 50
323.6611694951
 51
349.312416024
  0
ARC
  5
22B
330
1F
100
AcDbEntity
  8
0
  6
Continuous
 62
     7
370
    25
100
AcDbCircle
 10
1.8252208121
 20
2.0968950825
 30
0.0
 40
0.0599999999999984
100
AcDbArc
 50
143.6611694951
 51
228.9623933308
  0
ARC
  5
22C
330
1F
100
AcDbEntity
  8
0
  6
Continuous
 62
     7
370
    25
100
AcDbCircle
 10
0.0
 20
0.0
 30
0.0
 40
2.720000000000188
100
AcDbArc
 50
47.0376066692
 51
48.9623933308
  0
ARC
  5
22D
330
1F
100
AcDbEntity
  8
0
  6
Continuous
 62
     7
370
    25
100
AcDbCircle
 10
1.8946205452
 20
2.0344072821
 30
0.0
 40
0.0600000000000009
100
AcDbArc
 50
227.0376066692
 51
312.3388305049
  0
ARC
  5
22E
330
1F
100
AcDbEntity
  8
0
  6
Continuous
 62
     7
370
    25
100
AcDbCircle
 10
2.5499446158
 20
1.3151953311
 30
0.0
 40
0.9129930462541536
100
AcDbArc
 50
106.687583976
 51
132.3388305049
  0
ARC
  5
22F
330
1F
100
AcDbEntity
  8
0
  6
Continuous
 62
     7
370
    25
100
AcDbCircle
 10
2.3050051441
 20
2.1322643564
 30
0.0
 40
0.059999999999996
100
AcDbArc
 50
42.7706283551
 51
106.687583976
  0
ARC
  5
230
330
1F
100
AcDbEntity
  8
0
  6
Continuous
 62
     7
370
    25
100
AcDbCircle
 10
0.0
 20
0.0
 30
0.0
 40
3.200000000008101
100
AcDbArc
 50
41.229371645
 51
42.7706283551
  0
ARC
  5
231
330
1F
100
AcDbEntity
  8
0
  6
Continuous
 62
     7
370
    25
100
AcDbCircle
 10
2.3615222347
 20
2.0694957683
 30
0.0
 40
0.0599999999999994
100
AcDbArc
 50
337.312416024
 51
41.2293716449
  0
ARC
  5
232
330
1F
100
AcDbEntity
  8
0
  6
Continuous
 62
     7
370
    25
100
AcDbCircle
 10
1.5745323455
 20
2.3985004055
 30
0.0
 40
0.9129930462541607
100
AcDbArc
 50
311.6611694951
 51
337.312416024
  0
ARC
  5
233
330
1F
100
AcDbEntity
  8
0
  6
Continuous
 62
     7
370
    25
100
AcDbCircle
 10
2.2213043603
 20
1.6715881488
 30
0.0
 40
0.0599999999999999
100
AcDbArc
 50
131.6611694951
 51
216.9623933308
  0
ARC
  5
234
330
1F
100
AcDbEntity
  8
0
  6
Continuous
 62
     7
370
    25
100
AcDbCircle
 10
0.0
 20
0.0
 30
0.0
 40
2.719999999998933
100
AcDbArc
 50
35.0376066692
 51
36.9623933308
  0
ARC
  5
235
330
1F
100
AcDbEntity
  8
0
  6
Continuous
 62
     7
370
    25
100
AcDbCircle
 10
2.2761955984
 20
1.5960368409
 30
0.0
 40
0.0599999999999993
100
AcDbArc
 50
215.0376066692
 51
300.3388305049
  0
ARC
  5
236
330
1F
100
AcDbEntity
  8
0
  6
Continuous
 62
     7
370
    25
100
AcDbCircle
 10
2.767666693
 20
0.756291861
 30
0.0
 40
0.9129930462541664
100
AcDbArc
 50
94.687583976
 51
120.3388305049
  0
ARC
  5
237
330
1F
100
AcDbEntity
  8
0
  6
Continuous
 62
     7
370
    25
100
AcDbCircle
 10
2.697957939
 20
1.6064317475
 30
0.0
 40
0.0599999999999975
100
AcDbArc
 50
30.7706283551
 51
94.687583976
  0
ARC
  5
238
330
1F
100
AcDbEntity
  8
0
  6
Continuous
 62
     7
370
    25
100
AcDbCircle
 10
0.0
 20
0.0
 30
0.0
 40
3.200000000008576
100
AcDbArc
 50
29.229371645
 51
30.7706283551
  0
ARC
  5
239
330
1F
100
AcDbEntity
  8
0
  6
Continuous
 62
     7
370
    25
100
AcDbCircle
 10
2.7401896723
 20
1.5332842398
 30
0.0
 40
0.0600000000000035
100
AcDbArc
 50
325.312416024
 51
29.2293716449
  0
ARC
  5
23A
330
1F
100
AcDbEntity
  8
0
  6
Continuous
 62
     7
370
    25
100
AcDbCircle
 10
2.0388013108
 20
2.0187237348
 30
0.0
 40
0.9129930462541603
100
AcDbArc
 50
299.6611694951
 51
325.312416024
  0
ARC
  5
23B
330
1F
100
AcDbEntity
  8
0
  6
Continuous
 62
     7
370
    25
100
AcDbCircle
 10
2.5203062488
 20
1.1732247918
 30
0.0
 40
0.060000000000002
100
AcDbArc
 50
119.6611694951
 51
204.9623933308
  0
ARC
  5
23C
330
1F
100
AcDbEntity
  8
0
  6
Continuous
 62
     7
370
    25
100
AcDbCircle
 10
0.0
 20
0.0
 30
0.0
 40
2.720000000000958
100
AcDbArc
 50
23.0376066692
 51
24.9623933308
  0
ARC
  5
23D
330
1F
100
AcDbEntity
  8
0
  6
Continuous
 62
     7
370
    25
100
AcDbCircle
 10
2.5582899816
 20
1.0879119311
 30
0.0
 40
0.06
100
AcDbArc
 50
203.0376066692
 51
288.3388305049
  0
ARC
  5
23E
330
1F
100
AcDbEntity
  8
0
  6
Continuous
 62
     7
370
    25
100
AcDbCircle
 10
2.864428455
 20
0.1643348076
 30
0.0
 40
0.9129930462541622
100
AcDbArc
 50
82.687583976
 51
108.3388305049
  0
ARC
  5
23F
330
1F
100
AcDbEntity
  8
0
  6
Continuous
 62
     7
370
    25
100
AcDbCircle
 10
2.9729970257
 20
1.0103903627
 30
0.0
 40
0.0599999999999984
100
AcDbArc
 50
18.7706283551
 51
82.687583976
  0
ARC
  5
240
330
1F
100
AcDbEntity
  8
0
  6
Continuous
 62
     7
370
    25
100
AcDbCircle
 10
0.0
 20
0.0
 30
0.0
 40
3.200000000004354
100
AcDbArc
 50
17.2293716449
 51
18.7706283551
  0
ARC
  5
241
330
1F
100
AcDbEntity
  8
0
  6
Continuous
 62
     7
370
    25
100
AcDbCircle
 10
2.9990976723
 20
0.9300608324
 30
0.0
 40
0.0600000000000026
100
AcDbArc
 50
313.312416024
 51
17.2293716449
  0
ARC
  5
242
330
1F
100
AcDbEntity
  8
0
  6
Continuous
 62
     7
370
    25
100
AcDbCircle
 10
2.4139648755
 20
1.55071915
 30
0.0
 40
0.9129930462541577
100
AcDbArc
 50
287.6611694951
 51
313.312416024
  0
ARC
  5
243
330
1F
100
AcDbEntity
  8
0
  6
Continuous
 62
     7
370
    25
100
AcDbCircle
 10
2.7091586606
 20
0.6235858816
 30
0.0
 40
0.0599999999999996
100
AcDbArc
 50
107.6611694951
 51
192.9623933308
  0
ARC
  5
244
330
1F
100
AcDbEntity
  8
0
  6
Continuous
 62
     7
370
    25
100
AcDbCircle
 10
0.0
 20
0.0
 30
0.0
 40
2.719999999999069
100
AcDbArc
 50
11.0376066692
 51
12.9623933308
  0
ARC
  5
245
330
1F
100
AcDbEntity
  8
0
  6
Continuous
 62
     7
370
    25
100
AcDbCircle
 10
2.7285748166
 20
0.5322400496
 30
0.0
 40
0.0600000000000006
100
AcDbArc
 50
191.0376066692
 51
276.3388305049
  0
ARC
  5
246
330
1F
100
AcDbEntity
  8
0
  6
Continuous
 62
     7
370
    25
100
AcDbCircle
 10
2.8360009484
 20
-0.4348044656
 30
0.0
 40
0.9129930462541649
100
AcDbArc
 50
70.687583976
 51
96.3388305049
  0
ARC
  5
247
330
1F
100
AcDbEntity
  8
0
  6
Continuous
 62
     7
370
    25
100
AcDbCircle
 10
3.1181018764
 20
0.3701900707
 30
0.0
 40
0.0599999999999973
100
AcDbArc
 50
6.7706283551
 51
70.687583976
  0
ARC
  5
248
330
1F
100
AcDbEntity
  8
0
  6
Continuous
 62
     7
370
    25
100
AcDbCircle
 10
0.0
 20
0.0
 30
0.0
 40
3.20000000001046
100
AcDbArc
 50
5.229371645
 51
6.7706283551
  0
ARC
  5
249
330
1F
100
AcDbEntity
  8
0
  6
Continuous
 62
     7
370
    25
100
AcDbCircle
 10
3.1269307128
 20
0.2861893038
 30
0.0
 40
0.0600000000000053
100
AcDbArc
 50
301.312416024
 51
5.2293716449
  0
ARC
  5
24A
330
1F
100
AcDbEntity
  8
0
  6
Continuous
 62
     7
370
    25
100
AcDbCircle
 10
2.6836265917
 20
1.0149406971
 30
0.0
 40
0.9129930462541627
100
AcDbArc
 50
275.6611694951
 51
301.312416024
  0
ARC
  5
24B
330
1F
100
AcDbEntity
  8
0
  6
Continuous
 62
     7
370
    25
100
AcDbCircle
 10
2.7796078389
 20
0.0466932761
 30
0.0
 40
0.0599999999999998
100
AcDbArc
 50
95.6611694951
 51
180.9623933308
  0
ARC
  5
24C
330
1F
100
AcDbEntity
  8
0
  6
Continuous
 62
     7
370
    25
100
AcDbCircle
 10
0.0
 20
0.0
 30
0.0
 40
2.720000000000012
100
AcDbArc
 50
359.0376066692
 51
0.9623933308
  0
ARC
  5
24D
330
1F
100
AcDbEntity
  8
0
  6
Continuous
 62
     7
370
    25
100
AcDbCircle
 10
2.7796078389
 20
-0.0466932761
 30
0.0
 40
0.0600000000000011
100
AcDbArc
 50
179.0376066692
 51
264.3388305049
  0
ARC
  5
24E
330
1F
100
AcDbEntity
  8
0
  6
Continuous
 62
     7
370
    25
100
AcDbCircle
 10
2.6836265917
 20
-1.0149406971
 30
0.0
 40
0.9129930462541643
100
AcDbArc
 50
58.687583976
 51
84.3388305049
  0
ARC
  5
24F
330
1F
100
AcDbEntity
  8
0
  6
Continuous
 62
     7
370
    25
100
AcDbCircle
 10
3.1269307128
 20
-0.2861893038
 30
0.0
 40
0.0599999999999971
100
AcDbArc
 50
354.7706283551
 51
58.687583976
  0
ARC
  5
250
330
1F
100
AcDbEntity
  8
0
  6
Continuous
 62
     7
370
    25
100
AcDbCircle
 10
0.0
 20
0.0
 30
0.0
 40
3.19999999999435
100
AcDbArc
 50
353.2293716449
 51
354.7706283551
  0
ARC
  5
251
330
1F
100
AcDbEntity
  8
0
  6
Continuous
 62
     7
370
    25
100
AcDbCircle
 10
3.1181018764
 20
-0.3701900707
 30
0.0
 40
0.0600000000000048
100
AcDbArc
 50
289.312416024
 51
353.2293716449
  0
ARC
  5
252
330
1F
100
AcDbEntity
  8
0
  6
Continuous
 62
     7
370
    25
100
AcDbCircle
 10
2.8360009484
 20
0.4348044656
 30
0.0
 40
0.9129930462541602
100
AcDbArc
 50
263.6611694951
 51
289.312416024
  0
ARC
  5
253
330
1F
100
AcDbEntity
  8
0
  6
Continuous
 62
     7
370
    25
100
AcDbCircle
 10
-3.1269307128
 20
0.2861893038
 30
0.0
 40
0.059999999999997
100
AcDbArc
 50
174.7706283551
 51
238.687583976
  0
ENDSEC
  0
SECTION
  2
OBJECTS
  0
DICTIONARY
  5
C
330
0
100
AcDbDictionary
281
     1
  3
ACAD_GROUP
350
D
  3
ACAD_LAYOUT
350
1A
  3
ACAD_MLINESTYLE
350
17
  3
ACAD_PLOTSETTINGS
350
19
  3
ACAD_PLOTSTYLENAME
350
E
  3
ACAD_SCALELIST
350
47
  3
DWGPROPS
350
254
  0
DICTIONARY
  5
D
102
{ACAD_REACTORS
330
C
102
}
330
C
100
AcDbDictionary
281
     1
  0
DICTIONARY
  5
1A
102
{ACAD_REACTORS
330
C
102
}
330
C
100
AcDbDictionary
281
     1
  3
Layout1
350
1E
  3
Layout2
350
26
  3
Model
350
22
  0
DICTIONARY
  5
17
102
{ACAD_REACTORS
330
C
102
}
330
C
100
AcDbDictionary
281
     1
  3
Standard
350
18
  0
DICTIONARY
  5
19
102
{ACAD_REACTORS
330
C
102
}
330
C
100
AcDbDictionary
281
     1
  0
ACDBDICTIONARYWDFLT
  5
E
102
{ACAD_REACTORS
330
C
102
}
330
C
100
AcDbDictionary
281
     1
  3
Normal
350
F
100
AcDbDictionaryWithDefault
340
F
  0
DICTIONARY
  5
47
102
{ACAD_REACTORS
330
C
102
}
330
C
100
AcDbDictionary
281
     1
  3
A0
350
48
  3
A1
350
49
  3
A2
350
4A
  3
A3
350
4B
  3
A4
350
4C
  3
A5
350
4D
  3
A6
350
4E
  3
A7
350
4F
  3
A8
350
50
  3
A9
350
51
  3
B0
350
52
  3
B1
350
53
  3
B2
350
54
  3
B3
350
55
  3
B4
350
56
  3
B5
350
57
  3
B6
350
58
  0
XRECORD
  5
254
102
{ACAD_REACTORS
330
C
102
}
330
C
100
AcDbXrecord
280
     1
  1
DWGPROPS COOKIE
  2

  3

  4

  6

  7

  8
thakr
  9

300
=
301
=
302
=
303
=
304
=
305
=
306
=
307
=
308
=
309
=
 40
0.0
 41
2459776.496893241
 42
2459776.497022928
  1

 90
        0
  0
LAYOUT
  5
1E
102
{ACAD_REACTORS
330
1A
102
}
330
1A
100
AcDbPlotSettings
  1

  2
none_device
  4

  6

 40
0.0
 41
0.0
 42
0.0
 43
0.0
 44
0.0
 45
0.0
 46
0.0
 47
0.0
 48
0.0
 49
0.0
140
0.0
141
0.0
142
1.0
143
1.0
 70
   688
 72
     1
 73
     0
 74
     5
  7

 75
    16
147
1.0
148
0.0
149
0.0
100
AcDbLayout
  1
Layout1
 70
     1
 71
     1
 10
0.0
 20
0.0
 11
420.0
 21
297.0
 12
0.0
 22
0.0
 32
0.0
 14
1.0000000000E+20
 24
1.0000000000E+20
 34
1.0000000000E+20
 15
-1.0000000000E+20
 25
-1.0000000000E+20
 35
-1.0000000000E+20
146
0.0
 13
0.0
 23
0.0
 33
0.0
 16
1.0
 26
0.0
 36
0.0
 17
0.0
 27
1.0
 37
0.0
 76
     0
330
1B
  0
LAYOUT
  5
26
102
{ACAD_REACTORS
330
1A
102
}
330
1A
100
AcDbPlotSettings
  1

  2
none_device
  4

  6

 40
0.0
 41
0.0
 42
0.0
 43
0.0
 44
0.0
 45
0.0
 46
0.0
 47
0.0
 48
0.0
 49
0.0
140
0.0
141
0.0
142
1.0
143
1.0
 70
   688
 72
     1
 73
     0
 74
     5
  7

 75
    16
147
1.0
148
0.0
149
0.0
100
AcDbLayout
  1
Layout2
 70
     1
 71
     2
 10
0.0
 20
0.0
 11
0.0
 21
0.0
 12
0.0
 22
0.0
 32
0.0
 14
0.0
 24
0.0
 34
0.0
 15
0.0
 25
0.0
 35
0.0
146
0.0
 13
0.0
 23
0.0
 33
0.0
 16
1.0
 26
0.0
 36
0.0
 17
0.0
 27
1.0
 37
0.0
 76
     0
330
23
  0
LAYOUT
  5
22
102
{ACAD_REACTORS
330
1A
102
}
330
1A
100
AcDbPlotSettings
  1

  2
none_device
  4
ANSI_A_(11.00_x_8.50_Inches)
  6

 40
6.35
 41
19.05
 42
6.35000508
 43
19.05000254
 44
279.4
 45
215.9
 46
133.34999746
 47
88.89999873
 48
0.0
 49
0.0
140
0.0
141
0.0
142
1.31484375
143
1.0
 70
  1696
 72
     0
 73
     0
 74
     0
  7

 75
     0
147
0.0179189148
148
-1300.4909072572
149
0.0
100
AcDbLayout
  1
Model
 70
     1
 71
     0
 10
0.0
 20
0.0
 11
420.0
 21
297.0
 12
0.0
 22
0.0
 32
0.0
 14
-3.1869307128
 24
-3.2
 34
0.0
 15
3.1869307128
 25
3.2
 35
0.0
146
0.0
 13
0.0
 23
0.0
 33
0.0
 16
1.0
 26
0.0
 36
0.0
 17
0.0
 27
1.0
 37
0.0
 76
     0
330
1F
331
29
  0
MLINESTYLE
  5
18
102
{ACAD_REACTORS
330
17
102
}
330
17
100
AcDbMlineStyle
  2
Standard
 70
     0
  3

 62
   256
 51
90.0
 52
90.0
 71
     2
 49
0.5
 62
   256
  6
BYLAYER
 49
-0.5
 62
   256
  6
BYLAYER
  0
ACDBPLACEHOLDER
  5
F
102
{ACAD_REACTORS
330
E
102
}
330
E
  0
SCALE
  5
48
102
{ACAD_REACTORS
330
47
102
}
330
47
100
AcDbScale
 70
     0
300
1:1
140
1.0
141
1.0
290
     1
  0
SCALE
  5
49
102
{ACAD_REACTORS
330
47
102
}
330
47
100
AcDbScale
 70
     0
300
1:2
140
1.0
141
2.0
290
     0
  0
SCALE
  5
4A
102
{ACAD_REACTORS
330
47
102
}
330
47
100
AcDbScale
 70
     0
300
1:4
140
1.0
141
4.0
290
     0
  0
SCALE
  5
4B
102
{ACAD_REACTORS
330
47
102
}
330
47
100
AcDbScale
 70
     0
300
1:5
140
1.0
141
5.0
290
     0
  0
SCALE
  5
4C
102
{ACAD_REACTORS
330
47
102
}
330
47
100
AcDbScale
 70
     0
300
1:8
140
1.0
141
8.0
290
     0
  0
SCALE
  5
4D
102
{ACAD_REACTORS
330
47
102
}
330
47
100
AcDbScale
 70
     0
300
1:10
140
1.0
141
10.0
290
     0
  0
SCALE
  5
4E
102
{ACAD_REACTORS
330
47
102
}
330
47
100
AcDbScale
 70
     0
300
1:16
140
1.0
141
16.0
290
     0
  0
SCALE
  5
4F
102
{ACAD_REACTORS
330
47
102
}
330
47
100
AcDbScale
 70
     0
300
1:20
140
1.0
141
20.0
290
     0
  0
SCALE
  5
50
102
{ACAD_REACTORS
330
47
102
}
330
47
100
AcDbScale
 70
     0
300
1:30
140
1.0
141
30.0
290
     0
  0
SCALE
  5
51
102
{ACAD_REACTORS
330
47
102
}
330
47
100
AcDbScale
 70
     0
300
1:40
140
1.0
141
40.0
290
     0
  0
SCALE
  5
52
102
{ACAD_REACTORS
330
47
102
}
330
47
100
AcDbScale
 70
     0
300
1:50
140
1.0
141
50.0
290
     0
  0
SCALE
  5
53
102
{ACAD_REACTORS
330
47
102
}
330
47
100
AcDbScale
 70
     0
300
1:100
140
1.0
141
100.0
290
     0
  0
SCALE
  5
54
102
{ACAD_REACTORS
330
47
102
}
330
47
100
AcDbScale
 70
     0
300
2:1
140
2.0
141
1.0
290
     0
  0
SCALE
  5
55
102
{ACAD_REACTORS
330
47
102
}
330
47
100
AcDbScale
 70
     0
300
4:1
140
4.0
141
1.0
290
     0
  0
SCALE
  5
56
102
{ACAD_REACTORS
330
47
102
}
330
47
100
AcDbScale
 70
     0
300
8:1
140
8.0
141
1.0
290
     0
  0
SCALE
  5
57
102
{ACAD_REACTORS
330
47
102
}
330
47
100
AcDbScale
 70
     0
300
10:1
140
10.0
141
1.0
290
     0
  0
SCALE
  5
58
102
{ACAD_REACTORS
330
47
102
}
330
47
100
AcDbScale
 70
     0
300
100:1
140
100.0
141
1.0
290
     0
  0
ENDSEC
  0
EOF
