  0
SECTION
  2
HEADER
  9
$ACADVER
  1
AC1015
  9
$ACADMAINTVER
 70
     6
  9
$DWGCODEPAGE
  3
ANSI_1252
  9
$INSBASE
 10
0.0
 20
0.0
 30
0.0
  9
$EXTMIN
 10
-32.0
 20
-31.8672044579
 30
0.0
  9
$EXTMAX
 10
32.0
 20
31.8672044579
 30
0.0
  9
$LIMMIN
 10
0.0
 20
0.0
  9
$LIMMAX
 10
420.0
 20
297.0
  9
$ORTHOMODE
 70
     0
  9
$REGENMODE
 70
     1
  9
$FILLMODE
 70
     1
  9
$QTEXTMODE
 70
     0
  9
$MIRRTEXT
 70
     1
  9
$LTSCALE
 40
1.0
  9
$ATTMODE
 70
     1
  9
$TEXTSIZE
 40
3.5
  9
$TRACEWID
 40
1.0
  9
$TEXTSTYLE
  7
Standard
  9
$CLAYER
  8
0
  9
$CELTYPE
  6
ByLayer
  9
$CECOLOR
 62
   256
  9
$CELTSCALE
 40
1.0
  9
$DISPSILH
 70
     0
  9
$DIMSCALE
 40
1.0
  9
$DIMASZ
 40
3.302
  9
$DIMEXO
 40
0.0
  9
$DIMDLI
 40
3.75
  9
$DIMRND
 40
0.0
  9
$DIMDLE
 40
0.0
  9
$DIMEXE
 40
1.0
  9
$DIMTP
 40
0.0
  9
$DIMTM
 40
0.0
  9
$DIMTXT
 40
3.5
  9
$DIMCEN
 40
2.5
  9
$DIMTSZ
 40
0.0
  9
$DIMTOL
 70
     0
  9
$DIMLIM
 70
     0
  9
$DIMTIH
 70
     1
  9
$DIMTOH
 70
     1
  9
$DIMSE1
 70
     0
  9
$DIMSE2
 70
     0
  9
$DIMTAD
 70
     1
  9
$DIMZIN
 70
     1
  9
$DIMBLK
  1

  9
$DIMASO
 70
     1
  9
$DIMSHO
 70
     1
  9
$DIMPOST
  1

  9
$DIMAPOST
  1

  9
$DIMALT
 70
     0
  9
$DIMALTD
 70
     3
  9
$DIMALTF
 40
0.0393700787
  9
$DIMLFAC
 40
1.0
  9
$DIMTOFL
 70
     1
  9
$DIMTVP
 40
0.0
  9
$DIMTIX
 70
     0
  9
$DIMSOXD
 70
     0
  9
$DIMSAH
 70
     0
  9
$DIMBLK1
  1

  9
$DIMBLK2
  1

  9
$DIMSTYLE
  2
ISO-25
  9
$DIMCLRD
 70
     0
  9
$DIMCLRE
 70
     0
  9
$DIMCLRT
 70
     0
  9
$DIMTFAC
 40
1.0
  9
$DIMGAP
 40
1.524
  9
$DIMJUST
 70
     0
  9
$DIMSD1
 70
     0
  9
$DIMSD2
 70
     0
  9
$DIMTOLJ
 70
     0
  9
$DIMTZIN
 70
     1
  9
$DIMALTZ
 70
     0
  9
$DIMALTTZ
 70
     0
  9
$DIMUPT
 70
     0
  9
$DIMDEC
 70
     2
  9
$DIMTDEC
 70
     2
  9
$DIMALTU
 70
     2
  9
$DIMALTTD
 70
     3
  9
$DIMTXSTY
  7
Standard
  9
$DIMAUNIT
 70
     0
  9
$DIMADEC
 70
     2
  9
$DIMALTRND
 40
0.0
  9
$DIMAZIN
 70
     0
  9
$DIMDSEP
 70
    44
  9
$DIMATFIT
 70
     3
  9
$DIMFRAC
 70
     0
  9
$DIMLDRBLK
  1

  9
$DIMLUNIT
 70
     2
  9
$DIMLWD
 70
    -2
  9
$DIMLWE
 70
    -2
  9
$DIMTMOVE
 70
     0
  9
$LUNITS
 70
     2
  9
$LUPREC
 70
     2
  9
$SKETCHINC
 40
1.0
  9
$FILLETRAD
 40
0.0
  9
$AUNITS
 70
     0
  9
$AUPREC
 70
     2
  9
$MENU
  1
.
  9
$ELEVATION
 40
0.0
  9
$PELEVATION
 40
0.0
  9
$THICKNESS
 40
0.0
  9
$LIMCHECK
 70
     0
  9
$CHAMFERA
 40
0.0
  9
$CHAMFERB
 40
0.0
  9
$CHAMFERC
 40
0.0
  9
$CHAMFERD
 40
0.0
  9
$SKPOLY
 70
     0
  9
$TDCREATE
 40
2459776.724862905
  9
$TDUCREATE
 40
2459776.495696238
  9
$TDUPDATE
 40
2459776.725012558
  9
$TDUUPDATE
 40
2459776.495845891
  9
$TDINDWG
 40
0.0000000116
  9
$TDUSRTIMER
 40
0.0000000116
  9
$USRTIMER
 70
     1
  9
$ANGBASE
 50
0.0
  9
$ANGDIR
 70
     0
  9
$PDMODE
 70
     0
  9
$PDSIZE
 40
-1.0
  9
$PLINEWID
 40
0.0
  9
$SPLFRAME
 70
     0
  9
$SPLINETYPE
 70
     6
  9
$SPLINESEGS
 70
     8
  9
$HANDSEED
  5
248
  9
$SURFTAB1
 70
     6
  9
$SURFTAB2
 70
     6
  9
$SURFTYPE
 70
     6
  9
$SURFU
 70
     6
  9
$SURFV
 70
     6
  9
$UCSBASE
  2

  9
$UCSNAME
  2

  9
$UCSORG
 10
0.0
 20
0.0
 30
0.0
  9
$UCSXDIR
 10
1.0
 20
0.0
 30
0.0
  9
$UCSYDIR
 10
0.0
 20
1.0
 30
0.0
  9
$UCSORTHOREF
  2

  9
$UCSORTHOVIEW
 70
     0
  9
$UCSORGTOP
 10
0.0
 20
0.0
 30
0.0
  9
$UCSORGBOTTOM
 10
0.0
 20
0.0
 30
0.0
  9
$UCSORGLEFT
 10
0.0
 20
0.0
 30
0.0
  9
$UCSORGRIGHT
 10
0.0
 20
0.0
 30
0.0
  9
$UCSORGFRONT
 10
0.0
 20
0.0
 30
0.0
  9
$UCSORGBACK
 10
0.0
 20
0.0
 30
0.0
  9
$PUCSBASE
  2

  9
$PUCSNAME
  2

  9
$PUCSORG
 10
0.0
 20
0.0
 30
0.0
  9
$PUCSXDIR
 10
1.0
 20
0.0
 30
0.0
  9
$PUCSYDIR
 10
0.0
 20
1.0
 30
0.0
  9
$PUCSORTHOREF
  2

  9
$PUCSORTHOVIEW
 70
     0
  9
$PUCSORGTOP
 10
0.0
 20
0.0
 30
0.0
  9
$PUCSORGBOTTOM
 10
0.0
 20
0.0
 30
0.0
  9
$PUCSORGLEFT
 10
0.0
 20
0.0
 30
0.0
  9
$PUCSORGRIGHT
 10
0.0
 20
0.0
 30
0.0
  9
$PUCSORGFRONT
 10
0.0
 20
0.0
 30
0.0
  9
$PUCSORGBACK
 10
0.0
 20
0.0
 30
0.0
  9
$USERI1
 70
     0
  9
$USERI2
 70
     0
  9
$USERI3
 70
     0
  9
$USERI4
 70
     0
  9
$USERI5
 70
     0
  9
$USERR1
 40
0.0
  9
$USERR2
 40
0.0
  9
$USERR3
 40
0.0
  9
$USERR4
 40
0.0
  9
$USERR5
 40
0.0
  9
$WORLDVIEW
 70
     1
  9
$SHADEDGE
 70
     3
  9
$SHADEDIF
 70
    70
  9
$TILEMODE
 70
     1
  9
$MAXACTVP
 70
    64
  9
$PINSBASE
 10
0.0
 20
0.0
 30
0.0
  9
$PLIMCHECK
 70
     0
  9
$PEXTMIN
 10
1.0000000000E+20
 20
1.0000000000E+20
 30
1.0000000000E+20
  9
$PEXTMAX
 10
-1.0000000000E+20
 20
-1.0000000000E+20
 30
-1.0000000000E+20
  9
$PLIMMIN
 10
0.0
 20
0.0
  9
$PLIMMAX
 10
420.0
 20
297.0
  9
$UNITMODE
 70
     0
  9
$VISRETAIN
 70
     1
  9
$PLINEGEN
 70
     0
  9
$PSLTSCALE
 70
     1
  9
$TREEDEPTH
 70
  3020
  9
$CMLSTYLE
  2
Standard
  9
$CMLJUST
 70
     0
  9
$CMLSCALE
 40
20.0
  9
$PROXYGRAPHICS
 70
     1
  9
$MEASUREMENT
 70
     1
  9
$CELWEIGHT
370
    -1
  9
$ENDCAPS
280
     0
  9
$JOINSTYLE
280
     0
  9
$LWDISPLAY
290
     1
  9
$INSUNITS
 70
     4
  9
$HYPERLINKBASE
  1

  9
$STYLESHEET
  1

  9
$XEDIT
290
     1
  9
$CEPSNTYPE
380
     0
  9
$PSTYLEMODE
290
     1
  9
$FINGERPRINTGUID
  2
{8a9c96d9-1288-4047-a482-9154b5e3128a}
  9
$VERSIONGUID
  2
{FAEB1C32-E019-11D5-929B-00C0DF256EC4}
  9
$EXTNAMES
290
     1
  9
$PSVPSCALE
 40
0.0
  9
$OLESTARTUP
290
     0
  0
ENDSEC
  0
SECTION
  2
CLASSES
  0
CLASS
  1
ACDBDICTIONARYWDFLT
  2
AcDbDictionaryWithDefault
  3
ObjectDBX Classes
 90
        0
280
     0
281
     0
  0
CLASS
  1
VISUALSTYLE
  2
AcDbVisualStyle
  3
ObjectDBX Classes
 90
     4095
280
     0
281
     0
  0
CLASS
  1
MATERIAL
  2
AcDbMaterial
  3
ObjectDBX Classes
 90
     1153
280
     0
281
     0
  0
CLASS
  1
SCALE
  2
AcDbScale
  3
ObjectDBX Classes
 90
     1153
280
     0
281
     0
  0
CLASS
  1
TABLESTYLE
  2
AcDbTableStyle
  3
ObjectDBX Classes
 90
     4095
280
     0
281
     0
  0
CLASS
  1
MLEADERSTYLE
  2
AcDbMLeaderStyle
  3
ACDB_MLEADERSTYLE_CLASS
 90
     4095
280
     0
281
     0
  0
CLASS
  1
SUN
  2
AcDbSun
  3
SCENEOE
 90
     1153
280
     0
281
     0
  0
CLASS
  1
ACDBPLACEHOLDER
  2
AcDbPlaceHolder
  3
ObjectDBX Classes
 90
        0
280
     0
281
     0
  0
CLASS
  1
LAYOUT
  2
AcDbLayout
  3
ObjectDBX Classes
 90
        0
280
     0
281
     0
  0
ENDSEC
  0
SECTION
  2
TABLES
  0
TABLE
  2
VPORT
  5
8
330
0
100
AcDbSymbolTable
 70
     1
  0
VPORT
  5
29
330
8
100
AcDbSymbolTableRecord
100
AcDbViewportTableRecord
  2
*Active
 70
     0
 10
0.0
 20
0.0
 11
1.0
 21
1.0
 12
0.0
 22
0.0
 13
0.0
 23
0.0
 14
10.0
 24
10.0
 15
10.0
 25
10.0
 16
0.0
 26
0.0
 36
1.0
 17
0.0
 27
0.0
 37
0.0
 40
65.0090970941
 41
1.0041671538
 42
50.0
 43
0.0
 44
0.0
 50
0.0
 51
0.0
 71
     0
 72
   100
 73
     1
 74
     3
 75
     0
 76
     0
 77
     0
 78
     0
281
     0
 65
     1
110
0.0
120
0.0
130
0.0
111
1.0
121
0.0
131
0.0
112
0.0
122
1.0
132
0.0
 79
     0
146
0.0
  0
ENDTAB
  0
TABLE
  2
LTYPE
  5
5
330
0
100
AcDbSymbolTable
 70
     6
  0
LTYPE
  5
14
330
5
100
AcDbSymbolTableRecord
100
AcDbLinetypeTableRecord
  2
ByBlock
 70
     0
  3

 72
    65
 73
     0
 40
0.0
  0
LTYPE
  5
15
330
5
100
AcDbSymbolTableRecord
100
AcDbLinetypeTableRecord
  2
ByLayer
 70
     0
  3

 72
    65
 73
     0
 40
0.0
  0
LTYPE
  5
16
330
5
100
AcDbSymbolTableRecord
100
AcDbLinetypeTableRecord
  2
Continuous
 70
     0
  3
Solid line
 72
    65
 73
     0
 40
0.0
  0
LTYPE
  5
5E
330
5
100
AcDbSymbolTableRecord
100
AcDbLinetypeTableRecord
  2
HIDDEN
 70
     0
  3
Hidden __ __ __ __ __ __ __ __ __ __ __ __ __ __
 72
    65
 73
     2
 40
1.905
 49
1.27
 74
     0
 49
-0.635
 74
     0
  0
LTYPE
  5
5F
330
5
100
AcDbSymbolTableRecord
100
AcDbLinetypeTableRecord
  2
PHANTOM
 70
     0
  3
Phantom ______  __  __  ______  __  __  ______
 72
    65
 73
     6
 40
12.7
 49
6.35
 74
     0
 49
-1.27
 74
     0
 49
1.27
 74
     0
 49
-1.27
 74
     0
 49
1.27
 74
     0
 49
-1.27
 74
     0
  0
LTYPE
  5
60
330
5
100
AcDbSymbolTableRecord
100
AcDbLinetypeTableRecord
  2
CENTER
 70
     0
  3
Center ____ _ ____ _ ____ _ ____ _ ____ _ ____
 72
    65
 73
     4
 40
10.16
 49
6.35
 74
     0
 49
-1.27
 74
     0
 49
1.27
 74
     0
 49
-1.27
 74
     0
  0
LTYPE
  5
61
330
5
100
AcDbSymbolTableRecord
100
AcDbLinetypeTableRecord
  2
CENTERX2
 70
     0
  3
Center (2x) ________  __  ________  __  _____
 72
    65
 73
     4
 40
20.32
 49
12.7
 74
     0
 49
-2.54
 74
     0
 49
2.54
 74
     0
 49
-2.54
 74
     0
  0
LTYPE
  5
62
330
5
100
AcDbSymbolTableRecord
100
AcDbLinetypeTableRecord
  2
DOT2
 70
     0
  3
Dot (.5x) ........................................
 72
    65
 73
     2
 40
0.635
 49
0.0
 74
     0
 49
-0.635
 74
     0
  0
ENDTAB
  0
TABLE
  2
LAYER
  5
2
330
0
100
AcDbSymbolTable
 70
     1
  0
LAYER
  5
10
330
2
100
AcDbSymbolTableRecord
100
AcDbLayerTableRecord
  2
0
 70
     0
 62
     7
  6
Continuous
370
    -3
390
F
  0
ENDTAB
  0
TABLE
  2
STYLE
  5
3
330
0
100
AcDbSymbolTable
 70
     1
  0
STYLE
  5
11
330
3
100
AcDbSymbolTableRecord
100
AcDbTextStyleTableRecord
  2
Standard
 70
     0
 40
0.0
 41
1.0
 50
0.0
 71
     0
 42
3.5
  3
txt
  4

  0
ENDTAB
  0
TABLE
  2
VIEW
  5
6
330
0
100
AcDbSymbolTable
 70
     0
  0
ENDTAB
  0
TABLE
  2
UCS
  5
7
330
0
100
AcDbSymbolTable
 70
     0
  0
ENDTAB
  0
TABLE
  2
APPID
  5
9
330
0
100
AcDbSymbolTable
 70
     1
  0
APPID
  5
12
330
9
100
AcDbSymbolTableRecord
100
AcDbRegAppTableRecord
  2
ACAD
 70
     0
  0
ENDTAB
  0
TABLE
  2
DIMSTYLE
  5
A
330
0
100
AcDbSymbolTable
 70
     1
100
AcDbDimStyleTable
  0
DIMSTYLE
105
27
330
A
100
AcDbSymbolTableRecord
100
AcDbDimStyleTableRecord
  2
ISO-25
 70
     0
 41
2.5
 42
0.625
 43
3.75
 44
1.25
 73
     0
 74
     0
 77
     1
 78
     8
140
2.5
141
2.5
143
0.0393700787
147
0.625
171
     3
172
     1
178
     0
271
     2
272
     2
274
     3
278
    44
283
     0
284
     8
340
11
  0
ENDTAB
  0
TABLE
  2
BLOCK_RECORD
  5
1
330
0
100
AcDbSymbolTable
 70
     1
  0
BLOCK_RECORD
  5
1F
330
1
100
AcDbSymbolTableRecord
100
AcDbBlockTableRecord
  2
*Model_Space
340
22
  0
BLOCK_RECORD
  5
1B
330
1
100
AcDbSymbolTableRecord
100
AcDbBlockTableRecord
  2
*Paper_Space
340
1E
  0
BLOCK_RECORD
  5
23
330
1
100
AcDbSymbolTableRecord
100
AcDbBlockTableRecord
  2
*Paper_Space0
340
26
  0
ENDTAB
  0
ENDSEC
  0
SECTION
  2
BLOCKS
  0
BLOCK
  5
20
330
1F
100
AcDbEntity
  8
0
100
AcDbBlockBegin
  2
*Model_Space
 70
     0
 10
0.0
 20
0.0
 30
0.0
  3
*Model_Space
  1

  0
ENDBLK
  5
21
330
1F
100
AcDbEntity
  8
0
100
AcDbBlockEnd
  0
BLOCK
  5
1C
330
1B
100
AcDbEntity
 67
     1
  8
0
100
AcDbBlockBegin
  2
*Paper_Space
 70
     0
 10
0.0
 20
0.0
 30
0.0
  3
*Paper_Space
  1

  0
ENDBLK
  5
1D
330
1B
100
AcDbEntity
 67
     1
  8
0
100
AcDbBlockEnd
  0
BLOCK
  5
24
330
23
100
AcDbEntity
  8
0
100
AcDbBlockBegin
  2
*Paper_Space0
 70
     0
 10
0.0
 20
0.0
 30
0.0
  3
*Paper_Space0
  1

  0
ENDBLK
  5
25
330
23
100
AcDbEntity
  8
0
100
AcDbBlockEnd
  0
ENDSEC
  0
SECTION
  2
ENTITIES
  0
POINT
  5
65
330
1F
100
AcDbEntity
  8
0
  6
Continuous
 62
     7
100
AcDbPoint
 10
0.0
 20
0.0
 30
0.0
  0
CIRCLE
  5
155
330
1F
100
AcDbEntity
  8
0
  6
Continuous
 62
     7
370
    25
100
AcDbCircle
 10
0.0
 20
0.0
 30
0.0
 40
2.800000000000001
  0
ARC
  5
157
330
1F
100
AcDbEntity
  8
0
  6
Continuous
 62
     7
370
    25
100
AcDbCircle
 10
5.326642347
 20
27.5905215845
 30
0.0
 40
0.6000000000000009
100
AcDbArc
 50
174.1283517666
 51
259.0728793971
  0
ARC
  5
158
330
1F
100
AcDbEntity
  8
0
  6
Continuous
 62
     7
370
    25
100
AcDbCircle
 10
0.0
 20
0.0
 30
0.0
 40
27.50000000003585
100
AcDbArc
 50
76.9271206029
 51
79.0728793971
  0
ARC
  5
159
330
1F
100
AcDbEntity
  8
0
  6
Continuous
 62
     7
370
    25
100
AcDbCircle
 10
6.3559462094
 20
27.3717362946
 30
0.0
 40
0.5999999999999865
100
AcDbArc
 50
256.9271206029
 51
341.8716482334
  0
ARC
  5
15A
330
1F
100
AcDbEntity
  8
0
  6
Continuous
 62
     7
370
    25
100
AcDbCircle
 10
14.7138823302
 20
24.6353633422
 30
0.0
 40
8.19447742251718
100
AcDbArc
 50
135.226886292
 51
161.8716482334
  0
ARC
  5
15B
330
1F
100
AcDbEntity
  8
0
  6
Continuous
 62
     7
370
    25
100
AcDbCircle
 10
9.3225528513
 20
29.9841626252
 30
0.0
 40
0.5999999999999509
100
AcDbArc
 50
72.7287000252
 51
135.226886292
  0
ARC
  5
15C
330
1F
100
AcDbEntity
  8
0
  6
Continuous
 62
     7
370
    25
100
AcDbCircle
 10
0.0
 20
0.0
 30
0.0
 40
32.00000000003163
100
AcDbArc
 50
71.2712999748
 51
72.7287000252
  0
ARC
  5
15D
330
1F
100
AcDbEntity
  8
0
  6
Continuous
 62
     7
370
    25
100
AcDbCircle
 10
10.0821449058
 20
29.7373562056
 30
0.0
 40
0.600000000000043
100
AcDbArc
 50
8.773113708
 51
71.2712999748
  0
ARC
  5
15E
330
1F
100
AcDbEntity
  8
0
  6
Continuous
 62
     7
370
    25
100
AcDbCircle
 10
2.576522399
 20
28.5790306441
 30
0.0
 40
8.194477422517206
100
AcDbArc
 50
342.1283517666
 51
8.773113708
  0
ARC
  5
15F
330
1F
100
AcDbEntity
  8
0
  6
Continuous
 62
     7
370
    25
100
AcDbCircle
 10
10.9466344249
 20
25.8801312742
 30
0.0
 40
0.6000000000000087
100
AcDbArc
 50
162.1283517666
 51
247.0728793971
  0
ARC
  5
160
330
1F
100
AcDbEntity
  8
0
  6
Continuous
 62
     7
370
    25
100
AcDbCircle
 10
0.0
 20
0.0
 30
0.0
 40
27.5000000000393
100
AcDbArc
 50
64.9271206029
 51
67.0728793971
  0
ARC
  5
161
330
1F
100
AcDbEntity
  8
0
  6
Continuous
 62
     7
370
    25
100
AcDbCircle
 10
11.9079575087
 20
25.4521226614
 30
0.0
 40
0.5999999999999959
100
AcDbArc
 50
244.9271206029
 51
329.8716482334
  0
ARC
  5
162
330
1F
100
AcDbEntity
  8
0
  6
Continuous
 62
     7
370
    25
100
AcDbCircle
 10
19.5143287452
 20
21.0378333926
 30
0.0
 40
8.19447742251713
100
AcDbArc
 50
123.226886292
 51
149.8716482334
  0
ARC
  5
163
330
1F
100
AcDbEntity
  8
0
  6
Continuous
 62
     7
370
    25
100
AcDbCircle
 10
15.3528906534
 20
27.3906690058
 30
0.0
 40
0.5999999999999924
100
AcDbArc
 50
60.7287000252
 51
123.226886292
  0
ARC
  5
164
330
1F
100
AcDbEntity
  8
0
  6
Continuous
 62
     7
370
    25
100
AcDbCircle
 10
0.0
 20
0.0
 30
0.0
 40
32.00000000002886
100
AcDbArc
 50
59.2712999748
 51
60.7287000252
  0
ARC
  5
165
330
1F
100
AcDbEntity
  8
0
  6
Continuous
 62
     7
370
    25
100
AcDbCircle
 10
16.044569859
 20
26.9913278302
 30
0.0
 40
0.6000000000000014
100
AcDbArc
 50
356.773113708
 51
59.2712999748
  0
ARC
  5
166
330
1F
100
AcDbEntity
  8
0
  6
Continuous
 62
     7
370
    25
100
AcDbCircle
 10
8.462133786
 20
27.4188211274
 30
0.0
 40
8.194477422517156
100
AcDbArc
 50
330.1283517666
 51
356.773113708
  0
ARC
  5
167
330
1F
100
AcDbEntity
  8
0
  6
Continuous
 62
     7
370
    25
100
AcDbCircle
 10
16.0882060506
 20
23.0386550405
 30
0.0
 40
0.6000000000000079
100
AcDbArc
 50
150.1283517666
 51
235.0728793971
  0
ARC
  5
168
330
1F
100
AcDbEntity
  8
0
  6
Continuous
 62
     7
370
    25
100
AcDbCircle
 10
0.0
 20
0.0
 30
0.0
 40
27.50000000005894
100
AcDbArc
 50
52.9271206029
 51
55.0728793971
  0
ARC
  5
169
330
1F
100
AcDbEntity
  8
0
  6
Continuous
 62
     7
370
    25
100
AcDbCircle
 10
16.9395339243
 20
22.420129135
 30
0.0
 40
0.5999999999999983
100
AcDbArc
 50
232.9271206029
 51
317.8716482334
  0
ARC
  5
16A
330
1F
100
AcDbEntity
  8
0
  6
Continuous
 62
     7
370
    25
100
AcDbCircle
 10
23.4619053538
 20
16.520849173
 30
0.0
 40
8.194477422517233
100
AcDbArc
 50
111.226886292
 51
137.8716482334
  0
ARC
  5
16B
330
1F
100
AcDbEntity
  8
0
  6
Continuous
 62
     7
370
    25
100
AcDbCircle
 10
20.7122334625
 20
23.6000717159
 30
0.0
 40
0.599999999999953
100
AcDbArc
 50
48.7287000252
 51
111.226886292
  0
ARC
  5
16C
330
1F
100
AcDbEntity
  8
0
  6
Continuous
 62
     7
370
    25
100
AcDbCircle
 10
-0.0000000001
 20
-0.0000000001
 30
0.0
 40
32.00000000008188
100
AcDbArc
 50
47.2712999748
 51
48.7287000252
  0
ARC
  5
16D
330
1F
100
AcDbEntity
  8
0
  6
Continuous
 62
     7
370
    25
100
AcDbCircle
 10
21.305770119
 20
23.0656489099
 30
0.0
 40
0.6000000000000647
100
AcDbArc
 50
344.773113708
 51
47.2712999748
  0
ARC
  5
16E
330
1F
100
AcDbEntity
  8
0
  6
Continuous
 62
     7
370
    25
100
AcDbCircle
 10
13.9779093206
 20
25.0602775574
 30
0.0
 40
8.194477422517172
100
AcDbArc
 50
318.1283517666
 51
344.773113708
  0
ARC
  5
16F
330
1F
100
AcDbEntity
  8
0
  6
Continuous
 62
     7
370
    25
100
AcDbCircle
 10
20.5266458721
 20
19.1902790297
 30
0.0
 40
0.5999999999999913
100
AcDbArc
 50
138.1283517666
 51
223.0728793971
  0
ARC
  5
170
330
1F
100
AcDbEntity
  8
0
  6
Continuous
 62
     7
370
    25
100
AcDbCircle
 10
0.0
 20
0.0
 30
0.0
 40
27.50000000005373
100
AcDbArc
 50
40.9271206029
 51
43.0728793971
  0
ARC
  5
171
330
1F
100
AcDbEntity
  8
0
  6
Continuous
 62
     7
370
    25
100
AcDbCircle
 10
21.2307714224
 20
18.4082683817
 30
0.0
 40
0.5999999999999996
100
AcDbArc
 50
220.9271206029
 51
305.8716482334
  0
ARC
  5
172
330
1F
100
AcDbEntity
  8
0
  6
Continuous
 62
     7
370
    25
100
AcDbCircle
 10
26.3840841158
 20
11.2818245687
 30
0.0
 40
8.194477422517297
100
AcDbArc
 50
99.226886292
 51
125.8716482334
  0
ARC
  5
173
330
1F
100
AcDbEntity
  8
0
  6
Continuous
 62
     7
370
    25
100
AcDbCircle
 10
25.1663522811
 20
18.7780380462
 30
0.0
 40
0.5999999999999645
100
AcDbArc
 50
36.7287000252
 51
99.226886292
  0
ARC
  5
174
330
1F
100
AcDbEntity
  8
0
  6
Continuous
 62
     7
370
    25
100
AcDbCircle
 10
0.0
 20
0.0
 30
0.0
 40
32.00000000001988
100
AcDbArc
 50
35.2712999748
 51
36.7287000252
  0
ARC
  5
175
330
1F
100
AcDbEntity
  8
0
  6
Continuous
 62
     7
370
    25
100
AcDbCircle
 10
25.6358059884
 20
18.131890451
 30
0.0
 40
0.5999999999999828
100
AcDbArc
 50
332.773113708
 51
35.2712999748
  0
ARC
  5
176
330
1F
100
AcDbEntity
  8
0
  6
Continuous
 62
     7
370
    25
100
AcDbCircle
 10
18.8827831446
 20
21.6064796055
 30
0.0
 40
8.194477422517107
100
AcDbArc
 50
306.1283517666
 51
332.773113708
  0
ARC
  5
177
330
1F
100
AcDbEntity
  8
0
  6
Continuous
 62
     7
370
    25
100
AcDbCircle
 10
24.0679727713
 20
14.5031957403
 30
0.0
 40
0.6000000000000075
100
AcDbArc
 50
126.1283517666
 51
211.0728793971
  0
ARC
  5
178
330
1F
100
AcDbEntity
  8
0
  6
Continuous
 62
     7
370
    25
100
AcDbCircle
 10
0.0
 20
0.0
 30
0.0
 40
27.50000000001738
100
AcDbArc
 50
28.9271206029
 51
31.0728793971
  0
ARC
  5
179
330
1F
100
AcDbEntity
  8
0
  6
Continuous
 62
     7
370
    25
100
AcDbCircle
 10
24.5941223328
 20
13.5918779674
 30
0.0
 40
0.5999999999999888
100
AcDbArc
 50
208.9271206029
 51
293.8716482334
  0
ARC
  5
17A
330
1F
100
AcDbEntity
  8
0
  6
Continuous
 62
     7
370
    25
100
AcDbCircle
 10
28.153151797
 20
5.5497300946
 30
0.0
 40
8.194477422517187
100
AcDbArc
 50
87.226886292
 51
113.8716482334
  0
ARC
  5
17B
330
1F
100
AcDbEntity
  8
0
  6
Continuous
 62
     7
370
    25
100
AcDbCircle
 10
28.5205807434
 20
13.1353140069
 30
0.0
 40
0.5999999999999712
100
AcDbArc
 50
24.7287000252
 51
87.226886292
  0
ARC
  5
17C
330
1F
100
AcDbEntity
  8
0
  6
Continuous
 62
     7
370
    25
100
AcDbCircle
 10
0.0
 20
0.0
 30
0.0
 40
32.00000000002736
100
AcDbArc
 50
23.2712999748
 51
24.7287000252
  0
ARC
  5
17D
330
1F
100
AcDbEntity
  8
0
  6
Continuous
 62
     7
370
    25
100
AcDbCircle
 10
28.8454341218
 20
12.4056813729
 30
0.0
 40
0.599999999999973
100
AcDbArc
 50
320.773113708
 51
23.2712999748
  0
ARC
  5
17E
330
1F
100
AcDbEntity
  8
0
  6
Continuous
 62
     7
370
    25
100
AcDbCircle
 10
22.9623887354
 20
17.2083748155
 30
0.0
 40
8.194477422517132
100
AcDbArc
 50
294.1283517666
 51
320.773113708
  0
ARC
  5
17F
330
1F
100
AcDbEntity
  8
0
  6
Continuous
 62
     7
370
    25
100
AcDbCircle
 10
26.5574137694
 20
9.1822532029
 30
0.0
 40
0.6000000000000045
100
AcDbArc
 50
114.1283517666
 51
199.0728793971
  0
ARC
  5
180
330
1F
100
AcDbEntity
  8
0
  6
Continuous
 62
     7
370
    25
100
AcDbCircle
 10
-0.0000000001
 20
0.0
 30
0.0
 40
27.50000000005982
100
AcDbArc
 50
16.9271206029
 51
19.0728793971
  0
ARC
  5
181
330
1F
100
AcDbEntity
  8
0
  6
Continuous
 62
     7
370
    25
100
AcDbCircle
 10
26.8825920815
 20
8.1814572649
 30
0.0
 40
0.5999999999999935
100
AcDbArc
 50
196.9271206029
 51
281.8716482334
  0
ARC
  5
182
330
1F
100
AcDbEntity
  8
0
  6
Continuous
 62
     7
370
    25
100
AcDbCircle
 10
28.6917916509
 20
-0.4249142152
 30
0.0
 40
8.19447742251718
100
AcDbArc
 50
75.226886292
 51
101.8716482334
  0
ARC
  5
183
330
1F
100
AcDbEntity
  8
0
  6
Continuous
 62
     7
370
    25
100
AcDbCircle
 10
30.6283229703
 20
6.9185137153
 30
0.0
 40
0.5999999999999511
100
AcDbArc
 50
12.7287000252
 51
75.226886292
  0
ARC
  5
184
330
1F
100
AcDbEntity
  8
0
  6
Continuous
 62
     7
370
    25
100
AcDbCircle
 10
0.0
 20
0.0
 30
0.0
 40
32.00000000003174
100
AcDbArc
 50
11.2712999748
 51
12.7287000252
  0
ARC
  5
185
330
1F
100
AcDbEntity
  8
0
  6
Continuous
 62
     7
370
    25
100
AcDbCircle
 10
30.7943783683
 20
6.1372844897
 30
0.0
 40
0.6000000000000363
100
AcDbArc
 50
308.773113708
 51
11.2712999748
  0
ARC
  5
186
330
1F
100
AcDbEntity
  8
0
  6
Continuous
 62
     7
370
    25
100
AcDbCircle
 10
26.0384277528
 20
12.0581814711
 30
0.0
 40
8.194477422517194
100
AcDbArc
 50
282.1283517666
 51
308.773113708
  0
ARC
  5
187
330
1F
100
AcDbEntity
  8
0
  6
Continuous
 62
     7
370
    25
100
AcDbCircle
 10
27.8861683491
 20
3.4600021392
 30
0.0
 40
0.6000000000000011
100
AcDbArc
 50
102.1283517666
 51
187.0728793971
  0
ARC
  5
188
330
1F
100
AcDbEntity
  8
0
  6
Continuous
 62
     7
370
    25
100
AcDbCircle
 10
0.0
 20
0.0
 30
0.0
 40
27.5000000000443
100
AcDbArc
 50
4.9271206029
 51
7.0728793971
  0
ARC
  5
189
330
1F
100
AcDbEntity
  8
0
  6
Continuous
 62
     7
370
    25
100
AcDbCircle
 10
27.9961635594
 20
2.4134676209
 30
0.0
 40
0.5999999999999965
100
AcDbArc
 50
184.9271206029
 51
269.8716482334
  0
ARC
  5
18A
330
1F
100
AcDbEntity
  8
0
  6
Continuous
 62
     7
370
    25
100
AcDbCircle
 10
27.9764625311
 20
-6.3809877348
 30
0.0
 40
8.194477422517142
100
AcDbArc
 50
63.226886292
 51
89.8716482334
  0
ARC
  5
18B
330
1F
100
AcDbEntity
  8
0
  6
Continuous
 62
     7
370
    25
100
AcDbCircle
 10
31.3974605124
 20
0.3993411756
 30
0.0
 40
0.6000000000000054
100
AcDbArc
 50
0.7287000252
 51
63.226886292
  0
ARC
  5
18C
330
1F
100
AcDbEntity
  8
0
  6
Continuous
 62
     7
370
    25
100
AcDbCircle
 10
0.0
 20
0.0
 30
0.0
 40
32.0000000000277
100
AcDbArc
 50
359.2712999748
 51
0.7287000252
  0
ARC
  5
18D
330
1F
100
AcDbEntity
  8
0
  6
Continuous
 62
     7
370
    25
100
AcDbCircle
 10
31.3974605124
 20
-0.3993411756
 30
0.0
 40
0.6000000000000336
100
AcDbArc
 50
296.773113708
 51
359.2712999748
  0
ARC
  5
18E
330
1F
100
AcDbEntity
  8
0
  6
Continuous
 62
     7
370
    25
100
AcDbCircle
 10
27.9764625311
 20
6.3809877348
 30
0.0
 40
8.19447742251719
100
AcDbArc
 50
270.1283517666
 51
296.773113708
  0
ARC
  5
18F
330
1F
100
AcDbEntity
  8
0
  6
Continuous
 62
     7
370
    25
100
AcDbCircle
 10
27.9961635594
 20
-2.4134676209
 30
0.0
 40
0.5999999999999996
100
AcDbArc
 50
90.1283517666
 51
175.0728793971
  0
ARC
  5
190
330
1F
100
AcDbEntity
  8
0
  6
Continuous
 62
     7
370
    25
100
AcDbCircle
 10
-0.0000000001
 20
0.0
 30
0.0
 40
27.50000000005348
100
AcDbArc
 50
352.9271206029
 51
355.0728793971
  0
ARC
  5
191
330
1F
100
AcDbEntity
  8
0
  6
Continuous
 62
     7
370
    25
100
AcDbCircle
 10
27.8861683491
 20
-3.4600021392
 30
0.0
 40
0.5999999999999929
100
AcDbArc
 50
172.9271206029
 51
257.8716482334
  0
ARC
  5
192
330
1F
100
AcDbEntity
  8
0
  6
Continuous
 62
     7
370
    25
100
AcDbCircle
 10
26.0384277528
 20
-12.0581814711
 30
0.0
 40
8.19447742251715
100
AcDbArc
 50
51.226886292
 51
77.8716482334
  0
ARC
  5
193
330
1F
100
AcDbEntity
  8
0
  6
Continuous
 62
     7
370
    25
100
AcDbCircle
 10
30.7943783683
 20
-6.1372844897
 30
0.0
 40
0.5999999999999518
100
AcDbArc
 50
348.7287000252
 51
51.226886292
  0
ARC
  5
194
330
1F
100
AcDbEntity
  8
0
  6
Continuous
 62
     7
370
    25
100
AcDbCircle
 10
0.0
 20
0.0
 30
0.0
 40
32.00000000000368
100
AcDbArc
 50
347.2712999748
 51
348.7287000252
  0
ARC
  5
195
330
1F
100
AcDbEntity
  8
0
  6
Continuous
 62
     7
370
    25
100
AcDbCircle
 10
30.6283229703
 20
-6.9185137153
 30
0.0
 40
0.6000000000000238
100
AcDbArc
 50
284.773113708
 51
347.2712999748
  0
ARC
  5
196
330
1F
100
AcDbEntity
  8
0
  6
Continuous
 62
     7
370
    25
100
AcDbCircle
 10
28.6917916509
 20
0.4249142152
 30
0.0
 40
8.194477422517162
100
AcDbArc
 50
258.1283517666
 51
284.773113708
  0
ARC
  5
197
330
1F
100
AcDbEntity
  8
0
  6
Continuous
 62
     7
370
    25
100
AcDbCircle
 10
26.8825920815
 20
-8.1814572649
 30
0.0
 40
0.599999999999998
100
AcDbArc
 50
78.1283517666
 51
163.0728793971
  0
ARC
  5
198
330
1F
100
AcDbEntity
  8
0
  6
Continuous
 62
     7
370
    25
100
AcDbCircle
 10
-0.0000000001
 20
0.0
 30
0.0
 40
27.50000000006249
100
AcDbArc
 50
340.9271206029
 51
343.0728793971
  0
ARC
  5
199
330
1F
100
AcDbEntity
  8
0
  6
Continuous
 62
     7
370
    25
100
AcDbCircle
 10
26.5574137694
 20
-9.1822532029
 30
0.0
 40
0.599999999999998
100
AcDbArc
 50
160.9271206029
 51
245.8716482334
  0
ARC
  5
19A
330
1F
100
AcDbEntity
  8
0
  6
Continuous
 62
     7
370
    25
100
AcDbCircle
 10
22.9623887354
 20
-17.2083748155
 30
0.0
 40
8.194477422517194
100
AcDbArc
 50
39.226886292
 51
65.8716482334
  0
ARC
  5
19B
330
1F
100
AcDbEntity
  8
0
  6
Continuous
 62
     7
370
    25
100
AcDbCircle
 10
28.8454341218
 20
-12.4056813729
 30
0.0
 40
0.5999999999999518
100
AcDbArc
 50
336.7287000252
 51
39.226886292
  0
ARC
  5
19C
330
1F
100
AcDbEntity
  8
0
  6
Continuous
 62
     7
370
    25
100
AcDbCircle
 10
-0.0000000001
 20
0.0
 30
0.0
 40
32.00000000006042
100
AcDbArc
 50
335.2712999748
 51
336.7287000252
  0
ARC
  5
19D
330
1F
100
AcDbEntity
  8
0
  6
Continuous
 62
     7
370
    25
100
AcDbCircle
 10
28.5205807434
 20
-13.1353140069
 30
0.0
 40
0.6000000000000578
100
AcDbArc
 50
272.773113708
 51
335.2712999748
  0
ARC
  5
19E
330
1F
100
AcDbEntity
  8
0
  6
Continuous
 62
     7
370
    25
100
AcDbCircle
 10
28.153151797
 20
-5.5497300946
 30
0.0
 40
8.194477422517203
100
AcDbArc
 50
246.1283517666
 51
272.773113708
  0
ARC
  5
19F
330
1F
100
AcDbEntity
  8
0
  6
Continuous
 62
     7
370
    25
100
AcDbCircle
 10
24.5941223328
 20
-13.5918779674
 30
0.0
 40
0.6000000000000028
100
AcDbArc
 50
66.1283517666
 51
151.0728793971
  0
ARC
  5
1A0
330
1F
100
AcDbEntity
  8
0
  6
Continuous
 62
     7
370
    25
100
AcDbCircle
 10
0.0
 20
0.0
 30
0.0
 40
27.50000000005378
100
AcDbArc
 50
328.9271206029
 51
331.0728793971
  0
ARC
  5
1A1
330
1F
100
AcDbEntity
  8
0
  6
Continuous
 62
     7
370
    25
100
AcDbCircle
 10
24.0679727713
 20
-14.5031957403
 30
0.0
 40
0.5999999999999942
100
AcDbArc
 50
148.9271206029
 51
233.8716482334
  0
ARC
  5
1A2
330
1F
100
AcDbEntity
  8
0
  6
Continuous
 62
     7
370
    25
100
AcDbCircle
 10
18.8827831446
 20
-21.6064796055
 30
0.0
 40
8.194477422517249
100
AcDbArc
 50
27.226886292
 51
53.8716482334
  0
ARC
  5
1A3
330
1F
100
AcDbEntity
  8
0
  6
Continuous
 62
     7
370
    25
100
AcDbCircle
 10
25.6358059884
 20
-18.131890451
 30
0.0
 40
0.599999999999973
100
AcDbArc
 50
324.7287000252
 51
27.226886292
  0
ARC
  5
1A4
330
1F
100
AcDbEntity
  8
0
  6
Continuous
 62
     7
370
    25
100
AcDbCircle
 10
0.0
 20
0.0
 30
0.0
 40
32.0000000000308
100
AcDbArc
 50
323.2712999748
 51
324.7287000252
  0
ARC
  5
1A5
330
1F
100
AcDbEntity
  8
0
  6
Continuous
 62
     7
370
    25
100
AcDbCircle
 10
25.1663522811
 20
-18.7780380462
 30
0.0
 40
0.6000000000000353
100
AcDbArc
 50
260.773113708
 51
323.2712999748
  0
ARC
  5
1A6
330
1F
100
AcDbEntity
  8
0
  6
Continuous
 62
     7
370
    25
100
AcDbCircle
 10
26.3840841158
 20
-11.2818245687
 30
0.0
 40
8.194477422517094
100
AcDbArc
 50
234.1283517666
 51
260.773113708
  0
ARC
  5
1A7
330
1F
100
AcDbEntity
  8
0
  6
Continuous
 62
     7
370
    25
100
AcDbCircle
 10
21.2307714224
 20
-18.4082683817
 30
0.0
 40
0.6000000000000104
100
AcDbArc
 50
54.1283517666
 51
139.0728793971
  0
ARC
  5
1A8
330
1F
100
AcDbEntity
  8
0
  6
Continuous
 62
     7
370
    25
100
AcDbCircle
 10
0.0
 20
0.0
 30
0.0
 40
27.50000000005634
100
AcDbArc
 50
316.9271206029
 51
319.0728793971
  0
ARC
  5
1A9
330
1F
100
AcDbEntity
  8
0
  6
Continuous
 62
     7
370
    25
100
AcDbCircle
 10
20.5266458721
 20
-19.1902790297
 30
0.0
 40
0.5999999999999953
100
AcDbArc
 50
136.9271206029
 51
221.8716482334
  0
ARC
  5
1AA
330
1F
100
AcDbEntity
  8
0
  6
Continuous
 62
     7
370
    25
100
AcDbCircle
 10
13.9779093206
 20
-25.0602775574
 30
0.0
 40
8.194477422517124
100
AcDbArc
 50
15.226886292
 51
41.8716482334
  0
ARC
  5
1AB
330
1F
100
AcDbEntity
  8
0
  6
Continuous
 62
     7
370
    25
100
AcDbCircle
 10
21.305770119
 20
-23.0656489099
 30
0.0
 40
0.5999999999999632
100
AcDbArc
 50
312.7287000252
 51
15.226886292
  0
ARC
  5
1AC
330
1F
100
AcDbEntity
  8
0
  6
Continuous
 62
     7
370
    25
100
AcDbCircle
 10
0.0
 20
0.0
 30
0.0
 40
32.00000000000693
100
AcDbArc
 50
311.2712999748
 51
312.7287000252
  0
ARC
  5
1AD
330
1F
100
AcDbEntity
  8
0
  6
Continuous
 62
     7
370
    25
100
AcDbCircle
 10
20.7122334625
 20
-23.6000717159
 30
0.0
 40
0.6000000000000196
100
AcDbArc
 50
248.773113708
 51
311.2712999748
  0
ARC
  5
1AE
330
1F
100
AcDbEntity
  8
0
  6
Continuous
 62
     7
370
    25
100
AcDbCircle
 10
23.4619053538
 20
-16.520849173
 30
0.0
 40
8.194477422517142
100
AcDbArc
 50
222.1283517666
 51
248.773113708
  0
ARC
  5
1AF
330
1F
100
AcDbEntity
  8
0
  6
Continuous
 62
     7
370
    25
100
AcDbCircle
 10
16.9395339243
 20
-22.420129135
 30
0.0
 40
0.6000000000000097
100
AcDbArc
 50
42.1283517666
 51
127.0728793971
  0
ARC
  5
1B0
330
1F
100
AcDbEntity
  8
0
  6
Continuous
 62
     7
370
    25
100
AcDbCircle
 10
0.0
 20
0.0000000001
 30
0.0
 40
27.50000000006479
100
AcDbArc
 50
304.9271206029
 51
307.0728793971
  0
ARC
  5
1B1
330
1F
100
AcDbEntity
  8
0
  6
Continuous
 62
     7
370
    25
100
AcDbCircle
 10
16.0882060506
 20
-23.0386550405
 30
0.0
 40
0.6000000000000002
100
AcDbArc
 50
124.9271206029
 51
209.8716482334
  0
ARC
  5
1B2
330
1F
100
AcDbEntity
  8
0
  6
Continuous
 62
     7
370
    25
100
AcDbCircle
 10
8.462133786
 20
-27.4188211274
 30
0.0
 40
8.194477422517188
100
AcDbArc
 50
3.226886292
 51
29.8716482334
  0
ARC
  5
1B3
330
1F
100
AcDbEntity
  8
0
  6
Continuous
 62
     7
370
    25
100
AcDbCircle
 10
16.044569859
 20
-26.9913278302
 30
0.0
 40
0.6000000000000287
100
AcDbArc
 50
300.7287000252
 51
3.226886292
  0
ARC
  5
1B4
330
1F
100
AcDbEntity
  8
0
  6
Continuous
 62
     7
370
    25
100
AcDbCircle
 10
0.0
 20
0.0
 30
0.0
 40
32.00000000000956
100
AcDbArc
 50
299.2712999748
 51
300.7287000252
  0
ARC
  5
1B5
330
1F
100
AcDbEntity
  8
0
  6
Continuous
 62
     7
370
    25
100
AcDbCircle
 10
15.3528906534
 20
-27.3906690058
 30
0.0
 40
0.6000000000000345
100
AcDbArc
 50
236.773113708
 51
299.2712999748
  0
ARC
  5
1B6
330
1F
100
AcDbEntity
  8
0
  6
Continuous
 62
     7
370
    25
100
AcDbCircle
 10
19.5143287452
 20
-21.0378333926
 30
0.0
 40
8.194477422517194
100
AcDbArc
 50
210.1283517666
 51
236.773113708
  0
ARC
  5
1B7
330
1F
100
AcDbEntity
  8
0
  6
Continuous
 62
     7
370
    25
100
AcDbCircle
 10
11.9079575087
 20
-25.4521226614
 30
0.0
 40
0.5999999999999991
100
AcDbArc
 50
30.1283517666
 51
115.0728793971
  0
ARC
  5
1B8
330
1F
100
AcDbEntity
  8
0
  6
Continuous
 62
     7
370
    25
100
AcDbCircle
 10
0.0
 20
0.0
 30
0.0
 40
27.50000000004847
100
AcDbArc
 50
292.9271206029
 51
295.0728793971
  0
ARC
  5
1B9
330
1F
100
AcDbEntity
  8
0
  6
Continuous
 62
     7
370
    25
100
AcDbCircle
 10
10.9466344249
 20
-25.8801312742
 30
0.0
 40
0.5999999999999929
100
AcDbArc
 50
112.9271206029
 51
197.8716482334
  0
ARC
  5
1BA
330
1F
100
AcDbEntity
  8
0
  6
Continuous
 62
     7
370
    25
100
AcDbCircle
 10
2.576522399
 20
-28.5790306441
 30
0.0
 40
8.1944774225171
100
AcDbArc
 50
351.226886292
 51
17.8716482334
  0
ARC
  5
1BB
330
1F
100
AcDbEntity
  8
0
  6
Continuous
 62
     7
370
    25
100
AcDbCircle
 10
10.0821449058
 20
-29.7373562056
 30
0.0
 40
0.5999999999999724
100
AcDbArc
 50
288.7287000252
 51
351.226886292
  0
ARC
  5
1BC
330
1F
100
AcDbEntity
  8
0
  6
Continuous
 62
     7
370
    25
100
AcDbCircle
 10
0.0
 20
0.0000000001
 30
0.0
 40
32.00000000006612
100
AcDbArc
 50
287.2712999748
 51
288.7287000252
  0
ARC
  5
1BD
330
1F
100
AcDbEntity
  8
0
  6
Continuous
 62
     7
370
    25
100
AcDbCircle
 10
9.3225528513
 20
-29.9841626252
 30
0.0
 40
0.6000000000000498
100
AcDbArc
 50
224.773113708
 51
287.2712999748
  0
ARC
  5
1BE
330
1F
100
AcDbEntity
  8
0
  6
Continuous
 62
     7
370
    25
100
AcDbCircle
 10
14.7138823302
 20
-24.6353633422
 30
0.0
 40
8.194477422517158
100
AcDbArc
 50
198.1283517666
 51
224.773113708
  0
ARC
  5
1BF
330
1F
100
AcDbEntity
  8
0
  6
Continuous
 62
     7
370
    25
100
AcDbCircle
 10
6.3559462094
 20
-27.3717362946
 30
0.0
 40
0.6000000000000011
100
AcDbArc
 50
18.1283517666
 51
103.0728793971
  0
ARC
  5
1C0
330
1F
100
AcDbEntity
  8
0
  6
Continuous
 62
     7
370
    25
100
AcDbCircle
 10
0.0
 20
0.0
 30
0.0
 40
27.50000000004614
100
AcDbArc
 50
280.9271206029
 51
283.0728793971
  0
ARC
  5
1C1
330
1F
100
AcDbEntity
  8
0
  6
Continuous
 62
     7
370
    25
100
AcDbCircle
 10
5.326642347
 20
-27.5905215845
 30
0.0
 40
0.59999999999999
100
AcDbArc
 50
100.9271206029
 51
185.8716482334
  0
ARC
  5
1C2
330
1F
100
AcDbEntity
  8
0
  6
Continuous
 62
     7
370
    25
100
AcDbCircle
 10
-3.4216953803
 20
-28.4901993842
 30
0.0
 40
8.194477422517203
100
AcDbArc
 50
339.226886292
 51
5.8716482334
  0
ARC
  5
1C3
330
1F
100
AcDbEntity
  8
0
  6
Continuous
 62
     7
370
    25
100
AcDbCircle
 10
3.6790818407
 20
-31.1837194191
 30
0.0
 40
0.5999999999999468
100
AcDbArc
 50
276.7287000252
 51
339.226886292
  0
ARC
  5
1C4
330
1F
100
AcDbEntity
  8
0
  6
Continuous
 62
     7
370
    25
100
AcDbCircle
 10
0.0
 20
0.0
 30
0.0
 40
32.00000000001444
100
AcDbArc
 50
275.2712999748
 51
276.7287000252
  0
ARC
  5
1C5
330
1F
100
AcDbEntity
  8
0
  6
Continuous
 62
     7
370
    25
100
AcDbCircle
 10
2.884774755
 20
-31.2672044579
 30
0.0
 40
0.6000000000000322
100
AcDbArc
 50
212.773113708
 51
275.2712999748
  0
ARC
  5
1C6
330
1F
100
AcDbEntity
  8
0
  6
Continuous
 62
     7
370
    25
100
AcDbCircle
 10
9.2703686524
 20
-27.1562097001
 30
0.0
 40
8.194477422517185
100
AcDbArc
 50
186.1283517666
 51
212.773113708
  0
ARC
  5
1C7
330
1F
100
AcDbEntity
  8
0
  6
Continuous
 62
     7
370
    25
100
AcDbCircle
 10
0.5261495615
 20
-28.0950737077
 30
0.0
 40
0.6000000000000103
100
AcDbArc
 50
6.1283517666
 51
91.0728793971
  0
ARC
  5
1C8
330
1F
100
AcDbEntity
  8
0
  6
Continuous
 62
     7
370
    25
100
AcDbCircle
 10
0.0
 20
0.0000000001
 30
0.0
 40
27.50000000006428
100
AcDbArc
 50
268.9271206029
 51
271.0728793971
  0
ARC
  5
1C9
330
1F
100
AcDbEntity
  8
0
  6
Continuous
 62
     7
370
    25
100
AcDbCircle
 10
-0.5261495615
 20
-28.0950737077
 30
0.0
 40
0.5999999999999871
100
AcDbArc
 50
88.9271206029
 51
173.8716482334
  0
ARC
  5
1CA
330
1F
100
AcDbEntity
  8
0
  6
Continuous
 62
     7
370
    25
100
AcDbCircle
 10
-9.2703686524
 20
-27.1562097001
 30
0.0
 40
8.194477422517204
100
AcDbArc
 50
327.226886292
 51
353.8716482334
  0
ARC
  5
1CB
330
1F
100
AcDbEntity
  8
0
  6
Continuous
 62
     7
370
    25
100
AcDbCircle
 10
-2.884774755
 20
-31.2672044579
 30
0.0
 40
0.5999999999999639
100
AcDbArc
 50
264.7287000252
 51
327.226886292
  0
ARC
  5
1CC
330
1F
100
AcDbEntity
  8
0
  6
Continuous
 62
     7
370
    25
100
AcDbCircle
 10
0.0
 20
0.0
 30
0.0
 40
32.00000000003346
100
AcDbArc
 50
263.2712999748
 51
264.7287000252
  0
ARC
  5
1CD
330
1F
100
AcDbEntity
  8
0
  6
Continuous
 62
     7
370
    25
100
AcDbCircle
 10
-3.6790818407
 20
-31.1837194191
 30
0.0
 40
0.5999999999999965
100
AcDbArc
 50
200.773113708
 51
263.2712999748
  0
ARC
  5
1CE
330
1F
100
AcDbEntity
  8
0
  6
Continuous
 62
     7
370
    25
100
AcDbCircle
 10
3.4216953803
 20
-28.4901993842
 30
0.0
 40
8.194477422517174
100
AcDbArc
 50
174.1283517666
 51
200.773113708
  0
ARC
  5
1CF
330
1F
100
AcDbEntity
  8
0
  6
Continuous
 62
     7
370
    25
100
AcDbCircle
 10
-5.326642347
 20
-27.5905215845
 30
0.0
 40
0.6000000000000011
100
AcDbArc
 50
354.1283517666
 51
79.0728793971
  0
ARC
  5
1D0
330
1F
100
AcDbEntity
  8
0
  6
Continuous
 62
     7
370
    25
100
AcDbCircle
 10
0.0
 20
0.0
 30
0.0
 40
27.50000000003796
100
AcDbArc
 50
256.9271206029
 51
259.0728793971
  0
ARC
  5
1D1
330
1F
100
AcDbEntity
  8
0
  6
Continuous
 62
     7
370
    25
100
AcDbCircle
 10
-6.3559462094
 20
-27.3717362946
 30
0.0
 40
0.5999999999999979
100
AcDbArc
 50
76.9271206029
 51
161.8716482334
  0
ARC
  5
1D2
330
1F
100
AcDbEntity
  8
0
  6
Continuous
 62
     7
370
    25
100
AcDbCircle
 10
-14.7138823302
 20
-24.6353633422
 30
0.0
 40
8.19447742251715
100
AcDbArc
 50
315.226886292
 51
341.8716482334
  0
ARC
  5
1D3
330
1F
100
AcDbEntity
  8
0
  6
Continuous
 62
     7
370
    25
100
AcDbCircle
 10
-9.3225528513
 20
-29.9841626252
 30
0.0
 40
0.5999999999999538
100
AcDbArc
 50
252.7287000252
 51
315.226886292
  0
ARC
  5
1D4
330
1F
100
AcDbEntity
  8
0
  6
Continuous
 62
     7
370
    25
100
AcDbCircle
 10
0.0
 20
0.0
 30
0.0
 40
32.00000000002651
100
AcDbArc
 50
251.2712999748
 51
252.7287000252
  0
ARC
  5
1D5
330
1F
100
AcDbEntity
  8
0
  6
Continuous
 62
     7
370
    25
100
AcDbCircle
 10
-10.0821449058
 20
-29.7373562056
 30
0.0
 40
0.5999999999999971
100
AcDbArc
 50
188.773113708
 51
251.2712999748
  0
ARC
  5
1D6
330
1F
100
AcDbEntity
  8
0
  6
Continuous
 62
     7
370
    25
100
AcDbCircle
 10
-2.576522399
 20
-28.5790306441
 30
0.0
 40
8.19447742251722
100
AcDbArc
 50
162.1283517666
 51
188.773113708
  0
ARC
  5
1D7
330
1F
100
AcDbEntity
  8
0
  6
Continuous
 62
     7
370
    25
100
AcDbCircle
 10
-10.9466344249
 20
-25.8801312742
 30
0.0
 40
0.6000000000000056
100
AcDbArc
 50
342.1283517666
 51
67.0728793971
  0
ARC
  5
1D8
330
1F
100
AcDbEntity
  8
0
  6
Continuous
 62
     7
370
    25
100
AcDbCircle
 10
0.0
 20
0.0
 30
0.0
 40
27.50000000005219
100
AcDbArc
 50
244.9271206029
 51
247.0728793971
  0
ARC
  5
1D9
330
1F
100
AcDbEntity
  8
0
  6
Continuous
 62
     7
370
    25
100
AcDbCircle
 10
-11.9079575087
 20
-25.4521226614
 30
0.0
 40
0.5999999999999835
100
AcDbArc
 50
64.9271206029
 51
149.8716482334
  0
ARC
  5
1DA
330
1F
100
AcDbEntity
  8
0
  6
Continuous
 62
     7
370
    25
100
AcDbCircle
 10
-19.5143287452
 20
-21.0378333926
 30
0.0
 40
8.194477422517139
100
AcDbArc
 50
303.226886292
 51
329.8716482334
  0
ARC
  5
1DB
330
1F
100
AcDbEntity
  8
0
  6
Continuous
 62
     7
370
    25
100
AcDbCircle
 10
-15.3528906534
 20
-27.3906690058
 30
0.0
 40
0.5999999999999619
100
AcDbArc
 50
240.7287000252
 51
303.226886292
  0
ARC
  5
1DC
330
1F
100
AcDbEntity
  8
0
  6
Continuous
 62
     7
370
    25
100
AcDbCircle
 10
0.0
 20
0.0000000001
 30
0.0
 40
32.00000000006801
100
AcDbArc
 50
239.2712999748
 51
240.7287000252
  0
ARC
  5
1DD
330
1F
100
AcDbEntity
  8
0
  6
Continuous
 62
     7
370
    25
100
AcDbCircle
 10
-16.044569859
 20
-26.9913278302
 30
0.0
 40
0.6000000000000613
100
AcDbArc
 50
176.773113708
 51
239.2712999748
  0
ARC
  5
1DE
330
1F
100
AcDbEntity
  8
0
  6
Continuous
 62
     7
370
    25
100
AcDbCircle
 10
-8.462133786
 20
-27.4188211274
 30
0.0
 40
8.194477422517279
100
AcDbArc
 50
150.1283517666
 51
176.773113708
  0
ARC
  5
1DF
330
1F
100
AcDbEntity
  8
0
  6
Continuous
 62
     7
370
    25
100
AcDbCircle
 10
-16.0882060506
 20
-23.0386550405
 30
0.0
 40
0.6000000000000093
100
AcDbArc
 50
330.1283517666
 51
55.0728793971
  0
ARC
  5
1E0
330
1F
100
AcDbEntity
  8
0
  6
Continuous
 62
     7
370
    25
100
AcDbCircle
 10
0.0
 20
0.0
 30
0.0
 40
27.50000000003726
100
AcDbArc
 50
232.9271206029
 51
235.0728793971
  0
ARC
  5
1E1
330
1F
100
AcDbEntity
  8
0
  6
Continuous
 62
     7
370
    25
100
AcDbCircle
 10
-16.9395339243
 20
-22.420129135
 30
0.0
 40
0.5999999999999949
100
AcDbArc
 50
52.9271206029
 51
137.8716482334
  0
ARC
  5
1E2
330
1F
100
AcDbEntity
  8
0
  6
Continuous
 62
     7
370
    25
100
AcDbCircle
 10
-23.4619053538
 20
-16.520849173
 30
0.0
 40
8.194477422517155
100
AcDbArc
 50
291.226886292
 51
317.8716482334
  0
ARC
  5
1E3
330
1F
100
AcDbEntity
  8
0
  6
Continuous
 62
     7
370
    25
100
AcDbCircle
 10
-20.7122334625
 20
-23.6000717159
 30
0.0
 40
0.5999999999999489
100
AcDbArc
 50
228.7287000252
 51
291.226886292
  0
ARC
  5
1E4
330
1F
100
AcDbEntity
  8
0
  6
Continuous
 62
     7
370
    25
100
AcDbCircle
 10
0.0
 20
0.0
 30
0.0
 40
32.00000000004889
100
AcDbArc
 50
227.2712999748
 51
228.7287000252
  0
ARC
  5
1E5
330
1F
100
AcDbEntity
  8
0
  6
Continuous
 62
     7
370
    25
100
AcDbCircle
 10
-21.305770119
 20
-23.0656489099
 30
0.0
 40
0.6000000000000355
100
AcDbArc
 50
164.773113708
 51
227.2712999748
  0
ARC
  5
1E6
330
1F
100
AcDbEntity
  8
0
  6
Continuous
 62
     7
370
    25
100
AcDbCircle
 10
-13.9779093206
 20
-25.0602775574
 30
0.0
 40
8.194477422517291
100
AcDbArc
 50
138.1283517666
 51
164.773113708
  0
ARC
  5
1E7
330
1F
100
AcDbEntity
  8
0
  6
Continuous
 62
     7
370
    25
100
AcDbCircle
 10
-20.5266458721
 20
-19.1902790297
 30
0.0
 40
0.6000000000000104
100
AcDbArc
 50
318.1283517666
 51
43.0728793971
  0
ARC
  5
1E8
330
1F
100
AcDbEntity
  8
0
  6
Continuous
 62
     7
370
    25
100
AcDbCircle
 10
0.0
 20
0.0
 30
0.0
 40
27.50000000005465
100
AcDbArc
 50
220.9271206029
 51
223.0728793971
  0
ARC
  5
1E9
330
1F
100
AcDbEntity
  8
0
  6
Continuous
 62
     7
370
    25
100
AcDbCircle
 10
-21.2307714224
 20
-18.4082683817
 30
0.0
 40
0.5999999999999934
100
AcDbArc
 50
40.9271206029
 51
125.8716482334
  0
ARC
  5
1EA
330
1F
100
AcDbEntity
  8
0
  6
Continuous
 62
     7
370
    25
100
AcDbCircle
 10
-26.3840841158
 20
-11.2818245687
 30
0.0
 40
8.194477422517261
100
AcDbArc
 50
279.226886292
 51
305.8716482334
  0
ARC
  5
1EB
330
1F
100
AcDbEntity
  8
0
  6
Continuous
 62
     7
370
    25
100
AcDbCircle
 10
-25.1663522811
 20
-18.7780380462
 30
0.0
 40
0.6000000000000112
100
AcDbArc
 50
216.7287000252
 51
279.226886292
  0
ARC
  5
1EC
330
1F
100
AcDbEntity
  8
0
  6
Continuous
 62
     7
370
    25
100
AcDbCircle
 10
0.0
 20
0.0
 30
0.0
 40
32.0000000000514
100
AcDbArc
 50
215.2712999748
 51
216.7287000252
  0
ARC
  5
1ED
330
1F
100
AcDbEntity
  8
0
  6
Continuous
 62
     7
370
    25
100
AcDbCircle
 10
-25.6358059884
 20
-18.131890451
 30
0.0
 40
0.599999999999972
100
AcDbArc
 50
152.773113708
 51
215.2712999748
  0
ARC
  5
1EE
330
1F
100
AcDbEntity
  8
0
  6
Continuous
 62
     7
370
    25
100
AcDbCircle
 10
-18.8827831446
 20
-21.6064796055
 30
0.0
 40
8.194477422517064
100
AcDbArc
 50
126.1283517666
 51
152.773113708
  0
ARC
  5
1EF
330
1F
100
AcDbEntity
  8
0
  6
Continuous
 62
     7
370
    25
100
AcDbCircle
 10
-24.0679727713
 20
-14.5031957403
 30
0.0
 40
0.6000000000000111
100
AcDbArc
 50
306.1283517666
 51
31.0728793971
  0
ARC
  5
1F0
330
1F
100
AcDbEntity
  8
0
  6
Continuous
 62
     7
370
    25
100
AcDbCircle
 10
0.0
 20
0.0
 30
0.0
 40
27.50000000004174
100
AcDbArc
 50
208.9271206029
 51
211.0728793971
  0
ARC
  5
1F1
330
1F
100
AcDbEntity
  8
0
  6
Continuous
 62
     7
370
    25
100
AcDbCircle
 10
-24.5941223328
 20
-13.5918779674
 30
0.0
 40
0.6000000000000056
100
AcDbArc
 50
28.9271206029
 51
113.8716482334
  0
ARC
  5
1F2
330
1F
100
AcDbEntity
  8
0
  6
Continuous
 62
     7
370
    25
100
AcDbCircle
 10
-28.153151797
 20
-5.5497300946
 30
0.0
 40
8.19447742251718
100
AcDbArc
 50
267.226886292
 51
293.8716482334
  0
ARC
  5
1F3
330
1F
100
AcDbEntity
  8
0
  6
Continuous
 62
     7
370
    25
100
AcDbCircle
 10
-28.5205807434
 20
-13.1353140069
 30
0.0
 40
0.6000000000000265
100
AcDbArc
 50
204.7287000252
 51
267.226886292
  0
ARC
  5
1F4
330
1F
100
AcDbEntity
  8
0
  6
Continuous
 62
     7
370
    25
100
AcDbCircle
 10
0.0
 20
0.0
 30
0.0
 40
31.99999999999989
100
AcDbArc
 50
203.2712999748
 51
204.7287000252
  0
ARC
  5
1F5
330
1F
100
AcDbEntity
  8
0
  6
Continuous
 62
     7
370
    25
100
AcDbCircle
 10
-28.8454341218
 20
-12.4056813729
 30
0.0
 40
0.6000000000000323
100
AcDbArc
 50
140.773113708
 51
203.2712999748
  0
ARC
  5
1F6
330
1F
100
AcDbEntity
  8
0
  6
Continuous
 62
     7
370
    25
100
AcDbCircle
 10
-22.9623887354
 20
-17.2083748155
 30
0.0
 40
8.194477422517162
100
AcDbArc
 50
114.1283517666
 51
140.773113708
  0
ARC
  5
1F7
330
1F
100
AcDbEntity
  8
0
  6
Continuous
 62
     7
370
    25
100
AcDbCircle
 10
-26.5574137694
 20
-9.1822532029
 30
0.0
 40
0.6000000000000062
100
AcDbArc
 50
294.1283517666
 51
19.0728793971
  0
ARC
  5
1F8
330
1F
100
AcDbEntity
  8
0
  6
Continuous
 62
     7
370
    25
100
AcDbCircle
 10
0.0
 20
0.0
 30
0.0
 40
27.50000000003525
100
AcDbArc
 50
196.9271206029
 51
199.0728793971
  0
ARC
  5
1F9
330
1F
100
AcDbEntity
  8
0
  6
Continuous
 62
     7
370
    25
100
AcDbCircle
 10
-26.8825920815
 20
-8.1814572649
 30
0.0
 40
0.5999999999999833
100
AcDbArc
 50
16.9271206029
 51
101.8716482334
  0
ARC
  5
1FA
330
1F
100
AcDbEntity
  8
0
  6
Continuous
 62
     7
370
    25
100
AcDbCircle
 10
-28.6917916509
 20
0.4249142152
 30
0.0
 40
8.194477422517156
100
AcDbArc
 50
255.226886292
 51
281.8716482334
  0
ARC
  5
1FB
330
1F
100
AcDbEntity
  8
0
  6
Continuous
 62
     7
370
    25
100
AcDbCircle
 10
-30.6283229703
 20
-6.9185137153
 30
0.0
 40
0.5999999999999485
100
AcDbArc
 50
192.7287000252
 51
255.226886292
  0
ARC
  5
1FC
330
1F
100
AcDbEntity
  8
0
  6
Continuous
 62
     7
370
    25
100
AcDbCircle
 10
0.0
 20
0.0
 30
0.0
 40
31.99999999998034
100
AcDbArc
 50
191.2712999748
 51
192.7287000252
  0
ARC
  5
1FD
330
1F
100
AcDbEntity
  8
0
  6
Continuous
 62
     7
370
    25
100
AcDbCircle
 10
-30.7943783683
 20
-6.1372844897
 30
0.0
 40
0.6000000000000308
100
AcDbArc
 50
128.773113708
 51
191.2712999748
  0
ARC
  5
1FE
330
1F
100
AcDbEntity
  8
0
  6
Continuous
 62
     7
370
    25
100
AcDbCircle
 10
-26.0384277528
 20
-12.0581814711
 30
0.0
 40
8.194477422517155
100
AcDbArc
 50
102.1283517666
 51
128.773113708
  0
ARC
  5
1FF
330
1F
100
AcDbEntity
  8
0
  6
Continuous
 62
     7
370
    25
100
AcDbCircle
 10
-27.8861683491
 20
-3.4600021392
 30
0.0
 40
0.6000000000000034
100
AcDbArc
 50
282.1283517666
 51
7.0728793971
  0
ARC
  5
200
330
1F
100
AcDbEntity
  8
0
  6
Continuous
 62
     7
370
    25
100
AcDbCircle
 10
0.0000000001
 20
0.0
 30
0.0
 40
27.50000000006347
100
AcDbArc
 50
184.9271206029
 51
187.0728793971
  0
ARC
  5
201
330
1F
100
AcDbEntity
  8
0
  6
Continuous
 62
     7
370
    25
100
AcDbCircle
 10
-27.9961635594
 20
-2.4134676209
 30
0.0
 40
0.5999999999999996
100
AcDbArc
 50
4.9271206029
 51
89.8716482334
  0
ARC
  5
202
330
1F
100
AcDbEntity
  8
0
  6
Continuous
 62
     7
370
    25
100
AcDbCircle
 10
-27.9764625311
 20
6.3809877348
 30
0.0
 40
8.19447742251718
100
AcDbArc
 50
243.226886292
 51
269.8716482334
  0
ARC
  5
203
330
1F
100
AcDbEntity
  8
0
  6
Continuous
 62
     7
370
    25
100
AcDbCircle
 10
-31.3974605124
 20
-0.3993411756
 30
0.0
 40
0.600000000000006
100
AcDbArc
 50
180.7287000252
 51
243.226886292
  0
ARC
  5
204
330
1F
100
AcDbEntity
  8
0
  6
Continuous
 62
     7
370
    25
100
AcDbCircle
 10
-31.3974605124
 20
0.3993411756
 30
0.0
 40
0.600000000000048
100
AcDbArc
 50
116.773113708
 51
179.2712999748
  0
ARC
  5
205
330
1F
100
AcDbEntity
  8
0
  6
Continuous
 62
     7
370
    25
100
AcDbCircle
 10
-27.9764625311
 20
-6.3809877348
 30
0.0
 40
8.194477422517174
100
AcDbArc
 50
90.1283517666
 51
116.773113708
  0
ARC
  5
206
330
1F
100
AcDbEntity
  8
0
  6
Continuous
 62
     7
370
    25
100
AcDbCircle
 10
-27.9961635594
 20
2.4134676209
 30
0.0
 40
0.600000000000011
100
AcDbArc
 50
270.1283517666
 51
355.0728793971
  0
ARC
  5
207
330
1F
100
AcDbEntity
  8
0
  6
Continuous
 62
     7
370
    25
100
AcDbCircle
 10
0.0000000001
 20
0.0
 30
0.0
 40
27.50000000005311
100
AcDbArc
 50
172.9271206029
 51
175.0728793971
  0
ARC
  5
208
330
1F
100
AcDbEntity
  8
0
  6
Continuous
 62
     7
370
    25
100
AcDbCircle
 10
-27.8861683491
 20
3.4600021392
 30
0.0
 40
0.5999999999999915
100
AcDbArc
 50
352.9271206029
 51
77.8716482334
  0
ARC
  5
209
330
1F
100
AcDbEntity
  8
0
  6
Continuous
 62
     7
370
    25
100
AcDbCircle
 10
-26.0384277528
 20
12.0581814711
 30
0.0
 40
8.194477422517132
100
AcDbArc
 50
231.226886292
 51
257.8716482334
  0
ARC
  5
20A
330
1F
100
AcDbEntity
  8
0
  6
Continuous
 62
     7
370
    25
100
AcDbCircle
 10
-30.7943783683
 20
6.1372844897
 30
0.0
 40
0.6000000000000161
100
AcDbArc
 50
168.7287000252
 51
231.226886292
  0
ARC
  5
20B
330
1F
100
AcDbEntity
  8
0
  6
Continuous
 62
     7
370
    25
100
AcDbCircle
 10
0.0
 20
0.0
 30
0.0
 40
32.00000000003926
100
AcDbArc
 50
167.2712999748
 51
168.7287000252
  0
ARC
  5
20C
330
1F
100
AcDbEntity
  8
0
  6
Continuous
 62
     7
370
    25
100
AcDbCircle
 10
-30.6283229703
 20
6.9185137153
 30
0.0
 40
0.6000000000000366
100
AcDbArc
 50
104.773113708
 51
167.2712999748
  0
ARC
  5
20D
330
1F
100
AcDbEntity
  8
0
  6
Continuous
 62
     7
370
    25
100
AcDbCircle
 10
-28.6917916509
 20
-0.4249142152
 30
0.0
 40
8.194477422517137
100
AcDbArc
 50
78.1283517666
 51
104.773113708
  0
ARC
  5
20E
330
1F
100
AcDbEntity
  8
0
  6
Continuous
 62
     7
370
    25
100
AcDbCircle
 10
-26.8825920815
 20
8.1814572649
 30
0.0
 40
0.6000000000000061
100
AcDbArc
 50
258.1283517666
 51
343.0728793971
  0
ARC
  5
20F
330
1F
100
AcDbEntity
  8
0
  6
Continuous
 62
     7
370
    25
100
AcDbCircle
 10
0.0000000001
 20
0.0
 30
0.0
 40
27.50000000005401
100
AcDbArc
 50
160.9271206029
 51
163.0728793971
  0
ARC
  5
210
330
1F
100
AcDbEntity
  8
0
  6
Continuous
 62
     7
370
    25
100
AcDbCircle
 10
-26.5574137694
 20
9.1822532029
 30
0.0
 40
0.5999999999999878
100
AcDbArc
 50
340.9271206029
 51
65.8716482334
  0
ARC
  5
211
330
1F
100
AcDbEntity
  8
0
  6
Continuous
 62
     7
370
    25
100
AcDbCircle
 10
-22.9623887354
 20
17.2083748155
 30
0.0
 40
8.194477422517185
100
AcDbArc
 50
219.226886292
 51
245.8716482334
  0
ARC
  5
212
330
1F
100
AcDbEntity
  8
0
  6
Continuous
 62
     7
370
    25
100
AcDbCircle
 10
-28.8454341218
 20
12.4056813729
 30
0.0
 40
0.5999999999999237
100
AcDbArc
 50
156.7287000252
 51
219.226886292
  0
ARC
  5
213
330
1F
100
AcDbEntity
  8
0
  6
Continuous
 62
     7
370
    25
100
AcDbCircle
 10
0.0
 20
0.0
 30
0.0
 40
32.00000000000481
100
AcDbArc
 50
155.2712999748
 51
156.7287000252
  0
ARC
  5
214
330
1F
100
AcDbEntity
  8
0
  6
Continuous
 62
     7
370
    25
100
AcDbCircle
 10
-28.5205807434
 20
13.1353140069
 30
0.0
 40
0.6000000000000442
100
AcDbArc
 50
92.773113708
 51
155.2712999748
  0
ARC
  5
215
330
1F
100
AcDbEntity
  8
0
  6
Continuous
 62
     7
370
    25
100
AcDbCircle
 10
-28.153151797
 20
5.5497300946
 30
0.0
 40
8.194477422517169
100
AcDbArc
 50
66.1283517666
 51
92.773113708
  0
ARC
  5
216
330
1F
100
AcDbEntity
  8
0
  6
Continuous
 62
     7
370
    25
100
AcDbCircle
 10
-24.5941223328
 20
13.5918779674
 30
0.0
 40
0.6000000000000014
100
AcDbArc
 50
246.1283517666
 51
331.0728793971
  0
ARC
  5
217
330
1F
100
AcDbEntity
  8
0
  6
Continuous
 62
     7
370
    25
100
AcDbCircle
 10
0.0
 20
0.0
 30
0.0
 40
27.50000000005011
100
AcDbArc
 50
148.9271206029
 51
151.0728793971
  0
ARC
  5
218
330
1F
100
AcDbEntity
  8
0
  6
Continuous
 62
     7
370
    25
100
AcDbCircle
 10
-24.0679727713
 20
14.5031957403
 30
0.0
 40
0.5999999999999891
100
AcDbArc
 50
328.9271206029
 51
53.8716482334
  0
ARC
  5
219
330
1F
100
AcDbEntity
  8
0
  6
Continuous
 62
     7
370
    25
100
AcDbCircle
 10
-18.8827831446
 20
21.6064796055
 30
0.0
 40
8.194477422517073
100
AcDbArc
 50
207.226886292
 51
233.8716482334
  0
ARC
  5
21A
330
1F
100
AcDbEntity
  8
0
  6
Continuous
 62
     7
370
    25
100
AcDbCircle
 10
-25.6358059884
 20
18.131890451
 30
0.0
 40
0.5999999999999462
100
AcDbArc
 50
144.7287000252
 51
207.226886292
  0
ARC
  5
21B
330
1F
100
AcDbEntity
  8
0
  6
Continuous
 62
     7
370
    25
100
AcDbCircle
 10
0.0
 20
0.0
 30
0.0
 40
32.00000000000347
100
AcDbArc
 50
143.2712999748
 51
144.7287000252
  0
ARC
  5
21C
330
1F
100
AcDbEntity
  8
0
  6
Continuous
 62
     7
370
    25
100
AcDbCircle
 10
-25.1663522811
 20
18.7780380462
 30
0.0
 40
0.599999999999995
100
AcDbArc
 50
80.773113708
 51
143.2712999748
  0
ARC
  5
21D
330
1F
100
AcDbEntity
  8
0
  6
Continuous
 62
     7
370
    25
100
AcDbCircle
 10
-26.3840841158
 20
11.2818245687
 30
0.0
 40
8.194477422517126
100
AcDbArc
 50
54.1283517666
 51
80.773113708
  0
ARC
  5
21E
330
1F
100
AcDbEntity
  8
0
  6
Continuous
 62
     7
370
    25
100
AcDbCircle
 10
-21.2307714224
 20
18.4082683817
 30
0.0
 40
0.6000000000000104
100
AcDbArc
 50
234.1283517666
 51
319.0728793971
  0
ARC
  5
21F
330
1F
100
AcDbEntity
  8
0
  6
Continuous
 62
     7
370
    25
100
AcDbCircle
 10
0.0
 20
0.0
 30
0.0
 40
27.50000000006317
100
AcDbArc
 50
136.9271206029
 51
139.0728793971
  0
ARC
  5
220
330
1F
100
AcDbEntity
  8
0
  6
Continuous
 62
     7
370
    25
100
AcDbCircle
 10
-20.5266458721
 20
19.1902790297
 30
0.0
 40
0.6000000000000053
100
AcDbArc
 50
316.9271206029
 51
41.8716482334
  0
ARC
  5
221
330
1F
100
AcDbEntity
  8
0
  6
Continuous
 62
     7
370
    25
100
AcDbCircle
 10
-13.9779093206
 20
25.0602775574
 30
0.0
 40
8.19447742251721
100
AcDbArc
 50
195.226886292
 51
221.8716482334
  0
ARC
  5
222
330
1F
100
AcDbEntity
  8
0
  6
Continuous
 62
     7
370
    25
100
AcDbCircle
 10
-21.305770119
 20
23.0656489099
 30
0.0
 40
0.5999999999999759
100
AcDbArc
 50
132.7287000252
 51
195.226886292
  0
ARC
  5
223
330
1F
100
AcDbEntity
  8
0
  6
Continuous
 62
     7
370
    25
100
AcDbCircle
 10
0.0
 20
0.0
 30
0.0
 40
32.00000000002174
100
AcDbArc
 50
131.2712999748
 51
132.7287000252
  0
ARC
  5
224
330
1F
100
AcDbEntity
  8
0
  6
Continuous
 62
     7
370
    25
100
AcDbCircle
 10
-20.7122334625
 20
23.6000717159
 30
0.0
 40
0.599999999999997
100
AcDbArc
 50
68.773113708
 51
131.2712999748
  0
ARC
  5
225
330
1F
100
AcDbEntity
  8
0
  6
Continuous
 62
     7
370
    25
100
AcDbCircle
 10
-23.4619053538
 20
16.520849173
 30
0.0
 40
8.194477422517092
100
AcDbArc
 50
42.1283517666
 51
68.773113708
  0
ARC
  5
226
330
1F
100
AcDbEntity
  8
0
  6
Continuous
 62
     7
370
    25
100
AcDbCircle
 10
-16.9395339243
 20
22.420129135
 30
0.0
 40
0.6000000000000069
100
AcDbArc
 50
222.1283517666
 51
307.0728793971
  0
ARC
  5
227
330
1F
100
AcDbEntity
  8
0
  6
Continuous
 62
     7
370
    25
100
AcDbCircle
 10
0.0
 20
0.0
 30
0.0
 40
27.50000000005285
100
AcDbArc
 50
124.9271206029
 51
127.0728793971
  0
ARC
  5
228
330
1F
100
AcDbEntity
  8
0
  6
Continuous
 62
     7
370
    25
100
AcDbCircle
 10
-16.0882060506
 20
23.0386550405
 30
0.0
 40
0.5999999999999984
100
AcDbArc
 50
304.9271206029
 51
29.8716482334
  0
ARC
  5
229
330
1F
100
AcDbEntity
  8
0
  6
Continuous
 62
     7
370
    25
100
AcDbCircle
 10
-8.462133786
 20
27.4188211274
 30
0.0
 40
8.194477422517178
100
AcDbArc
 50
183.226886292
 51
209.8716482334
  0
ARC
  5
22A
330
1F
100
AcDbEntity
  8
0
  6
Continuous
 62
     7
370
    25
100
AcDbCircle
 10
-16.044569859
 20
26.9913278302
 30
0.0
 40
0.6000000000000334
100
AcDbArc
 50
120.7287000252
 51
183.226886292
  0
ARC
  5
22B
330
1F
100
AcDbEntity
  8
0
  6
Continuous
 62
     7
370
    25
100
AcDbCircle
 10
0.0
 20
0.0
 30
0.0
 40
32.00000000003995
100
AcDbArc
 50
119.2712999748
 51
120.7287000252
  0
ARC
  5
22C
330
1F
100
AcDbEntity
  8
0
  6
Continuous
 62
     7
370
    25
100
AcDbCircle
 10
-15.3528906534
 20
27.3906690058
 30
0.0
 40
0.6000000000000344
100
AcDbArc
 50
56.773113708
 51
119.2712999748
  0
ARC
  5
22D
330
1F
100
AcDbEntity
  8
0
  6
Continuous
 62
     7
370
    25
100
AcDbCircle
 10
-19.5143287452
 20
21.0378333926
 30
0.0
 40
8.1944774225172
100
AcDbArc
 50
30.1283517666
 51
56.773113708
  0
ARC
  5
22E
330
1F
100
AcDbEntity
  8
0
  6
Continuous
 62
     7
370
    25
100
AcDbCircle
 10
-11.9079575087
 20
25.4521226614
 30
0.0
 40
0.6000000000000066
100
AcDbArc
 50
210.1283517666
 51
295.0728793971
  0
ARC
  5
22F
330
1F
100
AcDbEntity
  8
0
  6
Continuous
 62
     7
370
    25
100
AcDbCircle
 10
0.0
 20
0.0
 30
0.0
 40
27.50000000003366
100
AcDbArc
 50
112.9271206029
 51
115.0728793971
  0
ARC
  5
230
330
1F
100
AcDbEntity
  8
0
  6
Continuous
 62
     7
370
    25
100
AcDbCircle
 10
-10.9466344249
 20
25.8801312742
 30
0.0
 40
0.5999999999999953
100
AcDbArc
 50
292.9271206029
 51
17.8716482334
  0
ARC
  5
231
330
1F
100
AcDbEntity
  8
0
  6
Continuous
 62
     7
370
    25
100
AcDbCircle
 10
-2.576522399
 20
28.5790306441
 30
0.0
 40
8.194477422517174
100
AcDbArc
 50
171.226886292
 51
197.8716482334
  0
ARC
  5
232
330
1F
100
AcDbEntity
  8
0
  6
Continuous
 62
     7
370
    25
100
AcDbCircle
 10
-10.0821449058
 20
29.7373562056
 30
0.0
 40
0.5999999999999412
100
AcDbArc
 50
108.7287000252
 51
171.226886292
  0
ARC
  5
233
330
1F
100
AcDbEntity
  8
0
  6
Continuous
 62
     7
370
    25
100
AcDbCircle
 10
0.0
 20
0.0
 30
0.0
 40
32.00000000000052
100
AcDbArc
 50
107.2712999748
 51
108.7287000252
  0
ARC
  5
234
330
1F
100
AcDbEntity
  8
0
  6
Continuous
 62
     7
370
    25
100
AcDbCircle
 10
-9.3225528513
 20
29.9841626252
 30
0.0
 40
0.600000000000023
100
AcDbArc
 50
44.773113708
 51
107.2712999748
  0
ARC
  5
235
330
1F
100
AcDbEntity
  8
0
  6
Continuous
 62
     7
370
    25
100
AcDbCircle
 10
-14.7138823302
 20
24.6353633422
 30
0.0
 40
8.194477422517128
100
AcDbArc
 50
18.1283517666
 51
44.773113708
  0
ARC
  5
236
330
1F
100
AcDbEntity
  8
0
  6
Continuous
 62
     7
370
    25
100
AcDbCircle
 10
-6.3559462094
 20
27.3717362946
 30
0.0
 40
0.5999999999999986
100
AcDbArc
 50
198.1283517666
 51
283.0728793971
  0
ARC
  5
237
330
1F
100
AcDbEntity
  8
0
  6
Continuous
 62
     7
370
    25
100
AcDbCircle
 10
0.0
 20
0.0
 30
0.0
 40
27.50000000004615
100
AcDbArc
 50
100.9271206029
 51
103.0728793971
  0
ARC
  5
238
330
1F
100
AcDbEntity
  8
0
  6
Continuous
 62
     7
370
    25
100
AcDbCircle
 10
-5.326642347
 20
27.5905215845
 30
0.0
 40
0.5999999999999978
100
AcDbArc
 50
280.9271206029
 51
5.8716482334
  0
ARC
  5
239
330
1F
100
AcDbEntity
  8
0
  6
Continuous
 62
     7
370
    25
100
AcDbCircle
 10
3.4216953803
 20
28.4901993842
 30
0.0
 40
8.194477422517256
100
AcDbArc
 50
159.226886292
 51
185.8716482334
  0
ARC
  5
23A
330
1F
100
AcDbEntity
  8
0
  6
Continuous
 62
     7
370
    25
100
AcDbCircle
 10
-3.6790818407
 20
31.1837194191
 30
0.0
 40
0.5999999999999465
100
AcDbArc
 50
96.7287000252
 51
159.226886292
  0
ARC
  5
23B
330
1F
100
AcDbEntity
  8
0
  6
Continuous
 62
     7
370
    25
100
AcDbCircle
 10
0.0
 20
0.0
 30
0.0
 40
31.99999999995848
100
AcDbArc
 50
95.2712999748
 51
96.7287000252
  0
ARC
  5
23C
330
1F
100
AcDbEntity
  8
0
  6
Continuous
 62
     7
370
    25
100
AcDbCircle
 10
-2.884774755
 20
31.2672044579
 30
0.0
 40
0.600000000000032
100
AcDbArc
 50
32.773113708
 51
95.2712999748
  0
ARC
  5
23D
330
1F
100
AcDbEntity
  8
0
  6
Continuous
 62
     7
370
    25
100
AcDbCircle
 10
-9.2703686524
 20
27.1562097001
 30
0.0
 40
8.194477422517185
100
AcDbArc
 50
6.1283517666
 51
32.773113708
  0
ARC
  5
23E
330
1F
100
AcDbEntity
  8
0
  6
Continuous
 62
     7
370
    25
100
AcDbCircle
 10
-0.5261495615
 20
28.0950737077
 30
0.0
 40
0.6000000000000105
100
AcDbArc
 50
186.1283517666
 51
271.0728793971
  0
ARC
  5
23F
330
1F
100
AcDbEntity
  8
0
  6
Continuous
 62
     7
370
    25
100
AcDbCircle
 10
0.0
 20
-0.0000000001
 30
0.0
 40
27.50000000006428
100
AcDbArc
 50
88.9271206029
 51
91.0728793971
  0
ARC
  5
240
330
1F
100
AcDbEntity
  8
0
  6
Continuous
 62
     7
370
    25
100
AcDbCircle
 10
0.5261495615
 20
28.0950737077
 30
0.0
 40
0.5999999999999873
100
AcDbArc
 50
268.9271206029
 51
353.8716482334
  0
ARC
  5
241
330
1F
100
AcDbEntity
  8
0
  6
Continuous
 62
     7
370
    25
100
AcDbCircle
 10
9.2703686524
 20
27.1562097001
 30
0.0
 40
8.194477422517203
100
AcDbArc
 50
147.226886292
 51
173.8716482334
  0
ARC
  5
242
330
1F
100
AcDbEntity
  8
0
  6
Continuous
 62
     7
370
    25
100
AcDbCircle
 10
2.884774755
 20
31.2672044579
 30
0.0
 40
0.599999999999964
100
AcDbArc
 50
84.7287000252
 51
147.226886292
  0
ARC
  5
243
330
1F
100
AcDbEntity
  8
0
  6
Continuous
 62
     7
370
    25
100
AcDbCircle
 10
0.0
 20
0.0000000001
 30
0.0
 40
31.9999999998708
100
AcDbArc
 50
83.2712999748
 51
84.7287000252
  0
ARC
  5
244
330
1F
100
AcDbEntity
  8
0
  6
Continuous
 62
     7
370
    25
100
AcDbCircle
 10
3.6790818407
 20
31.1837194191
 30
0.0
 40
0.6000000000000449
100
AcDbArc
 50
20.773113708
 51
83.2712999748
  0
ARC
  5
245
330
1F
100
AcDbEntity
  8
0
  6
Continuous
 62
     7
370
    25
100
AcDbCircle
 10
-3.4216953803
 20
28.4901993842
 30
0.0
 40
8.194477422517208
100
AcDbArc
 50
354.1283517666
 51
20.773113708
  0
ARC
  5
246
330
1F
100
AcDbEntity
  8
0
  6
Continuous
 62
     7
370
    25
100
AcDbCircle
 10
0.0
 20
0.0
 30
0.0
 40
32.000000000004
100
AcDbArc
 50
179.2712999748
 51
180.7287000252
  0
ENDSEC
  0
SECTION
  2
OBJECTS
  0
DICTIONARY
  5
C
330
0
100
AcDbDictionary
281
     1
  3
ACAD_GROUP
350
D
  3
ACAD_LAYOUT
350
1A
  3
ACAD_MLINESTYLE
350
17
  3
ACAD_PLOTSETTINGS
350
19
  3
ACAD_PLOTSTYLENAME
350
E
  3
ACAD_SCALELIST
350
47
  3
DWGPROPS
350
247
  0
DICTIONARY
  5
D
102
{ACAD_REACTORS
330
C
102
}
330
C
100
AcDbDictionary
281
     1
  0
DICTIONARY
  5
1A
102
{ACAD_REACTORS
330
C
102
}
330
C
100
AcDbDictionary
281
     1
  3
Layout1
350
1E
  3
Layout2
350
26
  3
Model
350
22
  0
DICTIONARY
  5
17
102
{ACAD_REACTORS
330
C
102
}
330
C
100
AcDbDictionary
281
     1
  3
Standard
350
18
  0
DICTIONARY
  5
19
102
{ACAD_REACTORS
330
C
102
}
330
C
100
AcDbDictionary
281
     1
  0
ACDBDICTIONARYWDFLT
  5
E
102
{ACAD_REACTORS
330
C
102
}
330
C
100
AcDbDictionary
281
     1
  3
Normal
350
F
100
AcDbDictionaryWithDefault
340
F
  0
DICTIONARY
  5
47
102
{ACAD_REACTORS
330
C
102
}
330
C
100
AcDbDictionary
281
     1
  3
A0
350
48
  3
A1
350
49
  3
A2
350
4A
  3
A3
350
4B
  3
A4
350
4C
  3
A5
350
4D
  3
A6
350
4E
  3
A7
350
4F
  3
A8
350
50
  3
A9
350
51
  3
B0
350
52
  3
B1
350
53
  3
B2
350
54
  3
B3
350
55
  3
B4
350
56
  3
B5
350
57
  3
B6
350
58
  0
XRECORD
  5
247
102
{ACAD_REACTORS
330
C
102
}
330
C
100
AcDbXrecord
280
     1
  1
DWGPROPS COOKIE
  2

  3

  4

  6

  7

  8
thakr
  9

300
=
301
=
302
=
303
=
304
=
305
=
306
=
307
=
308
=
309
=
 40
0.0
 41
2459776.495696238
 42
2459776.495845891
  1

 90
        0
  0
LAYOUT
  5
1E
102
{ACAD_REACTORS
330
1A
102
}
330
1A
100
AcDbPlotSettings
  1

  2
none_device
  4

  6

 40
0.0
 41
0.0
 42
0.0
 43
0.0
 44
0.0
 45
0.0
 46
0.0
 47
0.0
 48
0.0
 49
0.0
140
0.0
141
0.0
142
1.0
143
1.0
 70
   688
 72
     1
 73
     0
 74
     5
  7

 75
    16
147
1.0
148
0.0
149
0.0
100
AcDbLayout
  1
Layout1
 70
     1
 71
     1
 10
0.0
 20
0.0
 11
420.0
 21
297.0
 12
0.0
 22
0.0
 32
0.0
 14
1.0000000000E+20
 24
1.0000000000E+20
 34
1.0000000000E+20
 15
-1.0000000000E+20
 25
-1.0000000000E+20
 35
-1.0000000000E+20
146
0.0
 13
0.0
 23
0.0
 33
0.0
 16
1.0
 26
0.0
 36
0.0
 17
0.0
 27
1.0
 37
0.0
 76
     0
330
1B
  0
LAYOUT
  5
26
102
{ACAD_REACTORS
330
1A
102
}
330
1A
100
AcDbPlotSettings
  1

  2
none_device
  4

  6

 40
0.0
 41
0.0
 42
0.0
 43
0.0
 44
0.0
 45
0.0
 46
0.0
 47
0.0
 48
0.0
 49
0.0
140
0.0
141
0.0
142
1.0
143
1.0
 70
   688
 72
     1
 73
     0
 74
     5
  7

 75
    16
147
1.0
148
0.0
149
0.0
100
AcDbLayout
  1
Layout2
 70
     1
 71
     2
 10
0.0
 20
0.0
 11
0.0
 21
0.0
 12
0.0
 22
0.0
 32
0.0
 14
0.0
 24
0.0
 34
0.0
 15
0.0
 25
0.0
 35
0.0
146
0.0
 13
0.0
 23
0.0
 33
0.0
 16
1.0
 26
0.0
 36
0.0
 17
0.0
 27
1.0
 37
0.0
 76
     0
330
23
  0
LAYOUT
  5
22
102
{ACAD_REACTORS
330
1A
102
}
330
1A
100
AcDbPlotSettings
  1

  2
none_device
  4
ANSI_A_(11.00_x_8.50_Inches)
  6

 40
6.35
 41
19.05
 42
6.35000508
 43
19.05000254
 44
279.4
 45
215.9
 46
133.34999746
 47
88.89999873
 48
0.0
 49
0.0
140
0.0
141
0.0
142
0.1320322906
143
1.0
 70
  1696
 72
     0
 73
     0
 74
     0
  7

 75
     0
147
0.0179189148
148
-1300.4909072572
149
0.0
100
AcDbLayout
  1
Model
 70
     1
 71
     0
 10
0.0
 20
0.0
 11
420.0
 21
297.0
 12
0.0
 22
0.0
 32
0.0
 14
-32.0
 24
-31.8672044579
 34
0.0
 15
32.0
 25
31.8672044579
 35
0.0
146
0.0
 13
0.0
 23
0.0
 33
0.0
 16
1.0
 26
0.0
 36
0.0
 17
0.0
 27
1.0
 37
0.0
 76
     0
330
1F
331
29
  0
MLINESTYLE
  5
18
102
{ACAD_REACTORS
330
17
102
}
330
17
100
AcDbMlineStyle
  2
Standard
 70
     0
  3

 62
   256
 51
90.0
 52
90.0
 71
     2
 49
0.5
 62
   256
  6
BYLAYER
 49
-0.5
 62
   256
  6
BYLAYER
  0
ACDBPLACEHOLDER
  5
F
102
{ACAD_REACTORS
330
E
102
}
330
E
  0
SCALE
  5
48
102
{ACAD_REACTORS
330
47
102
}
330
47
100
AcDbScale
 70
     0
300
1:1
140
1.0
141
1.0
290
     1
  0
SCALE
  5
49
102
{ACAD_REACTORS
330
47
102
}
330
47
100
AcDbScale
 70
     0
300
1:2
140
1.0
141
2.0
290
     0
  0
SCALE
  5
4A
102
{ACAD_REACTORS
330
47
102
}
330
47
100
AcDbScale
 70
     0
300
1:4
140
1.0
141
4.0
290
     0
  0
SCALE
  5
4B
102
{ACAD_REACTORS
330
47
102
}
330
47
100
AcDbScale
 70
     0
300
1:5
140
1.0
141
5.0
290
     0
  0
SCALE
  5
4C
102
{ACAD_REACTORS
330
47
102
}
330
47
100
AcDbScale
 70
     0
300
1:8
140
1.0
141
8.0
290
     0
  0
SCALE
  5
4D
102
{ACAD_REACTORS
330
47
102
}
330
47
100
AcDbScale
 70
     0
300
1:10
140
1.0
141
10.0
290
     0
  0
SCALE
  5
4E
102
{ACAD_REACTORS
330
47
102
}
330
47
100
AcDbScale
 70
     0
300
1:16
140
1.0
141
16.0
290
     0
  0
SCALE
  5
4F
102
{ACAD_REACTORS
330
47
102
}
330
47
100
AcDbScale
 70
     0
300
1:20
140
1.0
141
20.0
290
     0
  0
SCALE
  5
50
102
{ACAD_REACTORS
330
47
102
}
330
47
100
AcDbScale
 70
     0
300
1:30
140
1.0
141
30.0
290
     0
  0
SCALE
  5
51
102
{ACAD_REACTORS
330
47
102
}
330
47
100
AcDbScale
 70
     0
300
1:40
140
1.0
141
40.0
290
     0
  0
SCALE
  5
52
102
{ACAD_REACTORS
330
47
102
}
330
47
100
AcDbScale
 70
     0
300
1:50
140
1.0
141
50.0
290
     0
  0
SCALE
  5
53
102
{ACAD_REACTORS
330
47
102
}
330
47
100
AcDbScale
 70
     0
300
1:100
140
1.0
141
100.0
290
     0
  0
SCALE
  5
54
102
{ACAD_REACTORS
330
47
102
}
330
47
100
AcDbScale
 70
     0
300
2:1
140
2.0
141
1.0
290
     0
  0
SCALE
  5
55
102
{ACAD_REACTORS
330
47
102
}
330
47
100
AcDbScale
 70
     0
300
4:1
140
4.0
141
1.0
290
     0
  0
SCALE
  5
56
102
{ACAD_REACTORS
330
47
102
}
330
47
100
AcDbScale
 70
     0
300
8:1
140
8.0
141
1.0
290
     0
  0
SCALE
  5
57
102
{ACAD_REACTORS
330
47
102
}
330
47
100
AcDbScale
 70
     0
300
10:1
140
10.0
141
1.0
290
     0
  0
SCALE
  5
58
102
{ACAD_REACTORS
330
47
102
}
330
47
100
AcDbScale
 70
     0
300
100:1
140
100.0
141
1.0
290
     0
  0
ENDSEC
  0
EOF
